<svg width="173" height="21" fill="none" xmlns="http://www.w3.org/2000/svg"><path d="M.146 20c.096-4.08.144-7.12.144-9.12 0-1.184-.032-3.168-.096-5.952a233.894 233.894 0 01-.048-3.24h13.416v2.688H3.794v5.856l9.12-.096v2.28l-9.12-.096c0 2.4.016 4.96.048 7.68H.146zM17.161 3.128c-.816 0-1.392-.12-1.728-.36-.336-.256-.504-.648-.504-1.176 0-.528.168-.92.504-1.176.336-.256.912-.384 1.728-.384s1.392.128 1.728.384c.336.256.504.648.504 1.176 0 .528-.168.92-.504 1.176-.336.24-.912.36-1.728.36zM15.313 20c.064-2.192.096-4.52.096-6.984 0-3.424-.032-6.224-.096-8.4.144.016.392.04.744.072a25.413 25.413 0 002.184 0c.352-.032.6-.056.744-.072a690.89 690.89 0 00-.048 8.4c0 2.032.016 4.36.048 6.984h-3.672zm15.075.288c-1.376 0-2.536-.424-3.48-1.272-.944-.864-1.576-1.952-1.896-3.264h-.24L24.604 20H21.46c.048-4.112.072-7.216.072-9.312 0-3.008-.024-5.936-.072-8.784l3.648-.312-.024 3.936a27.385 27.385 0 01-.144 1.92 27.692 27.692 0 00-.144 1.656h.288c.464-1.504 1.208-2.664 2.232-3.48 1.024-.816 2.12-1.224 3.288-1.224 1.872 0 3.256.704 4.152 2.112.896 1.408 1.344 3.352 1.344 5.832 0 2.464-.488 4.408-1.464 5.832-.96 1.408-2.376 2.112-4.248 2.112zm-1.344-2.592c.944 0 1.744-.28 2.4-.84.72-1.248 1.08-2.736 1.08-4.464 0-1.344-.28-2.584-.84-3.72-.544-1.136-1.488-1.704-2.832-1.704-.816 0-1.544.256-2.184.768-.64.496-1.176 1.2-1.608 2.112v3.192c0 .944.184 1.768.552 2.472.384.704.88 1.248 1.488 1.632.624.368 1.272.552 1.944.552zm18.07-.864c.4-.8.673-1.688.817-2.664l3.456.12c-.288 2.032-1 3.544-2.136 4.536-1.136.976-2.808 1.464-5.016 1.464-4.8 0-7.2-2.608-7.2-7.824 0-2.64.632-4.64 1.896-6 1.28-1.36 3.16-2.04 5.64-2.04 4.368 0 6.68 2.496 6.936 7.488l-10.896.936c.064 1.504.432 2.688 1.104 3.552.672.864 1.616 1.296 2.832 1.296 1.008 0 1.864-.288 2.568-.864zm-2.807-9.84c-.592 0-1.152.112-1.68.336a3.623 3.623 0 00-1.32.912c-.384.992-.608 2.12-.672 3.384l7.32-.6c-.176-1.28-.576-2.272-1.2-2.976-.624-.704-1.44-1.056-2.448-1.056zM61.8 4.496c.976 0 1.768.248 2.376.744.624.48 1.096 1.216 1.416 2.208.336.992.576 2.288.72 3.888l-3.552.432c-.176-1.52-.52-2.688-1.032-3.504-.496-.832-1.208-1.248-2.136-1.248-1.12 0-2.04.792-2.76 2.376v3.432c0 3.216.032 5.608.096 7.176h-3.72c.064-1.6.096-4.144.096-7.632 0-3.488-.024-6.04-.072-7.656h3.696L56.4 9.104l.24.024c.416-1.488 1.104-2.632 2.064-3.432.96-.8 1.992-1.2 3.096-1.2zm11.615 15.72c-1.408 0-2.464-.264-3.168-.792-.704-.544-1.168-1.296-1.392-2.256-.224-.96-.336-2.256-.336-3.888v-6l-2.184.072V4.688c.624 0 1.336.016 2.136.048V1.544c1.088 0 2.312-.04 3.672-.12 0 1.472-.008 2.576-.024 3.312.624 0 1.688-.016 3.192-.048l1.392-.024c-.048.448-.072.896-.072 1.344 0 .272-.008.48-.024.624l-.024.744-4.488-.096v6.984c0 1.024.104 1.816.312 2.376.224.56.648.84 1.272.84.976 0 1.888-.12 2.736-.36l-.024 1.296a38.659 38.659 0 00-.048 1.416c-1.056.256-2.032.384-2.928.384zM83.465 20c0-.384.017-1.072.049-2.064.064-3.136.096-5.488.096-7.056 0-2.272-.04-4.744-.12-7.416l-.024-1.776h7.8c1.68 0 3.048.144 4.104.432 1.072.288 1.88.792 2.424 1.512s.816 1.72.816 3c0 1.696-.464 2.944-1.392 3.744-.912.784-2.264 1.192-4.056 1.224v.312c1.568.064 2.736.392 3.504.984.768.592 1.312 1.552 1.632 2.88.096.464.272 1.168.528 2.112.272.944.488 1.648.648 2.112h-3.888l-.288-1.152c-.368-1.488-.592-2.488-.672-3-.224-.736-.48-1.312-.768-1.728a2.33 2.33 0 00-1.104-.936c-.464-.208-1.072-.312-1.824-.312h-3.816V20h-3.648zm7.225-9.24c1.488 0 2.56-.264 3.216-.792.672-.544 1.008-1.384 1.008-2.52 0-1.232-.336-2.08-1.008-2.544-.656-.464-1.72-.696-3.192-.696H87.09v6.552h3.6zm19.551 6.072c.4-.8.672-1.688.816-2.664l3.456.12c-.288 2.032-1 3.544-2.136 4.536-1.136.976-2.808 1.464-5.016 1.464-4.8 0-7.2-2.608-7.2-7.824 0-2.64.632-4.64 1.896-6 1.28-1.36 3.16-2.04 5.64-2.04 4.368 0 6.68 2.496 6.936 7.488l-10.896.936c.064 1.504.432 2.688 1.104 3.552.672.864 1.616 1.296 2.832 1.296 1.008 0 1.864-.288 2.568-.864zm-2.808-9.84c-.592 0-1.152.112-1.68.336a3.623 3.623 0 00-1.32.912c-.384.992-.608 2.12-.672 3.384l7.32-.6c-.176-1.28-.576-2.272-1.2-2.976-.624-.704-1.44-1.056-2.448-1.056zm12.309-1.824c0 .24.064.528.192.864h4.872l-.144 2.52-4.008-.048-.024 5.328c0 2.256.032 4.312.096 6.168h-3.696c.048-1.424.072-3.464.072-6.12V8.504l-1.944.048v-2.52h1.992c-.432-.512-.648-1.2-.648-2.064 0-.672.216-1.264.648-1.776.448-.528 1.064-.936 1.848-1.224.784-.288 1.68-.432 2.688-.432.56 0 1.136.04 1.728.12a9.361 9.361 0 011.488.264l-.168 2.784a5.182 5.182 0 00-1.92-.36c-.912 0-1.656.16-2.232.48-.56.32-.84.768-.84 1.344zm20.458-.456c-.08 1.6-.12 4.144-.12 7.632 0 3.488.032 6.04.096 7.656h-3.72l.408-4.368h-.264c-.4 1.392-1.128 2.528-2.184 3.408-1.04.864-2.208 1.296-3.504 1.296-1.664 0-2.832-.512-3.504-1.536-.672-1.04-1.032-2.608-1.08-4.704a68.681 68.681 0 01-.024-1.896c0-.704-.008-1.408-.024-2.112 0-.656-.008-1.616-.024-2.88-.016-1.28-.032-2.112-.048-2.496h3.672a213.943 213.943 0 00-.072 4.728v3.216c0 1.488.184 2.712.552 3.672.368.944 1.12 1.416 2.256 1.416.784 0 1.552-.28 2.304-.84.768-.56 1.312-1.24 1.632-2.04v-3.24c0-3.072-.032-5.376-.096-6.912h3.744zM142.668 20c.064-1.6.096-4.144.096-7.632 0-3.488-.024-6.04-.072-7.656h3.696l-.384 4.392h.24c.416-1.408 1.152-2.544 2.208-3.408 1.072-.864 2.264-1.296 3.576-1.296 1.648 0 2.8.512 3.456 1.536.656 1.024 1.008 2.592 1.056 4.704.016.576.024 1.216.024 1.92 0 .688.008 1.384.024 2.088 0 .656.008 1.616.024 2.88.016 1.264.032 2.088.048 2.472h-3.672l.048-1.68.024-2.16v-.984c-.016-.448-.024-1.488-.024-3.12 0-1.488-.184-2.704-.552-3.648-.368-.96-1.112-1.44-2.232-1.44-.784 0-1.56.28-2.328.84-.752.544-1.296 1.224-1.632 2.04v3.264c0 3.056.032 5.352.096 6.888h-3.72zm26.587 0c.224-2.592.36-4.056.408-4.392l-.264-.024c-.48 1.424-1.208 2.568-2.184 3.432-.96.864-2.136 1.296-3.528 1.296-1.744 0-3.072-.68-3.984-2.04-.896-1.36-1.344-3.344-1.344-5.952 0-2.464.488-4.392 1.464-5.784.992-1.408 2.448-2.112 4.368-2.112.832 0 1.616.184 2.352.552a4.847 4.847 0 011.872 1.536c.512.672.84 1.448.984 2.328h.288a82.957 82.957 0 00-.264-3.528c-.032-1.344-.048-2.48-.048-3.408l3.6-.312c-.032 1.952-.048 5.36-.048 10.224 0 3.216.024 5.944.072 8.184h-3.744zm-3.864-2.28c.88 0 1.672-.256 2.376-.768s1.256-1.216 1.656-2.112v-3.216c0-.88-.184-1.672-.552-2.376-.368-.704-.856-1.256-1.464-1.656-.592-.4-1.232-.6-1.92-.6-.88 0-1.704.28-2.472.84-.72 1.248-1.08 2.736-1.08 4.464 0 .784.096 1.592.288 2.424.208.816.568 1.52 1.08 2.112.512.592 1.208.888 2.088.888z" fill="#fff"/></svg>