<svg width="319" height="201" fill="none" xmlns="http://www.w3.org/2000/svg"><g clip-path="url(#clip0_974_5197)"><path d="M13.526 113.95h21.586L6.681 200.597l-.566 1.724 1.815-.027 301.268-4.558 1.649-.025-.416-1.596-32.855-125.977 25.704 24.37 2.112-1.364-16.807-48.314L312.13 2.584l1.065-1.91-2.187-.015-304-1.953-2.05-.013.87 1.856 29.64 63.24-23.11 48.308-.885 1.853h2.053z" fill="#ECFF3B" stroke="#10150B" stroke-width="2.588"/><path d="M76 192h12.68v-21.588L101.074 192v-21.588h64.556v17.091l7.349-17.091 8.07 17.091h33.431v-13.718l8.79 13.718v-21.588l20.029 7.87-2.882-31.707 15.995-7.421-6.484 21.588H275l-18.589-68.749L208 76.5" stroke="#10150B" stroke-width="2"/><path d="M200.362 59.409l-16.252 12.56 5.956 16.21 20.057-4.76 12.616-11.993-4.399-16.115-17.978 4.098z" fill="#CEC9BD"/><path d="M210.389 83.91l-.139.036-20.522 4.875-6.259-17.03 16.658-12.876 18.597-4.238 4.611 16.926-12.946 12.307zm-19.981 3.636l19.451-4.618 12.275-11.67-4.177-15.307-17.358 3.957-15.846 12.246 5.655 15.392z" fill="#010101"/><path d="M209.61 83.585l-5.289-16.298-20.076 5.204-.27-1.043 21.058-5.459 5.604 17.263-1.027.333z" fill="#010101"/><path d="M204.675 66.637L218.34 55.31l4.398 16.116-12.616 11.992-5.447-16.78z" fill="#010101"/><path d="M217.994 54.901l-13.663 11.325.688.83 13.663-11.325-.688-.83z" fill="#010101"/><path d="M206.459 82.137l-7.448 1.931-1.088-3.355 7.446-1.93 1.09 3.354z" fill="#ECFF3B"/><path d="M207.146 82.514l-8.483 2.199-1.422-4.38 8.491-2.2 1.414 4.38zm-7.779.904l6.401-1.66-.754-2.327-6.399 1.66.752 2.327z" fill="#010101"/><path d="M198.551 36.607c1.311 3.687-2.232 14.85-2.232 14.85s-9.801-6.412-11.12-10.095a7.086 7.086 0 011.923-7.632 7.088 7.088 0 017.787-1.143 7.08 7.08 0 013.635 4.022l.007-.002z" fill="#ECFF3B"/><path d="M196.619 52.296l-.595-.389c-.405-.265-9.966-6.543-11.326-10.366a7.615 7.615 0 012.031-8.269 7.621 7.621 0 0112.327 3.155c1.358 3.813-2.078 14.73-2.225 15.193l-.212.676zm-6.37-19.642c-.19.049-.379.098-.565.173a6.546 6.546 0 00-3.972 8.349c1.055 2.963 8.176 7.977 10.303 9.425.735-2.464 3.084-10.85 2.022-13.812a6.55 6.55 0 00-7.788-4.135z" fill="#010101"/><path d="M192.516 41.514a2.808 2.808 0 10-1.41-5.435 2.808 2.808 0 001.41 5.435z" fill="#CEC9BD"/><path d="M192.646 42.036a3.345 3.345 0 11-1.667-6.48 3.345 3.345 0 011.667 6.48zm-1.409-5.435l-.209.054a2.216 2.216 0 001.217 4.263 2.22 2.22 0 001.602-2.65 2.214 2.214 0 00-2.61-1.667zm-6.848 35.757l-.923-.556 12.582-20.938 22.72 3.828-.178 1.062-21.996-3.705-12.205 20.309z" fill="#010101"/><path d="M196.794 51.202l-.949.51 8.12 15.096.948-.51-8.119-15.096z" fill="#010101"/><path d="M186.838 41.775a5.911 5.911 0 01-.723-4.042c.492-2.532 2.242-3.373 2.317-3.408l.454.977-.227-.488.231.485c-.053.027-1.334.669-1.718 2.638a4.888 4.888 0 00.574 3.262l-.908.576z" fill="#CEC9BD"/><path d="M71.209 123.977h78.5l16.753 4.489v72.224H71.209v-76.713z" fill="#12190C"/><path d="M167.717 201.945H69.955v-79.222h79.919l17.843 4.78v74.442zm-95.254-2.509h92.746V129.43l-15.666-4.199h-77.08v74.205z" fill="#12190C"/><path d="M124.035 184.432H71.209v16.258h52.826v-16.258z" fill="#ECFF3B"/><path d="M125.29 201.945H69.955v-18.767h55.335v18.767zm-52.827-2.509h50.319v-13.749H72.463v13.749z" fill="#12190C"/><path d="M148.177 142.591h-24.143v58.102h24.143v-58.102z" fill="#ECFF3B"/><path d="M149.431 201.945H122.78v-60.612h26.651v60.612zm-24.143-2.509h21.635v-55.595h-21.635v55.595z" fill="#12190C"/><path d="M131.035 163.281h-2.508v13.794h2.508v-13.794z" fill="#12190C"/><path d="M124.035 136.116H71.209v48.316h52.826v-48.316z" fill="#CEC9BD"/><path d="M125.29 185.687H69.955v-50.825h55.335v50.825zm-52.827-2.508h50.319V137.37H72.463v45.809z" fill="#12190C"/><path d="M88.69 157.294l-7.129 6.668 1.714 1.832 7.129-6.669-1.714-1.831zm0 7.454l-7.129 6.669 1.714 1.831 7.129-6.668-1.714-1.832z" fill="#12190C"/><path d="M53.66 137.917l16.615-13.94h77.902l-24.143 22.292s-1.289-8.759-8.708-9.471c-6.562-.627-10.71 7.168-10.71 7.168s-2.985-7.203-8.944-7.203c-6.13 0-10.068 5.824-10.068 5.824s-3.19-5.824-9.53-5.824c-4.891 0-9.506 5.468-9.506 5.468s-3.838-4.204-7.555-5.267c-1.304-.377-5.352.953-5.352.953z" fill="#CEC9BD"/><path d="M67.847 146.271H65.34a8.25 8.25 0 10-16.498 0h-2.508a10.765 10.765 0 013.067-7.758 10.752 10.752 0 017.69-3.234 10.766 10.766 0 017.69 3.234 10.76 10.76 0 013.067 7.758z" fill="#12190C"/><path d="M86.858 146.271H84.35a8.25 8.25 0 00-8.252-8.251 8.25 8.25 0 00-8.251 8.251h-2.509a10.76 10.76 0 0121.52 0z" fill="#12190C"/><path d="M105.863 146.271h-2.508a8.252 8.252 0 00-16.504 0h-2.508a10.76 10.76 0 0121.52 0z" fill="#12190C"/><path d="M125.288 146.271h-2.509a8.251 8.251 0 10-16.503 0h-2.508a10.76 10.76 0 1121.52 0z" fill="#12190C"/><path d="M147.324 123.061l-24.142 22.293 1.701 1.843 24.142-22.294-1.701-1.842z" fill="#12190C"/><path d="M51.612 140.099l-1.54-1.981 19.77-15.395h78.333v2.508h-77.47l-19.093 14.868z" fill="#12190C"/><path d="M86.463 123.038l-17.682 15.35 1.644 1.894 17.683-15.35-1.645-1.894zm17.285.041l-16.293 15.63 1.736 1.81 16.293-15.63-1.736-1.81zm21.79-.063l-18.373 15.406 1.611 1.922 18.374-15.406-1.612-1.922z" fill="#12190C"/><path d="M149.272 103.412v20.27H71.209v-20.27h19.81a19.253 19.253 0 0138.444 0h19.809z" fill="#ECFF3B"/><path d="M150.512 124.939H69.955V102.16h19.91a20.507 20.507 0 0140.752 0h19.895v22.779zm-78.064-2.508h75.555v-17.763h-19.734l-.06-1.189a17.992 17.992 0 00-30.351-12.104 17.993 17.993 0 00-5.585 12.104l-.066 1.189H72.464l-.016 17.763z" fill="#12190C"/><path d="M119.107 94.094l-20.804 21.289 1.793 1.753 20.805-21.289-1.794-1.753zm-15.624 8.6a5.045 5.045 0 01-4.955-4.152 5.04 5.04 0 114.955 4.152zm0-7.585a2.538 2.538 0 10.014 5.077 2.538 2.538 0 00-.014-5.077zm12.84 22.402a5.056 5.056 0 01-4.4-7.547 5.053 5.053 0 019.379 3.302 5.05 5.05 0 01-4.979 4.245zm0-7.585a2.54 2.54 0 10.003 5.078 2.54 2.54 0 00-.003-5.078z" fill="#12190C"/><path d="M77.354 106.826h-2.508v9.681h2.508v-9.681z" fill="#CEC9BD"/></g><defs><clipPath id="clip0_974_5197"><path fill="#fff" d="M0 0h319v201H0z"/></clipPath></defs></svg>