<svg width="227" height="27" fill="none" xmlns="http://www.w3.org/2000/svg"><path d="M.937 21V.629h13.699v3.13H4.546v5.565h9.365v3.063H4.546V21H.936zM19.4.629V21h-3.445V.629H19.4zm2.674 26.086v-2.803h1.71c.929 0 1.366-.465 1.776-1.6l.534-1.394L20.53 6.563h3.65l2.653 7.519c.355 1.066.71 2.133 1.039 3.2.328-1.067.67-2.134 1.039-3.2l2.639-7.52h3.61L28.705 23.38c-.861 2.256-2.283 3.336-4.375 3.336h-2.256zm21.555-5.387c-5.045 0-8.067-2.611-8.067-6.973h3.541c.028 2.461 1.723 3.924 4.553 3.924 2.543 0 4.225-1.148 4.225-2.94 0-1.435-1.067-2.269-3.788-2.898l-2.187-.492c-4.074-.93-5.947-2.72-5.947-5.578 0-3.637 2.994-6.07 7.492-6.07 4.553 0 7.383 2.46 7.506 6.508h-3.432c-.15-2.147-1.709-3.446-4.088-3.446-2.256 0-3.855 1.162-3.855 2.83 0 1.368 1.053 2.133 3.705 2.748l2.064.479c4.225.943 6.125 2.707 6.125 5.701 0 3.8-3.021 6.207-7.847 6.207zM56.338 21L51.881 6.562h3.623l1.49 5.483c.452 1.723.862 3.568 1.3 5.36.45-1.792.888-3.637 1.367-5.36l1.531-5.482h3.185l1.518 5.482c.465 1.709.902 3.54 1.354 5.332.41-1.791.834-3.623 1.285-5.332l1.49-5.482h3.664L69.218 21h-3.583l-1.75-6.016c-.383-1.34-.738-2.748-1.107-4.156-.356 1.408-.711 2.817-1.108 4.156L59.893 21h-3.555zm22.457.232c-2.87 0-4.99-1.449-4.99-4.334 0-3.28 2.693-4.088 5.674-4.402 2.68-.3 3.596-.342 3.596-1.326v-.11c0-1.23-.985-2.105-2.64-2.105-1.68 0-2.802.875-2.898 2.092h-3.322c.164-2.871 2.516-4.772 6.29-4.772 3.76 0 5.988 1.873 5.988 4.881V21h-3.391v-2.037h-.055c-.683 1.285-1.9 2.27-4.252 2.27zm.848-2.556c2.256 0 3.445-1.34 3.445-3.022v-1.558c-.423.273-1.763.492-3.185.71-1.477.22-2.735.753-2.735 2.065 0 1.135.971 1.805 2.475 1.805zm9.058 8.039V6.563h3.391v2.01h.041c.902-1.532 2.502-2.298 4.375-2.298 3.719 0 6.234 3.05 6.234 7.493 0 4.498-2.474 7.52-6.248 7.52-1.886 0-3.404-.821-4.306-2.462h-.041v7.889H88.7zm6.987-8.313c2.132 0 3.568-1.64 3.568-4.634 0-2.98-1.436-4.635-3.568-4.635-2.256 0-3.733 1.832-3.733 4.635 0 2.816 1.477 4.634 3.733 4.634zM109.963 21V.629h14.15v3.13h-10.541v5.36h9.748v3.076h-9.748v5.674h10.541V21h-14.15zm14.472 0l5.237-7.355-4.895-7.082h3.842l1.504 2.296c.519.848 1.012 1.641 1.504 2.448.492-.807.984-1.6 1.517-2.448l1.532-2.296h3.787l-4.936 7.013L138.695 21h-3.855l-1.723-2.57c-.533-.848-1.025-1.655-1.531-2.448-.506.793-1.012 1.6-1.559 2.448l-1.75 2.57h-3.842zm20.994.328c-4.224 0-7.054-3.076-7.054-7.533 0-4.457 2.83-7.56 7.054-7.56 3.623 0 6.248 2.283 6.549 5.495h-3.377c-.26-1.545-1.34-2.625-3.131-2.625-2.256 0-3.609 1.832-3.609 4.69 0 2.844 1.34 4.662 3.609 4.662 1.805 0 2.776-1.039 3.104-2.639h3.404c-.246 3.159-2.898 5.51-6.549 5.51zm11.479-8.49V21h-3.446V.629h3.446v8.053c.984-1.573 2.433-2.407 4.375-2.407 3.021 0 5.154 1.996 5.154 5.702V21h-3.459v-8.477c0-2.119-1.066-3.226-2.912-3.226-1.805 0-3.158 1.08-3.158 3.54zm16.167 8.394c-2.871 0-4.99-1.449-4.99-4.334 0-3.28 2.694-4.088 5.674-4.402 2.68-.3 3.596-.342 3.596-1.326v-.11c0-1.23-.985-2.105-2.639-2.105-1.682 0-2.803.875-2.898 2.092h-3.323c.164-2.871 2.516-4.772 6.289-4.772 3.76 0 5.989 1.873 5.989 4.881V21h-3.391v-2.037h-.055c-.683 1.285-1.9 2.27-4.252 2.27zm.848-2.556c2.256 0 3.445-1.34 3.445-3.022v-1.558c-.423.273-1.763.492-3.185.71-1.477.22-2.734.753-2.734 2.065 0 1.135.97 1.805 2.474 1.805zm12.504-5.838V21h-3.445V6.562h3.39v2.215c.985-1.627 2.447-2.502 4.43-2.502 3.021 0 5.154 1.996 5.154 5.702V21h-3.459v-8.477c0-2.119-1.066-3.226-2.912-3.226-1.805 0-3.158 1.08-3.158 3.54zm18.314 14.068c-3.814 0-6.125-1.763-6.508-4.566h3.377c.328 1.244 1.518 1.9 3.131 1.9 2.16 0 3.404-1.19 3.404-3.404v-2.201h-.013c-.93 1.695-2.461 2.46-4.362 2.46-3.773 0-6.248-3.034-6.248-7.382 0-4.389 2.516-7.438 6.221-7.438 1.873 0 3.445.78 4.402 2.434h.014V6.563h3.404V20.63c0 4.47-2.912 6.275-6.822 6.275zm-.164-8.654c2.256 0 3.733-1.805 3.733-4.58 0-2.776-1.477-4.58-3.733-4.58-2.133 0-3.568 1.64-3.568 4.58 0 2.953 1.435 4.58 3.568 4.58zm15.58 3.076c-4.334 0-7.041-3.158-7.041-7.533 0-4.389 2.857-7.56 6.904-7.56 4.157 0 6.918 3.076 6.918 7.505v.944h-10.445c.082 2.351 1.422 3.923 3.746 3.923 1.736 0 2.898-.834 3.295-2.064h3.227c-.547 2.83-3.227 4.785-6.604 4.785zm-3.637-9.023h7.11c-.219-2.065-1.559-3.336-3.555-3.336-1.996 0-3.322 1.271-3.555 3.336z" fill="#000"/></svg>