<svg width="165" height="26" fill="none" xmlns="http://www.w3.org/2000/svg"><path d="M21.321 21H18.15V7h-.096l-5.7 13.836H9.945L4.245 7h-.096v14H.964V1.271h4.088l6.043 14.89h.109l6.043-14.89h4.074V21zm7.38-2.338c.975 0 1.796-.287 2.461-.861.675-.584 1.012-1.308 1.012-2.174V14.52l-3.35.205c-.82.054-1.458.26-1.914.615-.447.346-.67.806-.67 1.38 0 .593.224 1.067.67 1.423.456.346 1.053.52 1.791.52zm-1.025 2.57c-1.413 0-2.575-.405-3.487-1.216-.902-.812-1.353-1.864-1.353-3.159 0-1.285.474-2.301 1.422-3.048.957-.748 2.32-1.176 4.088-1.286l3.828-.218v-1.04c0-.756-.242-1.344-.725-1.763-.474-.42-1.135-.629-1.982-.629-.793 0-1.44.178-1.942.533a2.182 2.182 0 00-.916 1.45h-3.158c.073-1.377.661-2.493 1.764-3.35 1.112-.866 2.575-1.299 4.389-1.299 1.795 0 3.23.438 4.306 1.313 1.085.875 1.627 2.041 1.627 3.5V21h-3.281v-2.31h-.069c-.41.774-1.03 1.394-1.859 1.859a5.423 5.423 0 01-2.652.683zm9.91-.232V6.508h3.267v2.488h.068c.401-.875.985-1.554 1.75-2.037.775-.483 1.71-.725 2.803-.725 1.586 0 2.816.479 3.691 1.436.884.957 1.326 2.279 1.326 3.965V21h-3.404v-8.682c0-1.039-.246-1.832-.738-2.379-.483-.546-1.203-.82-2.16-.82-.976 0-1.755.32-2.338.957-.574.638-.862 1.481-.862 2.53V21h-3.404zM53.468 3.117h3.404v3.39h2.735v2.626h-2.735v7.533c0 .593.142 1.03.424 1.313.283.282.725.423 1.326.423.402 0 .725-.022.971-.068v2.598c-.41.09-.998.136-1.764.136-1.567 0-2.688-.3-3.363-.902-.665-.602-.998-1.609-.998-3.021V9.133H51.39V6.508h2.078v-3.39zm12.863 15.545c.975 0 1.795-.287 2.46-.861.675-.584 1.012-1.308 1.012-2.174V14.52l-3.35.205c-.82.054-1.458.26-1.913.615-.447.346-.67.806-.67 1.38 0 .593.223 1.067.67 1.423.455.346 1.052.52 1.79.52zm-1.026 2.57c-1.412 0-2.575-.405-3.486-1.216-.902-.812-1.354-1.864-1.354-3.159 0-1.285.474-2.301 1.422-3.048.957-.748 2.32-1.176 4.088-1.286l3.828-.218v-1.04c0-.756-.241-1.344-.724-1.763-.474-.42-1.135-.629-1.983-.629-.793 0-1.44.178-1.941.533a2.183 2.183 0 00-.916 1.45h-3.158c.073-1.377.66-2.493 1.763-3.35 1.112-.866 2.575-1.299 4.389-1.299 1.796 0 3.231.438 4.307 1.313 1.084.875 1.627 2.041 1.627 3.5V21h-3.282v-2.31h-.068c-.41.774-1.03 1.394-1.86 1.859a5.424 5.424 0 01-2.652.683zM93.356 21l-1.682-5.1h-7.26L82.732 21h-3.636l7-19.729h3.978l7 19.729h-3.718zm-5.36-16.242l-2.762 8.422h5.606l-2.748-8.422h-.096zM98.234 21V6.508h3.404V21h-3.404zm3.035-16.926a1.847 1.847 0 01-1.34.533c-.529 0-.975-.177-1.34-.533a1.79 1.79 0 01-.547-1.312c0-.52.183-.957.547-1.313a1.822 1.822 0 011.34-.547c.529 0 .975.183 1.34.547.373.356.56.793.56 1.313 0 .51-.187.948-.56 1.312zM103.795 21V6.508h3.268v2.53h.068c.246-.885.67-1.569 1.272-2.052.61-.483 1.344-.724 2.201-.724.301 0 .656.045 1.066.136v3.077c-.337-.128-.797-.192-1.381-.192-.966 0-1.722.292-2.269.875-.547.584-.82 1.386-.82 2.407V21h-3.405zm13.792.232c-1.832 0-3.294-.674-4.388-2.023-1.085-1.349-1.627-3.172-1.627-5.469 0-2.287.542-4.106 1.627-5.455 1.094-1.349 2.556-2.023 4.388-2.023 1.021 0 1.924.241 2.708.724a4.548 4.548 0 011.777 1.955h.082v-7.67h3.404V21h-3.336v-2.475h-.054a4.651 4.651 0 01-1.819 1.983c-.802.483-1.722.724-2.762.724zm1.026-12.168c-1.094 0-1.96.424-2.598 1.272-.638.838-.957 1.978-.957 3.418 0 1.45.315 2.593.944 3.432.638.838 1.508 1.257 2.611 1.257 1.075 0 1.937-.424 2.584-1.271.647-.848.971-1.987.971-3.418 0-1.422-.324-2.557-.971-3.404-.647-.857-1.509-1.286-2.584-1.286zM127.716 21V6.508h3.267v2.53h.069c.246-.885.669-1.569 1.271-2.052.611-.483 1.344-.724 2.201-.724.301 0 .656.045 1.067.136v3.077c-.338-.128-.798-.192-1.381-.192-.966 0-1.723.292-2.27.875-.547.584-.82 1.386-.82 2.407V21h-3.404zm19.903-1.723c-1.267 1.34-2.971 2.01-5.113 2.01-2.142 0-3.846-.67-5.113-2.01-1.267-1.349-1.901-3.19-1.901-5.523 0-2.324.638-4.16 1.914-5.51 1.276-1.358 2.976-2.037 5.1-2.037 2.133 0 3.833.68 5.099 2.037 1.277 1.35 1.915 3.186 1.915 5.51 0 2.333-.634 4.174-1.901 5.523zm-7.711-1.955c.638.848 1.504 1.272 2.598 1.272 1.094 0 1.959-.424 2.598-1.272.638-.847.957-2.037.957-3.568 0-1.522-.319-2.707-.957-3.555-.639-.857-1.504-1.285-2.598-1.285-1.085 0-1.951.428-2.598 1.285-.638.848-.957 2.033-.957 3.555 0 1.531.319 2.72.957 3.568zm19.056-11.06c1.841 0 3.304.67 4.389 2.01 1.084 1.34 1.627 3.167 1.627 5.482 0 2.306-.538 4.129-1.614 5.469-1.075 1.34-2.524 2.01-4.347 2.01-1.039 0-1.955-.233-2.748-.698a4.545 4.545 0 01-1.791-1.941h-.069v7.177h-3.404V6.508h3.322V9.01h.069A4.735 4.735 0 01156.216 7c.793-.492 1.709-.738 2.748-.738zm-1.039 12.181c1.103 0 1.973-.419 2.611-1.258.638-.847.957-1.991.957-3.431 0-1.431-.323-2.57-.97-3.418-.638-.848-1.504-1.272-2.598-1.272-1.057 0-1.91.429-2.557 1.286-.647.856-.975 1.991-.984 3.404.009 1.422.337 2.561.984 3.418.647.848 1.5 1.271 2.557 1.271z" fill="#F0F0EC"/></svg>