<svg width="351" height="287" fill="none" xmlns="http://www.w3.org/2000/svg"><mask id="mask0_3089_84" style="mask-type:alpha" maskUnits="userSpaceOnUse" x="-93" y="16" width="706" height="243"><g style="mix-blend-mode:plus-lighter" fill="#D9D9D9"><rect x="339.001" y="203" width="1" height="1" rx=".5" transform="rotate(-180 339.001 203)"/><rect x="269" y="96" width="1" height="1" rx=".5" transform="rotate(-180 269 96)"/><rect x="89.001" y="187" width="1" height="1" rx=".5" transform="rotate(-180 89.001 187)"/><rect x="123" y="126" width="1" height="1" rx=".5" transform="rotate(-180 123 126)"/><rect x="117.001" y="36" width="1" height="1" rx=".5" transform="rotate(-180 117.001 36)"/><rect x="313" y="17" width="1" height="1" rx=".5" transform="rotate(-180 313 17)"/><rect x="8.001" y="56" width="1" height="1" rx=".5" transform="rotate(-180 8.001 56)" fill-opacity=".1"/><rect x="61.001" y="111" width="5" height="5" rx="2.5" transform="rotate(-180 61.001 111)" fill-opacity=".7"/><rect x="223.001" y="222" width="5" height="5" rx="2.5" transform="rotate(-180 223.001 222)" fill-opacity=".8"/><rect x="244" y="62" width="5" height="5" rx="2.5" transform="rotate(-180 244 62)" fill-opacity=".72"/><rect x="149.002" y="80.001" width="5" height="5" rx="2.5" transform="rotate(-180 149.002 80)" fill-opacity=".5"/><rect x="316.001" y="258" width="5" height="5" rx="2.5" transform="rotate(-180 316.001 258)" fill-opacity=".8"/><rect x="312.001" y="167" width="1" height="1" rx=".5" transform="rotate(-180 312.001 167)"/><rect x="251.001" y="152" width="1" height="1" rx=".5" transform="rotate(-180 251.001 152)"/><rect x="191.001" y="87" width="1" height="1" rx=".5" transform="rotate(-180 191.001 87)"/><rect x="218.001" y="144" width="1" height="1" rx=".5" transform="rotate(-180 218.001 144)" fill-opacity=".55"/><rect x="175.001" y="166" width="1" height="1" rx=".5" transform="rotate(-180 175.001 166)" fill-opacity=".55"/><rect x="218.001" y="185" width="1" height="1" rx=".5" transform="rotate(-180 218.001 185)" fill-opacity=".8"/><rect x="309" y="133" width="1" height="1" rx=".5" transform="rotate(-180 309 133)"/></g></mask><g opacity=".6" filter="url(#filter0_f_3089_84)" mask="url(#mask0_3089_84)"><ellipse cx="256.001" cy="121.5" rx="334" ry="91.5" fill="#fff"/></g><g opacity=".6" filter="url(#filter1_f_3089_84)"><ellipse cx="177" cy="128.5" rx="197" ry="91.5" fill="url(#paint0_radial_3089_84)"/></g><g filter="url(#filter2_bd_3089_84)"><rect x="27" y="74" width="300" height="72" rx="4" fill="url(#paint1_linear_3089_84)" fill-opacity=".64" shape-rendering="crispEdges"/><path d="M55.8 116.16c-1.077 0-1.936-.309-2.576-.928-.63-.629-.944-1.467-.944-2.512v-5.12c0-1.045.315-1.877.944-2.496.64-.629 1.499-.944 2.576-.944s1.93.315 2.56.944c.64.619.96 1.451.96 2.496v5.12c0 .693-.144 1.301-.432 1.824a3.035 3.035 0 01-1.232 1.2c-.523.277-1.141.416-1.856.416zm0-1.232c.64 0 1.152-.203 1.536-.608.395-.416.592-.949.592-1.6v-5.12c0-.651-.197-1.179-.592-1.584-.384-.416-.896-.624-1.536-.624s-1.157.208-1.552.624c-.384.405-.576.933-.576 1.584v5.12c0 .651.192 1.184.576 1.6.395.405.912.608 1.552.608zm0-3.824a.954.954 0 01-.704-.272c-.17-.181-.256-.421-.256-.72 0-.288.085-.517.256-.688a.954.954 0 01.704-.272c.288 0 .517.091.688.272.181.171.272.4.272.688 0 .299-.09.539-.272.72-.17.181-.4.272-.688.272zM61.234 116l3.36-5.92-3.184-5.76h1.664l1.808 3.456c.096.181.192.379.288.592.106.203.192.363.256.48.053-.117.128-.277.224-.48.106-.213.208-.411.304-.592l1.84-3.456h1.584l-3.184 5.664 3.36 6.016h-1.648l-2-3.712a158 158 0 01-.304-.576 20.28 20.28 0 01-.224-.512 6.55 6.55 0 01-.24.496c-.096.203-.192.395-.288.576L62.834 116h-1.6zm10.393 0v-1.312h3.169v-9.168l-3.169 2.368v-1.6l2.64-1.968h1.969v10.368h2.591V116h-7.2zm12.922.16c-.95 0-1.728-.245-2.336-.736-.608-.491-.965-1.152-1.072-1.984h1.44c.054.459.25.816.592 1.072.342.245.806.368 1.392.368.672 0 1.174-.181 1.504-.544.342-.363.512-.875.512-1.536v-1.136c0-.661-.17-1.173-.512-1.536-.33-.363-.826-.544-1.488-.544-.416 0-.778.112-1.088.336-.31.213-.533.501-.672.864h-1.44l.08-6.464h6.144v1.312h-4.752l-.048 3.888h.064c.096-.373.33-.667.704-.88.384-.213.864-.32 1.44-.32.95-.011 1.686.283 2.208.88.534.587.8 1.408.8 2.464v1.136c0 1.035-.304 1.856-.912 2.464-.608.597-1.461.896-2.56.896zm9.45 0c-.704 0-1.323-.139-1.856-.416a3.094 3.094 0 01-1.216-1.184c-.288-.501-.432-1.088-.432-1.76h1.44c0 .651.181 1.163.544 1.536.373.363.885.544 1.536.544.661 0 1.173-.192 1.536-.576.363-.384.544-.885.544-1.504v-.8c0-.661-.181-1.173-.544-1.536-.363-.363-.875-.544-1.536-.544h-1.264v-1.248l2.784-3.04h-4.56v-1.312h6.192v1.344l-2.736 2.992c.95.075 1.701.411 2.256 1.008.565.597.848 1.376.848 2.336v.8c0 .672-.15 1.259-.448 1.76a3.068 3.068 0 01-1.232 1.184c-.533.277-1.152.416-1.856.416zm6.442-.16v-11.68h3.024c.757 0 1.408.144 1.952.432.554.288.981.693 1.28 1.216.309.523.464 1.141.464 1.856v4.656c0 .715-.155 1.339-.464 1.872a3.067 3.067 0 01-1.28 1.216c-.544.288-1.195.432-1.952.432h-3.024zm1.44-1.28h1.584c.704 0 1.253-.197 1.648-.592.405-.395.608-.944.608-1.648v-4.656c0-.693-.203-1.237-.608-1.632-.395-.395-.944-.592-1.648-.592h-1.584v9.12zm11.45 1.44c-.95 0-1.728-.245-2.336-.736-.608-.491-.966-1.152-1.072-1.984h1.44c.053.459.25.816.592 1.072.341.245.805.368 1.392.368.672 0 1.173-.181 1.504-.544.341-.363.512-.875.512-1.536v-1.136c0-.661-.171-1.173-.512-1.536-.331-.363-.827-.544-1.488-.544-.416 0-.779.112-1.088.336-.31.213-.534.501-.672.864h-1.44l.08-6.464h6.144v1.312h-4.752l-.048 3.888h.064c.096-.373.33-.667.704-.88.384-.213.864-.32 1.44-.32.949-.011 1.685.283 2.208.88.533.587.8 1.408.8 2.464v1.136c0 1.035-.304 1.856-.912 2.464-.608.597-1.462.896-2.56.896zm9.625 0c-.746 0-1.402-.128-1.968-.384-.565-.267-1.002-.629-1.312-1.088a2.871 2.871 0 01-.464-1.616c0-.661.208-1.275.624-1.84a4.257 4.257 0 011.696-1.344c-.693-.341-1.21-.747-1.552-1.216-.341-.48-.512-.992-.512-1.536 0-.587.15-1.104.448-1.552.31-.448.726-.8 1.248-1.056.523-.256 1.12-.384 1.792-.384.672 0 1.27.128 1.792.384.534.256.95.608 1.248 1.056.299.448.448.965.448 1.552 0 .533-.17 1.04-.512 1.52-.341.469-.858.88-1.552 1.232.704.32 1.264.768 1.68 1.344.427.565.64 1.179.64 1.84 0 .608-.154 1.147-.464 1.616-.309.459-.746.821-1.312 1.088-.554.256-1.21.384-1.968.384zm-.464-6.992l.464.176.4-.16c.502-.192.907-.464 1.216-.816.31-.363.464-.757.464-1.184 0-.523-.192-.944-.576-1.264-.384-.331-.885-.496-1.504-.496-.618 0-1.12.165-1.504.496a1.595 1.595 0 00-.576 1.264c0 .437.15.832.448 1.184.299.352.688.619 1.168.8zm.464 5.712c.704 0 1.27-.181 1.696-.544.427-.373.64-.859.64-1.456 0-.469-.144-.891-.432-1.264-.288-.384-.693-.677-1.216-.88l-.688-.272-.736.288c-.512.203-.906.496-1.184.88a2.044 2.044 0 00-.416 1.248c0 .597.214 1.083.64 1.456.427.363.992.544 1.696.544zm9.418 1.28c-.704 0-1.323-.139-1.856-.416a3.092 3.092 0 01-1.216-1.184c-.288-.501-.432-1.088-.432-1.76h1.44c0 .651.181 1.163.544 1.536.373.363.885.544 1.536.544.661 0 1.173-.192 1.536-.576.363-.384.544-.885.544-1.504v-.8c0-.661-.181-1.173-.544-1.536-.363-.363-.875-.544-1.536-.544h-1.264v-1.248l2.784-3.04h-4.56v-1.312h6.192v1.344l-2.736 2.992c.949.075 1.701.411 2.256 1.008.565.597.848 1.376.848 2.336v.8c0 .672-.149 1.259-.448 1.76a3.07 3.07 0 01-1.232 1.184c-.533.277-1.152.416-1.856.416zm9.77 0c-.747 0-1.403-.128-1.968-.384-.566-.267-1.003-.629-1.312-1.088-.31-.469-.464-1.008-.464-1.616 0-.661.208-1.275.624-1.84.426-.576.992-1.024 1.696-1.344-.694-.341-1.211-.747-1.552-1.216-.342-.48-.512-.992-.512-1.536 0-.587.149-1.104.448-1.552a3.18 3.18 0 011.248-1.056c.522-.256 1.12-.384 1.792-.384.672 0 1.269.128 1.792.384.533.256.949.608 1.248 1.056.298.448.448.965.448 1.552 0 .533-.171 1.04-.512 1.52-.342.469-.859.88-1.552 1.232.704.32 1.264.768 1.68 1.344.426.565.64 1.179.64 1.84 0 .608-.155 1.147-.464 1.616-.31.459-.747.821-1.312 1.088-.555.256-1.211.384-1.968.384zm-.464-6.992l.464.176.4-.16c.501-.192.906-.464 1.216-.816.309-.363.464-.757.464-1.184 0-.523-.192-.944-.576-1.264-.384-.331-.886-.496-1.504-.496-.619 0-1.12.165-1.504.496a1.595 1.595 0 00-.576 1.264c0 .437.149.832.448 1.184.298.352.688.619 1.168.8zm.464 5.712c.704 0 1.269-.181 1.696-.544.426-.373.64-.859.64-1.456 0-.469-.144-.891-.432-1.264-.288-.384-.694-.677-1.216-.88l-.688-.272-.736.288c-.512.203-.907.496-1.184.88a2.037 2.037 0 00-.416 1.248c0 .597.213 1.083.64 1.456.426.363.992.544 1.696.544zm9.594 1.28c-.747 0-1.403-.128-1.968-.384-.566-.267-1.003-.629-1.312-1.088-.31-.469-.465-1.008-.465-1.616 0-.661.209-1.275.625-1.84.426-.576.992-1.024 1.696-1.344-.694-.341-1.211-.747-1.552-1.216-.342-.48-.512-.992-.512-1.536 0-.587.149-1.104.448-1.552a3.18 3.18 0 011.248-1.056c.522-.256 1.12-.384 1.792-.384.672 0 1.269.128 1.792.384.533.256.949.608 1.248 1.056.298.448.448.965.448 1.552 0 .533-.171 1.04-.512 1.52-.342.469-.859.88-1.552 1.232.704.32 1.264.768 1.68 1.344.426.565.64 1.179.64 1.84 0 .608-.155 1.147-.465 1.616-.309.459-.746.821-1.311 1.088-.555.256-1.211.384-1.968.384zm-.464-6.992l.464.176.4-.16c.501-.192.906-.464 1.216-.816.309-.363.464-.757.464-1.184 0-.523-.192-.944-.576-1.264-.384-.331-.886-.496-1.504-.496-.619 0-1.12.165-1.504.496a1.595 1.595 0 00-.576 1.264c0 .437.149.832.448 1.184.298.352.688.619 1.168.8zm.464 5.712c.704 0 1.269-.181 1.696-.544.426-.373.64-.859.64-1.456 0-.469-.144-.891-.432-1.264-.288-.384-.694-.677-1.216-.88l-.688-.272-.736.288c-.512.203-.907.496-1.184.88a2.037 2.037 0 00-.416 1.248c0 .597.213 1.083.64 1.456.426.363.992.544 1.696.544zm6.393 1.12v-11.68h6.72v1.312h-5.296v3.616h4.736v1.28h-4.736v4.16h5.296V116h-6.72zm15.834.16a.752.752 0 01-.576-.24c-.149-.16-.224-.373-.224-.64v-1.12c0-.267.075-.48.224-.64a.752.752 0 01.576-.24c.245 0 .437.08.576.24.149.16.224.373.224.64v1.12c0 .267-.075.48-.224.64-.139.16-.331.24-.576.24zm-6.08 0a.752.752 0 01-.576-.24c-.149-.16-.224-.373-.224-.64v-1.12c0-.267.075-.48.224-.64a.752.752 0 01.576-.24c.245 0 .437.08.576.24.149.16.224.373.224.64v1.12c0 .267-.075.48-.224.64-.139.16-.331.24-.576.24zm3.04 0a.752.752 0 01-.576-.24c-.149-.16-.224-.373-.224-.64v-1.12c0-.267.075-.48.224-.64a.752.752 0 01.576-.24c.245 0 .437.08.576.24.149.16.224.373.224.64v1.12c0 .267-.075.48-.224.64-.139.16-.331.24-.576.24z" fill="#fff"/><path opacity=".4" d="M190.096 114.48v-3.12h-3.056v-1.28h3.056v-3.12h1.408v3.12h3.056v1.28h-3.056v3.12h-1.408zm11.898 1.52v-2.56h-5.28v-2.256l4.256-6.864h1.584l-4.4 7.152v.656h3.84v-2.848h1.44V116h-1.44zm4.794 0v-11.68h6.72v1.312h-5.296v3.616h4.736v1.28h-4.736v4.16h5.296V116h-6.72zm12.073 0v-10.368h-3.2v-1.312h7.84v1.312h-3.2V116h-1.44zm7.002 0v-11.68h1.44v4.992h3.744v-4.992h1.44V116h-1.44v-5.376h-3.744V116h-1.44z" fill="#fff"/><path d="M283.64 116l3.36-5.92-3.184-5.76h1.664l1.808 3.456c.096.181.192.379.288.592.107.203.192.363.256.48.053-.117.128-.277.224-.48.107-.213.208-.411.304-.592l1.84-3.456h1.584l-3.184 5.664 3.36 6.016h-1.648l-2-3.712-.304-.576a19.232 19.232 0 01-.224-.512 6.254 6.254 0 01-.24.496c-.096.203-.192.395-.288.576L285.24 116h-1.6zm10.426 0v-1.424l3.728-4.064c.554-.597.954-1.131 1.2-1.6.256-.469.384-.928.384-1.376 0-.64-.187-1.147-.56-1.52-.374-.384-.88-.576-1.52-.576-.651 0-1.168.197-1.552.592-.374.384-.56.907-.56 1.568h-1.44c.032-1.056.368-1.893 1.008-2.512s1.488-.928 2.544-.928c1.077 0 1.93.304 2.56.912.64.608.96 1.435.96 2.48 0 .555-.166 1.136-.496 1.744-.32.608-.843 1.307-1.568 2.096l-3.04 3.296h5.296V116h-6.944z" fill="#30FF5E"/></g><defs><filter id="filter0_f_3089_84" x="-160.999" y="-53" width="834" height="349" filterUnits="userSpaceOnUse" color-interpolation-filters="sRGB"><feFlood flood-opacity="0" result="BackgroundImageFix"/><feBlend in="SourceGraphic" in2="BackgroundImageFix" result="shape"/><feGaussianBlur stdDeviation="41.5" result="effect1_foregroundBlur_3089_84"/></filter><filter id="filter1_f_3089_84" x="-56.6" y=".4" width="467.2" height="256.2" filterUnits="userSpaceOnUse" color-interpolation-filters="sRGB"><feFlood flood-opacity="0" result="BackgroundImageFix"/><feBlend in="SourceGraphic" in2="BackgroundImageFix" result="shape"/><feGaussianBlur stdDeviation="18.3" result="effect1_foregroundBlur_3089_84"/></filter><filter id="filter2_bd_3089_84" x="-64.5" y="31.5" width="483" height="255" filterUnits="userSpaceOnUse" color-interpolation-filters="sRGB"><feFlood flood-opacity="0" result="BackgroundImageFix"/><feGaussianBlur in="BackgroundImageFix" stdDeviation="5.25"/><feComposite in2="SourceAlpha" operator="in" result="effect1_backgroundBlur_3089_84"/><feColorMatrix in="SourceAlpha" values="0 0 0 0 0 0 0 0 0 0 0 0 0 0 0 0 0 0 127 0" result="hardAlpha"/><feOffset dy="49"/><feGaussianBlur stdDeviation="45.75"/><feComposite in2="hardAlpha" operator="out"/><feColorMatrix values="0 0 0 0 0 0 0 0 0 0 0 0 0 0 0.00784314 0 0 0 1 0"/><feBlend in2="effect1_backgroundBlur_3089_84" result="effect2_dropShadow_3089_84"/><feBlend in="SourceGraphic" in2="effect2_dropShadow_3089_84" result="shape"/></filter><radialGradient id="paint0_radial_3089_84" cx="0" cy="0" r="1" gradientUnits="userSpaceOnUse" gradientTransform="matrix(0 183 -504.859 0 177 37)"><stop offset=".507" stop-color="#000002"/><stop offset="1" stop-color="#393A3E"/></radialGradient><linearGradient id="paint1_linear_3089_84" x1="132.882" y1="151.5" x2="132.882" y2="-83.5" gradientUnits="userSpaceOnUse"><stop stop-color="#161618"/><stop offset="1" stop-color="#161618" stop-opacity="0"/></linearGradient></defs></svg>