<svg width="239" height="22" fill="none" xmlns="http://www.w3.org/2000/svg"><path d="M7.456 21.28c-1.4 0-2.613-.233-3.64-.7-1.027-.467-1.82-1.13-2.38-1.988-.541-.877-.821-1.904-.84-3.08h3.5c0 .84.299 1.503.896 1.988.616.467 1.447.7 2.492.7 1.008 0 1.792-.233 2.352-.7.579-.467.868-1.11.868-1.932 0-.69-.205-1.288-.616-1.792-.392-.523-.961-.877-1.708-1.064l-2.352-.644c-1.605-.41-2.847-1.148-3.724-2.212-.859-1.064-1.288-2.352-1.288-3.864 0-1.157.261-2.165.784-3.024S3.06 1.447 4.012.98c.97-.467 2.11-.7 3.416-.7 1.979 0 3.547.513 4.704 1.54 1.157 1.008 1.745 2.37 1.764 4.088h-3.5c0-.803-.261-1.428-.784-1.876-.523-.467-1.26-.7-2.212-.7-.915 0-1.624.215-2.128.644-.504.43-.756 1.036-.756 1.82 0 .71.187 1.316.56 1.82.392.485.952.83 1.68 1.036l2.436.672c1.624.41 2.865 1.148 3.724 2.212.859 1.045 1.288 2.343 1.288 3.892 0 1.157-.28 2.184-.84 3.08-.56.877-1.344 1.559-2.352 2.044-1.008.485-2.193.728-3.556.728zm9.65-.28V.56h6.803c1.363 0 2.548.261 3.556.784 1.027.523 1.82 1.26 2.38 2.212.56.933.84 2.035.84 3.304 0 1.25-.29 2.352-.868 3.304a5.724 5.724 0 01-2.352 2.212c-1.008.523-2.193.784-3.556.784h-3.304V21h-3.5zm3.5-11.004h3.303c.97 0 1.745-.28 2.324-.84.597-.579.896-1.344.896-2.296 0-.97-.299-1.736-.896-2.296-.579-.56-1.353-.84-2.324-.84h-3.304v6.272zM31.877 21L37.03.56h4.508L46.718 21h-3.584l-1.12-4.956h-5.432L35.462 21h-3.584zm5.348-7.812h4.144L40.138 7.7a138.22 138.22 0 01-.532-2.464 57.948 57.948 0 01-.308-1.624 59.34 59.34 0 01-.308 1.624 37.3 37.3 0 01-.532 2.436l-1.232 5.516zM55.36 21.28c-1.306 0-2.455-.243-3.444-.728-.97-.504-1.727-1.204-2.268-2.1-.523-.915-.784-1.988-.784-3.22V6.328c0-1.25.261-2.324.784-3.22a5.417 5.417 0 012.268-2.072C52.905.532 54.053.28 55.36.28c1.325 0 2.464.252 3.416.756a5.417 5.417 0 012.268 2.072c.541.896.812 1.97.812 3.22h-3.528c0-.97-.261-1.708-.784-2.212-.504-.504-1.232-.756-2.184-.756-.952 0-1.69.252-2.212.756-.523.504-.784 1.232-.784 2.184v8.932c0 .952.261 1.69.784 2.212.523.504 1.26.756 2.212.756.952 0 1.68-.252 2.184-.756.523-.523.784-1.26.784-2.212h3.528c0 1.213-.27 2.277-.812 3.192a5.545 5.545 0 01-2.268 2.128c-.952.485-2.09.728-3.416.728zm9.9-.28V.56h12.264v3.052h-8.82v5.32h7.84v3.024h-7.84v5.992h8.82V21H65.26zm14.27 0l5.655-10.472L79.865.56h3.92l2.576 5.124c.187.373.355.737.504 1.092.15.336.262.597.336.784.056-.187.159-.448.308-.784.15-.355.318-.719.504-1.092L90.617.56h3.808l-5.32 9.884L94.761 21h-3.92l-2.884-5.656a56.75 56.75 0 01-.532-1.092 20.59 20.59 0 01-.336-.84c-.074.205-.186.485-.336.84-.149.355-.317.719-.504 1.092L83.337 21H79.53zm39.625.28c-1.306 0-2.454-.243-3.444-.728-.97-.504-1.726-1.204-2.268-2.1-.522-.915-.784-1.988-.784-3.22V6.328c0-1.25.262-2.324.784-3.22a5.425 5.425 0 012.268-2.072c.99-.504 2.138-.756 3.444-.756 1.326 0 2.464.252 3.416.756a5.413 5.413 0 012.268 2.072c.542.896.812 1.97.812 3.22h-3.528c0-.97-.261-1.708-.784-2.212-.504-.504-1.232-.756-2.184-.756-.952 0-1.689.252-2.212.756-.522.504-.784 1.232-.784 2.184v8.932c0 .952.262 1.69.784 2.212.523.523 1.26.784 2.212.784.952 0 1.68-.261 2.184-.784.523-.523.784-1.26.784-2.212V13.16h-3.472v-3.024h7v5.096c0 1.232-.27 2.305-.812 3.22-.541.896-1.297 1.596-2.268 2.1-.952.485-2.09.728-3.416.728zm9.957-.28v-3.08h4.116V3.64h-4.116V.56h11.761v3.08h-4.117v14.28h4.117V21h-11.761zm19.562 0L143.522.56h3.64l3.08 13.328c.168.653.326 1.353.476 2.1.149.747.261 1.353.336 1.82.074-.467.177-1.073.308-1.82.13-.747.27-1.456.42-2.128l3.052-13.3h3.528L153.21 21h-4.536zm12.281 0V.56h12.264v3.052h-8.82v5.32h7.84v3.024h-7.84v5.992h8.82V21h-12.264zm14.465 0L180.572.56h4.508L190.26 21h-3.584l-1.12-4.956h-5.432L179.004 21h-3.584zm5.348-7.812h4.144L183.68 7.7c-.206-.915-.383-1.736-.532-2.464a55.43 55.43 0 01-.308-1.624 59.34 59.34 0 01-.308 1.624c-.131.728-.308 1.54-.532 2.436l-1.232 5.516zM192.937 21l-2.1-20.44h3.024l1.232 14.28c.037.317.065.71.084 1.176.037.448.065.905.084 1.372.037.467.056.877.056 1.232.037-.355.074-.765.112-1.232.037-.467.074-.924.112-1.372l.14-1.176 1.68-14.28h2.94l1.568 14.28c.056.317.102.71.14 1.176.056.448.112.905.168 1.372.056.467.102.877.14 1.232.018-.355.037-.765.056-1.232.018-.467.037-.924.056-1.372.037-.467.074-.859.112-1.176L203.745.56h2.996L204.529 21h-3.864l-1.512-14.336a97.36 97.36 0 00-.14-1.232l-.112-1.428a51.459 51.459 0 01-.084-1.232c-.019.336-.056.747-.112 1.232-.038.467-.075.943-.112 1.428-.038.467-.075.877-.112 1.232L196.829 21h-3.892zm14.381 0L212.47.56h4.508l5.18 20.44h-3.584l-1.12-4.956h-5.432L210.902 21h-3.584zm5.348-7.812h4.144L215.578 7.7c-.206-.915-.383-1.736-.532-2.464a55.43 55.43 0 01-.308-1.624 59.34 59.34 0 01-.308 1.624c-.131.728-.308 1.54-.532 2.436l-1.232 5.516zM228.923 21v-7.42L222.931.56h3.668l3.192 7.084c.243.56.448 1.11.616 1.652.168.541.28.961.336 1.26.075-.299.187-.719.336-1.26a16.26 16.26 0 01.616-1.652L234.803.56h3.64l-5.992 13.02V21h-3.528z" fill="#fff"/></svg>