<svg width="56" height="56" fill="none" xmlns="http://www.w3.org/2000/svg"><g clip-path="url(#clip0_974_5348)"><rect width="56" height="56" rx="28" fill="#fff"/><path d="M28 0A27.996 27.996 0 008.203 8.2 28.008 28.008 0 000 28c0 7.423 2.953 14.55 8.203 19.8a27.996 27.996 0 0039.594 0A28.009 28.009 0 0056 28c0-7.423-2.953-14.55-8.203-19.8A27.996 27.996 0 0028 0z" fill="#fff"/><path d="M12.674 27.704c8.164-3.556 13.607-5.9 16.328-7.033 7.779-3.234 9.393-3.796 10.447-3.815.232-.004.748.053 1.085.326.28.23.36.54.398.758.035.218.084.715.044 1.102-.42 4.428-2.244 15.172-3.172 20.131-.389 2.098-1.163 2.802-1.912 2.87-1.627.15-2.86-1.074-4.436-2.106-2.463-1.616-3.854-2.621-6.247-4.197-2.765-1.822-.971-2.824.604-4.46.41-.428 7.577-6.945 7.713-7.536.017-.074.035-.35-.132-.495-.161-.145-.402-.095-.577-.056-.25.056-4.183 2.658-11.813 7.806-1.115.768-2.126 1.142-3.036 1.122-.997-.022-2.922-.565-4.353-1.03-1.75-.57-3.146-.872-3.023-1.84.061-.504.757-1.02 2.082-1.547z" fill="#2BABEE"/></g><defs><clipPath id="clip0_974_5348"><rect width="56" height="56" rx="28" fill="#fff"/></clipPath></defs></svg>