<svg width="124" height="21" fill="none" xmlns="http://www.w3.org/2000/svg"><path d="M.285 3.256V.4h15.316v2.856H9.553V20h-3.22V3.256H.285zm22.43 2.408h.672v2.828h-1.344c-2.688 0-3.556 2.1-3.556 4.312V20h-3.024V5.664h2.688l.336 2.156c.728-1.204 1.876-2.156 4.228-2.156zM37.08 17.368h.616V20H36.1c-1.96 0-2.632-.868-2.632-2.296-.952 1.456-2.408 2.464-4.732 2.464-3.136 0-5.32-1.54-5.32-4.2 0-2.94 2.128-4.592 6.132-4.592h3.612v-.868c0-1.596-1.148-2.576-3.136-2.576-1.792 0-2.996.84-3.22 2.1h-2.968c.308-2.8 2.716-4.536 6.328-4.536 3.808 0 5.992 1.82 5.992 5.208v5.74c0 .728.308.924.924.924zm-3.92-3.248v-.504h-3.752c-1.876 0-2.912.7-2.912 2.156 0 1.204 1.008 2.044 2.66 2.044 2.52 0 3.976-1.484 4.004-3.696zm6.883-10.472c-1.036 0-1.848-.756-1.848-1.82s.812-1.82 1.848-1.82 1.848.756 1.848 1.82-.812 1.82-1.848 1.82zM38.502 20V5.664h3.024V20h-3.024zM51.21 5.496c3.164 0 5.768 1.736 5.768 6.524V20h-3.052v-7.728c0-2.716-1.148-4.172-3.416-4.172-2.408 0-3.836 1.764-3.836 4.676V20H43.65V5.664h2.632l.336 1.876c.896-1.12 2.268-2.044 4.592-2.044zM59.196 20V.4h4.172l6.272 15.428L75.8.4h4.088V20H76.78V5.58L70.9 20h-2.716l-5.88-14.42V20h-3.108zm29.938.168c-4.508 0-7.337-2.912-7.337-7.308 0-4.424 2.829-7.364 7.056-7.364 4.145 0 6.916 2.632 7 6.832 0 .364-.027.756-.084 1.148H84.962v.196c.085 2.436 1.624 4.032 4.005 4.032 1.848 0 3.192-.924 3.612-2.52H95.6c-.504 2.828-2.912 4.984-6.468 4.984zm-4.06-8.904h7.644c-.252-2.128-1.737-3.332-3.837-3.332-1.931 0-3.584 1.288-3.808 3.332zm27.314-9.926L117.583 20h-5.441l-1.107-4.047h-5.62L104.226 20h-2.119l5.523-18.662h4.758zm-6.439 12.742h4.58l-2.201-8.271-2.379 8.271zm17.699-12.742V20h-5.414V1.338h5.414z" fill="#fff"/></svg>