<svg width="256" height="257" fill="none" xmlns="http://www.w3.org/2000/svg"><rect y=".5" width="256" height="256" rx="51.2" fill="#EFEFEA"/><path d="M165.704 75.719c0-1.003 0-1.505-.195-1.888a1.793 1.793 0 00-.783-.782c-.383-.196-.885-.196-1.888-.196h-30.984c-1.003 0-1.504 0-1.887.196a1.793 1.793 0 00-.783.782c-.195.383-.195.885-.195 1.888v22.737c0 3.546 0 5.32-.629 6.105-.573.715-1.332 1.078-2.249 1.074-1.005-.004-2.453-1.172-5.347-3.509-17.135-13.83-38.757-22.328-62.34-22.967-.975-.026-1.463-.04-1.857.152a1.82 1.82 0 00-.806.785c-.202.388-.202.889-.202 1.89v37.245c0 1.003 0 1.505.184 1.879.167.34.411.595.742.778.365.201.89.225 1.939.274a60.584 60.584 0 0131.55 10.582c2.43 1.667 3.644 2.501 3.88 3.624.19.899-.161 2.029-.826 2.662-.83.793-2.428.793-5.623.793H58.603c-1.003 0-1.504 0-1.887.195a1.793 1.793 0 00-.783.783c-.195.383-.195.884-.195 1.887v37.245c0 1.003 0 1.504.195 1.887.172.337.446.611.783.783.383.195.884.195 1.887.195h37.253c1.003 0 1.504 0 1.887-.195.337-.172.611-.446.783-.783.195-.383.195-.884.195-1.887v-28.796c0-3.195 0-4.792.793-5.623.634-.664 1.764-1.014 2.662-.825 1.124.236 1.958 1.45 3.625 3.88a60.546 60.546 0 0110.585 31.543c.048 1.049.073 1.573.274 1.938.182.332.438.576.778.743.374.184.875.184 1.879.184h37.253c1.001 0 1.502 0 1.89-.202.336-.174.62-.466.785-.806.191-.394.178-.882.152-1.857-.639-23.579-9.138-45.196-22.972-62.327-2.336-2.894-3.505-4.341-3.509-5.347-.004-.917.359-1.675 1.075-2.248.785-.629 2.558-.629 6.106-.629h13.966c4.012 0 6.018 0 7.55.781a7.164 7.164 0 013.131 3.13c.781 1.532.781 3.538.781 7.549v58.912c0 1.003 0 1.504.195 1.887.172.337.446.611.783.783.383.195.884.195 1.887.195h30.984c1.003 0 1.505 0 1.888-.195.337-.172.611-.446.783-.783.195-.383.195-.884.195-1.887v-67.686c0-1.003 0-1.504-.195-1.887a1.795 1.795 0 00-.783-.783c-.383-.195-.885-.195-1.888-.195h-22.208c-4.012 0-6.018 0-7.551-.78a7.164 7.164 0 01-3.13-3.131c-.781-1.532-.781-3.537-.781-7.549V75.72z" fill="#060907"/></svg>