<svg width="481" height="436" viewBox="0 0 481 436" fill="none" xmlns="http://www.w3.org/2000/svg">
<g clip-path="url(#clip0_1359_1753)">
<path d="M0.119137 -2.42121L-4.30391 -2.44964L-2.4268 1.55543L61.5154 137.985L11.662 242.204L9.75024 246.201H14.1806H60.75L-0.586957 433.13L-1.80801 436.851L2.108 436.792L652.052 426.958L655.609 426.904L654.711 423.462L583.832 151.684L639.284 204.259L643.841 201.315L607.581 97.086L658.378 5.94432L660.674 1.82364L655.957 1.79333L0.119137 -2.42121Z" fill="#ECFF3B" stroke="#10150B" stroke-width="5.58376"/>
<path d="M148.959 414.584H176.316V368.011L203.051 414.584V368.011H342.322V404.881L358.176 368.011L375.585 404.881H447.707V375.288L466.671 404.881V358.308L509.882 375.288L503.664 306.884L538.171 290.874L524.182 337.447H578.274L538.171 189.132L433.731 165.409" stroke="#10150B" stroke-width="4.31472"/>
<path d="M406.075 120.333L371.013 147.431L383.863 182.403L427.134 172.13L454.349 146.26L444.861 111.493L406.075 120.333Z" fill="#CEC9BD"/>
<path d="M427.707 173.191L427.405 173.27L383.133 183.787L369.631 147.045L405.568 119.268L445.688 110.126L455.635 146.641L427.707 173.191ZM384.599 181.035L426.562 171.073L453.045 145.897L444.033 112.874L406.585 121.411L372.399 147.83L384.599 181.035Z" fill="#010101"/>
<path d="M426.026 172.491L414.615 137.329L371.305 148.557L370.721 146.307L416.151 134.53L428.241 171.772L426.026 172.491Z" fill="#010101"/>
<path d="M415.38 135.928L444.86 111.492L454.349 146.259L427.133 172.13L415.38 135.928Z" fill="#010101"/>
<path d="M444.114 110.609L414.638 135.041L416.121 136.831L445.597 112.399L444.114 110.609Z" fill="#010101"/>
<path d="M419.228 169.367L403.16 173.532L400.813 166.295L416.877 162.13L419.228 169.367Z" fill="#ECFF3B"/>
<path d="M420.711 170.179L402.411 174.923L399.342 165.476L417.661 160.727L420.711 170.179ZM403.929 172.129L417.739 168.549L416.111 163.53L402.306 167.109L403.929 172.129Z" fill="#010101"/>
<path d="M402.167 71.1429C404.998 79.0963 397.353 103.178 397.353 103.178C397.353 103.178 376.21 89.3448 373.363 81.4006C372.689 79.5101 372.395 77.5055 372.496 75.5013C372.598 73.497 373.093 71.5324 373.954 69.7196C374.814 67.9067 376.023 66.2811 377.512 64.9356C379.001 63.5902 380.741 62.5511 382.631 61.8778C384.522 61.2045 386.526 60.9101 388.53 61.0116C390.535 61.1129 392.499 61.6081 394.312 62.4688C396.125 63.3294 397.751 64.5387 399.096 66.0276C400.442 67.5166 401.481 69.2559 402.154 71.1463L402.167 71.1429Z" fill="#ECFF3B"/>
<path d="M398.001 104.989L396.717 104.15C395.844 103.579 375.218 90.0343 372.282 81.7864C371.534 79.7469 371.196 77.5792 371.29 75.4085C371.384 73.2379 371.908 71.1075 372.83 69.1403C373.752 67.1731 375.055 65.4083 376.664 63.9476C378.272 62.4871 380.154 61.3597 382.201 60.6308C384.247 59.9018 386.418 59.5858 388.588 59.701C390.758 59.816 392.883 60.3599 394.841 61.3013C396.799 62.2427 398.551 63.5628 399.996 65.1853C401.441 66.8079 402.55 68.7007 403.259 70.7545C406.188 78.9799 398.776 102.531 398.459 103.53L398.001 104.989ZM384.259 62.6133C383.849 62.7195 383.44 62.8256 383.04 62.987C379.519 64.244 376.639 66.8456 375.033 70.2218C373.426 73.5979 373.224 77.4732 374.47 80.9984C376.746 87.3906 392.109 98.2085 396.697 101.331C398.283 96.0171 403.35 77.9244 401.06 71.5357C399.874 68.2233 397.494 65.4728 394.386 63.8226C391.279 62.1723 387.668 61.7411 384.259 62.6133Z" fill="#010101"/>
<path d="M389.147 81.7279C392.386 80.8884 394.33 77.5828 393.491 74.3446C392.651 71.1065 389.345 69.162 386.107 70.0015C382.869 70.841 380.925 74.1465 381.764 77.3846C382.604 80.6228 385.909 82.5674 389.147 81.7279Z" fill="#CEC9BD"/>
<path d="M389.43 82.8545C387.604 83.3245 385.666 83.0611 384.032 82.1207C382.398 81.1802 381.197 79.6374 380.686 77.8225C380.175 76.0077 380.395 74.0649 381.299 72.4101C382.203 70.7554 383.718 69.52 385.521 68.9687C387.324 68.4172 389.271 68.5935 390.946 69.4598C392.62 70.3261 393.889 71.8134 394.481 73.6037C395.073 75.3938 394.94 77.3445 394.112 79.038C393.283 80.7316 391.825 82.0337 390.048 82.6653C389.846 82.737 389.637 82.8008 389.43 82.8545ZM386.389 71.128C386.25 71.1641 386.106 71.2015 385.94 71.2446C384.748 71.6163 383.748 72.4393 383.155 73.5378C382.562 74.6362 382.421 75.9231 382.764 77.1237C383.106 78.3243 383.905 79.3433 384.988 79.9632C386.072 80.5832 387.355 80.7548 388.564 80.4415C389.772 80.1282 390.811 79.3547 391.457 78.2864C392.103 77.218 392.305 75.9395 392.022 74.7237C391.738 73.5078 390.99 72.4512 389.938 71.7794C388.885 71.1076 387.612 70.8738 386.389 71.128Z" fill="#010101"/>
<path d="M371.615 148.269L369.624 147.071L396.768 101.899L445.783 110.159L445.398 112.449L397.945 104.456L371.615 148.269Z" fill="#010101"/>
<path d="M398.378 102.628L396.331 103.73L413.848 136.297L415.895 135.196L398.378 102.628Z" fill="#010101"/>
<path d="M376.899 82.2902C375.354 79.6632 374.801 76.5698 375.339 73.5702C376.401 68.1085 380.176 66.2943 380.339 66.2185L381.318 68.3274L380.829 67.273L381.326 68.3206C381.211 68.379 378.449 69.7628 377.62 74.0116C377.201 76.4296 377.639 78.918 378.858 81.0476L376.899 82.2902Z" fill="#CEC9BD"/>
<path d="M138.624 267.833H307.975L344.119 277.518V433.331H138.624V267.833Z" fill="#12190C"/>
<path d="M346.825 436.038H135.918V265.128H308.332L346.825 275.441V436.038ZM141.33 430.627H341.415V279.597L307.617 270.539H141.33V430.627Z" fill="#12190C"/>
<path d="M252.588 398.258H138.624V433.331H252.588V398.258Z" fill="#ECFF3B"/>
<path d="M255.294 436.038H135.918V395.553H255.294V436.038ZM141.33 430.626H249.884V400.964H141.33V430.626Z" fill="#12190C"/>
<path d="M304.67 307.99H252.584V433.338H304.67V307.99Z" fill="#ECFF3B"/>
<path d="M307.377 436.038H249.881V305.277H307.377V436.038ZM255.292 430.627H301.968V310.688H255.292V430.627Z" fill="#12190C"/>
<path d="M267.688 352.625H262.278V382.386H267.688V352.625Z" fill="#12190C"/>
<path d="M252.588 294.021H138.624V398.257H252.588V294.021Z" fill="#CEC9BD"/>
<path d="M255.294 400.965H135.918V291.317H255.294V400.965ZM141.33 395.553H249.884V296.728H141.33V395.553Z" fill="#12190C"/>
<path d="M176.337 339.71L160.958 354.097L164.654 358.048L180.034 343.662L176.337 339.71Z" fill="#12190C"/>
<path d="M176.337 355.792L160.958 370.178L164.654 374.13L180.034 359.743L176.337 355.792Z" fill="#12190C"/>
<path d="M100.767 297.907L136.609 267.833H304.672L252.587 315.925C252.587 315.925 249.805 297.03 233.8 295.494C219.645 294.141 210.695 310.958 210.695 310.958C210.695 310.958 204.256 295.418 191.4 295.418C178.175 295.418 169.68 307.982 169.68 307.982C169.68 307.982 162.798 295.418 149.119 295.418C138.567 295.418 128.611 307.213 128.611 307.213C128.611 307.213 120.333 298.145 112.314 295.851C109.5 295.039 100.767 297.907 100.767 297.907Z" fill="#CEC9BD"/>
<path d="M131.371 315.929H125.96C126.019 313.555 125.602 311.194 124.734 308.983C123.866 306.773 122.564 304.758 120.906 303.059C119.247 301.359 117.266 300.008 115.077 299.086C112.889 298.164 110.538 297.689 108.164 297.689C105.789 297.689 103.438 298.164 101.25 299.086C99.0616 300.008 97.08 301.359 95.4215 303.059C93.7632 304.758 92.4618 306.773 91.5938 308.983C90.7256 311.194 90.3087 313.555 90.3671 315.929H84.9562C84.8895 312.839 85.4404 309.767 86.5768 306.893C87.713 304.019 89.4119 301.401 91.5735 299.192C93.735 296.984 96.316 295.228 99.165 294.03C102.014 292.832 105.073 292.215 108.164 292.215C111.254 292.215 114.314 292.832 117.163 294.03C120.011 295.228 122.592 296.984 124.754 299.192C126.916 301.401 128.614 304.019 129.751 306.893C130.887 309.767 131.438 312.839 131.371 315.929Z" fill="#12190C"/>
<path d="M172.383 315.931H166.973C166.973 311.209 165.097 306.681 161.758 303.343C158.42 300.004 153.892 298.129 149.17 298.129C144.449 298.129 139.921 300.004 136.583 303.343C133.244 306.681 131.369 311.209 131.369 315.931H125.958C125.958 309.774 128.403 303.87 132.756 299.517C137.11 295.163 143.014 292.718 149.17 292.718C155.327 292.718 161.231 295.163 165.584 299.517C169.938 303.87 172.383 309.774 172.383 315.931Z" fill="#12190C"/>
<path d="M213.384 315.931H207.973C207.973 311.209 206.097 306.681 202.759 303.343C199.42 300.004 194.892 298.129 190.171 298.129C185.449 298.129 180.921 300.004 177.583 303.343C174.244 306.681 172.369 311.209 172.369 315.931H166.958C166.958 309.774 169.403 303.87 173.757 299.517C178.11 295.163 184.014 292.718 190.171 292.718C196.327 292.718 202.231 295.163 206.585 299.517C210.938 303.87 213.384 309.774 213.384 315.931Z" fill="#12190C"/>
<path d="M255.29 315.931H249.879C249.879 311.209 248.003 306.681 244.665 303.343C241.326 300.004 236.798 298.129 232.077 298.129C227.356 298.129 222.828 300.004 219.489 303.343C216.151 306.681 214.275 311.209 214.275 315.931H208.864C208.864 309.774 211.31 303.87 215.663 299.517C220.016 295.163 225.921 292.718 232.077 292.718C238.233 292.718 244.138 295.163 248.491 299.517C252.844 303.87 255.29 309.774 255.29 315.931Z" fill="#12190C"/>
<path d="M302.832 265.856L250.747 313.952L254.418 317.927L306.502 269.832L302.832 265.856Z" fill="#12190C"/>
<path d="M96.3465 302.615L93.024 298.34L135.673 265.128H304.667V270.539H137.534L96.3465 302.615Z" fill="#12190C"/>
<path d="M171.532 265.808L133.384 298.923L136.931 303.009L175.079 269.894L171.532 265.808Z" fill="#12190C"/>
<path d="M208.823 265.897L173.672 299.617L177.418 303.522L212.569 269.802L208.823 265.897Z" fill="#12190C"/>
<path d="M255.832 265.76L216.194 298.996L219.67 303.142L259.308 269.906L255.832 265.76Z" fill="#12190C"/>
<path d="M307.033 223.467V267.198H138.624V223.467H181.359C181.952 212.869 186.58 202.902 194.292 195.609C202.004 188.317 212.215 184.254 222.828 184.254C233.442 184.254 243.653 188.317 251.365 195.609C259.077 202.902 263.705 212.869 264.298 223.467H307.033Z" fill="#ECFF3B"/>
<path d="M309.707 269.909H135.918V220.767H178.87C180.094 209.966 185.253 199.993 193.361 192.752C201.468 185.511 211.958 181.509 222.829 181.509C233.699 181.509 244.189 185.511 252.297 192.752C260.405 199.993 265.563 209.966 266.787 220.767H309.707V269.909ZM141.297 264.498H304.295V226.178H261.723L261.593 223.613C261.068 213.687 256.755 204.339 249.543 197.498C242.331 190.658 232.769 186.844 222.829 186.844C212.888 186.844 203.327 190.658 196.115 197.498C188.903 204.339 184.59 213.687 184.065 223.613L183.924 226.178H141.33L141.297 264.498Z" fill="#12190C"/>
<path d="M241.957 203.365L197.075 249.293L200.945 253.075L245.827 207.147L241.957 203.365Z" fill="#12190C"/>
<path d="M208.251 221.918C205.702 221.915 203.235 221.016 201.281 219.379C199.327 217.741 198.011 215.47 197.561 212.96C197.111 210.451 197.558 207.864 198.822 205.65C200.086 203.436 202.087 201.737 204.477 200.848C206.866 199.96 209.492 199.939 211.895 200.79C214.298 201.64 216.326 203.308 217.625 205.501C218.924 207.695 219.411 210.275 219.001 212.791C218.591 215.307 217.311 217.599 215.383 219.267C213.402 220.98 210.87 221.921 208.251 221.918ZM208.251 205.556C207.368 205.558 206.499 205.774 205.718 206.185C204.936 206.596 204.265 207.189 203.763 207.915C203.26 208.642 202.941 209.478 202.832 210.354C202.723 211.231 202.827 212.12 203.136 212.947C203.445 213.774 203.949 214.515 204.606 215.105C205.263 215.695 206.052 216.117 206.908 216.336C207.763 216.555 208.659 216.564 209.518 216.362C210.378 216.16 211.176 215.753 211.844 215.176C212.691 214.446 213.293 213.473 213.57 212.39C213.848 211.306 213.787 210.164 213.395 209.116C213.004 208.068 212.302 207.165 211.382 206.529C210.462 205.892 209.37 205.553 208.251 205.556Z" fill="#12190C"/>
<path d="M235.95 253.883C233.395 253.887 230.919 252.993 228.956 251.357C226.993 249.721 225.668 247.447 225.211 244.933C224.755 242.419 225.196 239.824 226.459 237.602C227.721 235.381 229.724 233.673 232.118 232.778C234.511 231.883 237.143 231.858 239.553 232.707C241.963 233.555 243.999 235.224 245.303 237.421C246.608 239.618 247.099 242.204 246.691 244.726C246.283 247.249 245.002 249.548 243.071 251.221C241.093 252.934 238.566 253.879 235.95 253.883ZM235.95 237.521C235.066 237.521 234.195 237.736 233.411 238.146C232.628 238.556 231.956 239.149 231.452 239.876C230.948 240.603 230.628 241.44 230.518 242.318C230.408 243.195 230.513 244.086 230.822 244.914C231.132 245.742 231.638 246.483 232.296 247.074C232.954 247.664 233.746 248.086 234.603 248.304C235.46 248.521 236.357 248.529 237.217 248.324C238.077 248.12 238.875 247.71 239.543 247.131C240.385 246.399 240.984 245.427 241.259 244.346C241.534 243.264 241.471 242.124 241.081 241.079C240.69 240.034 239.989 239.133 239.072 238.497C238.155 237.861 237.066 237.52 235.95 237.521Z" fill="#12190C"/>
<path d="M151.882 230.833H146.471V251.719H151.882V230.833Z" fill="#CEC9BD"/>
</g>
<defs>
<clipPath id="clip0_1359_1753">
<rect width="481" height="436" fill="white"/>
</clipPath>
</defs>
</svg>
