<svg width="210" height="103" viewBox="0 0 210 103" fill="none" xmlns="http://www.w3.org/2000/svg">
<path d="M10.5421 47C10.7661 37.48 10.8781 30.3867 10.8781 25.72C10.8781 22.9573 10.8034 18.328 10.6541 11.832C10.5794 7.87467 10.5421 5.35467 10.5421 4.272H41.8461V10.544H19.0541V24.208L40.3341 23.984V29.304L19.0541 29.08C19.0541 34.68 19.0914 40.6533 19.1661 47H10.5421ZM50.243 7.632C48.339 7.632 46.995 7.352 46.211 6.792C45.427 6.19466 45.035 5.28 45.035 4.048C45.035 2.816 45.427 1.90133 46.211 1.304C46.995 0.706665 48.339 0.407999 50.243 0.407999C52.147 0.407999 53.491 0.706665 54.275 1.304C55.059 1.90133 55.451 2.816 55.451 4.048C55.451 5.28 55.059 6.19466 54.275 6.792C53.491 7.352 52.147 7.632 50.243 7.632ZM45.931 47C46.0803 41.8853 46.155 36.4533 46.155 30.704C46.155 22.7147 46.0803 16.1813 45.931 11.104C46.267 11.1413 46.8457 11.1973 47.667 11.272C48.5257 11.3093 49.3843 11.328 50.243 11.328C51.1017 11.328 51.9417 11.3093 52.763 11.272C53.5843 11.1973 54.163 11.1413 54.499 11.104C54.4243 17.2267 54.387 23.76 54.387 30.704C54.387 35.4453 54.4243 40.8773 54.499 47H45.931ZM81.1064 47.672C77.8958 47.672 75.1891 46.6827 72.9864 44.704C70.7838 42.688 69.3091 40.1493 68.5624 37.088H68.0024L67.6104 47H60.2744C60.3864 37.4053 60.4424 30.1627 60.4424 25.272C60.4424 18.2533 60.3864 11.4213 60.2744 4.776L68.7864 4.048L68.7304 13.232C68.6931 14.4267 68.5811 15.92 68.3944 17.712C68.2451 18.9813 68.1331 20.2693 68.0584 21.576H68.7304C69.8131 18.0667 71.5491 15.36 73.9384 13.456C76.3278 11.552 78.8851 10.6 81.6104 10.6C85.9784 10.6 89.2078 12.2427 91.2984 15.528C93.3891 18.8133 94.4344 23.3493 94.4344 29.136C94.4344 34.8853 93.2958 39.4213 91.0184 42.744C88.7784 46.0293 85.4744 47.672 81.1064 47.672ZM77.9704 41.624C80.1731 41.624 82.0398 40.9707 83.5704 39.664C85.2504 36.752 86.0904 33.28 86.0904 29.248C86.0904 26.112 85.4371 23.2187 84.1304 20.568C82.8611 17.9173 80.6584 16.592 77.5224 16.592C75.6184 16.592 73.9198 17.1893 72.4264 18.384C70.9331 19.5413 69.6824 21.184 68.6744 23.312V30.76C68.6744 32.9627 69.1038 34.8853 69.9624 36.528C70.8584 38.1707 72.0158 39.44 73.4344 40.336C74.8904 41.1947 76.4024 41.624 77.9704 41.624ZM120.135 39.608C121.068 37.7413 121.703 35.6693 122.039 33.392L130.103 33.672C129.431 38.4133 127.77 41.9413 125.119 44.256C122.468 46.5333 118.567 47.672 113.415 47.672C102.215 47.672 96.6149 41.5867 96.6149 29.416C96.6149 23.256 98.0896 18.5893 101.039 15.416C104.026 12.2427 108.412 10.656 114.199 10.656C124.391 10.656 129.786 16.48 130.383 28.128L104.959 30.312C105.108 33.8213 105.967 36.584 107.535 38.6C109.103 40.616 111.306 41.624 114.143 41.624C116.495 41.624 118.492 40.952 120.135 39.608ZM113.583 16.648C112.202 16.648 110.895 16.9093 109.663 17.432C108.468 17.9173 107.442 18.6267 106.583 19.56C105.687 21.8747 105.164 24.5067 105.015 27.456L122.095 26.056C121.684 23.0693 120.751 20.7547 119.295 19.112C117.839 17.4693 115.935 16.648 113.583 16.648ZM154.4 10.824C156.677 10.824 158.525 11.4027 159.944 12.56C161.4 13.68 162.501 15.3973 163.248 17.712C164.032 20.0267 164.592 23.0507 164.928 26.784L156.64 27.792C156.229 24.2453 155.427 21.52 154.232 19.616C153.075 17.6747 151.413 16.704 149.248 16.704C146.635 16.704 144.488 18.552 142.808 22.248V25.216V30.256C142.808 37.76 142.883 43.3413 143.032 47H134.352C134.501 43.2667 134.576 37.3307 134.576 29.192C134.576 21.0533 134.52 15.0987 134.408 11.328H143.032L141.8 21.576L142.36 21.632C143.331 18.16 144.936 15.4907 147.176 13.624C149.416 11.7573 151.824 10.824 154.4 10.824ZM181.503 47.504C178.217 47.504 175.753 46.888 174.111 45.656C172.468 44.3867 171.385 42.632 170.863 40.392C170.34 38.152 170.079 35.128 170.079 31.32V17.32L164.983 17.488V11.272C166.439 11.272 168.1 11.3093 169.967 11.384V3.936C172.505 3.936 175.361 3.84266 178.535 3.656C178.535 7.09066 178.516 9.66666 178.479 11.384C179.935 11.384 182.417 11.3467 185.927 11.272L189.175 11.216C189.063 12.2613 189.007 13.3067 189.007 14.352C189.007 14.9867 188.988 15.472 188.951 15.808L188.895 17.544L178.423 17.32V22.584V33.616C178.423 36.0053 178.665 37.8533 179.151 39.16C179.673 40.4667 180.663 41.12 182.119 41.12C184.396 41.12 186.524 40.84 188.503 40.28L188.447 43.304C188.372 44.9467 188.335 46.048 188.335 46.608C185.871 47.2053 183.593 47.504 181.503 47.504ZM0.213779 102C0.213779 101.104 0.251112 99.4987 0.325778 97.184C0.475112 89.8667 0.549778 84.3787 0.549778 80.72C0.549778 75.4187 0.456445 69.6507 0.269778 63.416L0.213779 59.272H18.4138C22.3338 59.272 25.5258 59.608 27.9898 60.28C30.4911 60.952 32.3764 62.128 33.6458 63.808C34.9151 65.488 35.5498 67.8213 35.5498 70.808C35.5498 74.7653 34.4671 77.6773 32.3018 79.544C30.1738 81.3733 27.0191 82.3253 22.8378 82.4V83.128C26.4964 83.2773 29.2218 84.0427 31.0138 85.424C32.8058 86.8053 34.0751 89.0453 34.8218 92.144C35.0458 93.2267 35.4564 94.8693 36.0538 97.072C36.6884 99.2747 37.1924 100.917 37.5658 102H28.4938L27.8218 99.312C26.9631 95.84 26.4404 93.5067 26.2538 92.312C25.7311 90.5947 25.1338 89.2507 24.4618 88.28C23.8271 87.272 22.9684 86.544 21.8858 86.096C20.8031 85.6107 19.3844 85.368 17.6298 85.368H8.72578V102H0.213779ZM17.0698 80.44C20.5418 80.44 23.0431 79.824 24.5738 78.592C26.1418 77.3227 26.9258 75.3627 26.9258 72.712C26.9258 69.8373 26.1418 67.8587 24.5738 66.776C23.0431 65.6933 20.5604 65.152 17.1258 65.152H8.66978V80.44H17.0698ZM62.6901 94.608C63.6234 92.7413 64.2581 90.6693 64.5941 88.392L72.6581 88.672C71.9861 93.4133 70.3248 96.9413 67.6741 99.256C65.0234 101.533 61.1221 102.672 55.9701 102.672C44.7701 102.672 39.1701 96.5867 39.1701 84.416C39.1701 78.256 40.6448 73.5893 43.5941 70.416C46.5808 67.2427 50.9674 65.656 56.7541 65.656C66.9461 65.656 72.3408 71.48 72.9381 83.128L47.5141 85.312C47.6634 88.8213 48.5221 91.584 50.0901 93.6C51.6581 95.616 53.8608 96.624 56.6981 96.624C59.0501 96.624 61.0474 95.952 62.6901 94.608ZM56.1381 71.648C54.7568 71.648 53.4501 71.9093 52.2181 72.432C51.0234 72.9173 49.9968 73.6267 49.1381 74.56C48.2421 76.8747 47.7194 79.5067 47.5701 82.456L64.6501 81.056C64.2394 78.0693 63.3061 75.7547 61.8501 74.112C60.3941 72.4693 58.4901 71.648 56.1381 71.648ZM84.8591 67.392C84.8591 67.952 85.0084 68.624 85.3071 69.408H96.6751L96.3391 75.288L86.9871 75.176L86.9311 87.608C86.9311 92.872 87.0058 97.6693 87.1551 102H78.5311C78.6431 98.6773 78.6991 93.9173 78.6991 87.72V75.176L74.1631 75.288V69.408H78.8111C77.8031 68.2133 77.2991 66.608 77.2991 64.592C77.2991 63.024 77.8031 61.6427 78.8111 60.448C79.8564 59.216 81.2938 58.264 83.1231 57.592C84.9524 56.92 87.0431 56.584 89.3951 56.584C90.7018 56.584 92.0458 56.6773 93.4271 56.864C94.8084 57.0133 95.9658 57.2187 96.8991 57.48L96.5071 63.976C95.0884 63.416 93.5951 63.136 92.0271 63.136C89.8991 63.136 88.1631 63.5093 86.8191 64.256C85.5124 65.0027 84.8591 66.048 84.8591 67.392ZM132.595 66.328C132.408 70.0613 132.315 75.9973 132.315 84.136C132.315 92.2747 132.39 98.2293 132.539 102H123.859L124.811 91.808H124.195C123.262 95.056 121.563 97.7067 119.099 99.76C116.672 101.776 113.947 102.784 110.923 102.784C107.04 102.784 104.315 101.589 102.747 99.2C101.179 96.7733 100.339 93.1147 100.227 88.224C100.19 86.88 100.171 85.4053 100.171 83.8C100.171 82.1573 100.152 80.5147 100.115 78.872C100.115 77.3413 100.096 75.1013 100.059 72.152C100.022 69.1653 99.9845 67.224 99.9472 66.328H108.515C108.403 71.0693 108.347 74.7467 108.347 77.36V84.864C108.347 88.336 108.776 91.192 109.635 93.432C110.494 95.6347 112.248 96.736 114.899 96.736C116.728 96.736 118.52 96.0827 120.275 94.776C122.067 93.4693 123.336 91.8827 124.083 90.016V82.456C124.083 75.288 124.008 69.912 123.859 66.328H132.595ZM138.352 102C138.501 98.2667 138.576 92.3307 138.576 84.192C138.576 76.0533 138.52 70.0987 138.408 66.328H147.032L146.136 76.576H146.696C147.666 73.2907 149.384 70.64 151.848 68.624C154.349 66.608 157.13 65.6 160.192 65.6C164.037 65.6 166.725 66.7947 168.256 69.184C169.786 71.5733 170.608 75.232 170.72 80.16C170.757 81.504 170.776 82.9973 170.776 84.64C170.776 86.2453 170.794 87.8693 170.832 89.512C170.832 91.0427 170.85 93.2827 170.888 96.232C170.925 99.1813 170.962 101.104 171 102H162.432L162.544 98.08L162.6 93.04V90.744C162.562 89.6987 162.544 87.272 162.544 83.464C162.544 79.992 162.114 77.1547 161.256 74.952C160.397 72.712 158.661 71.592 156.048 71.592C154.218 71.592 152.408 72.2453 150.616 73.552C148.861 74.8213 147.592 76.408 146.808 78.312V85.928C146.808 93.0587 146.882 98.416 147.032 102H138.352ZM200.39 102C200.912 95.952 201.23 92.536 201.342 91.752L200.726 91.696C199.606 95.0187 197.907 97.688 195.63 99.704C193.39 101.72 190.646 102.728 187.398 102.728C183.328 102.728 180.23 101.141 178.102 97.968C176.011 94.7947 174.966 90.1653 174.966 84.08C174.966 78.3307 176.104 73.832 178.382 70.584C180.696 67.2987 184.094 65.656 188.574 65.656C190.515 65.656 192.344 66.0853 194.062 66.944C195.816 67.7653 197.272 68.96 198.43 70.528C199.624 72.096 200.39 73.9067 200.726 75.96H201.398C201.286 73.6827 201.08 70.9387 200.782 67.728C200.707 64.592 200.67 61.9413 200.67 59.776L209.07 59.048C208.995 63.6027 208.958 71.5547 208.958 82.904C208.958 90.408 209.014 96.7733 209.126 102H200.39ZM191.374 96.68C193.427 96.68 195.275 96.0827 196.918 94.888C198.56 93.6933 199.848 92.0507 200.782 89.96V82.456C200.782 80.4027 200.352 78.5547 199.494 76.912C198.635 75.2693 197.496 73.9813 196.078 73.048C194.696 72.1147 193.203 71.648 191.598 71.648C189.544 71.648 187.622 72.3013 185.83 73.608C184.15 76.52 183.31 79.992 183.31 84.024C183.31 85.8533 183.534 87.7387 183.982 89.68C184.467 91.584 185.307 93.2267 186.502 94.608C187.696 95.9893 189.32 96.68 191.374 96.68Z" fill="white"/>
</svg>
