<svg width="235" height="109" viewBox="0 0 235 109" fill="none" xmlns="http://www.w3.org/2000/svg">
<path d="M16.3683 42V1.25781H43.7667V7.51953H23.587V18.6484H42.3175V24.7734H23.587V42H16.3683ZM53.2977 1.25781V42H46.407V1.25781H53.2977ZM58.645 53.4297V47.8242H62.063C63.9223 47.8242 64.7973 46.8945 65.6177 44.625L66.6841 41.8359L55.5552 13.125H62.8559L68.1606 28.1641C68.8716 30.2969 69.5825 32.4297 70.2387 34.5625C70.895 32.4297 71.5786 30.2969 72.3169 28.1641L77.5942 13.125H84.813L71.9067 46.7578C70.1841 51.2695 67.3403 53.4297 63.1567 53.4297H58.645ZM101.754 42.6562C91.6642 42.6562 85.6212 37.4336 85.6212 28.7109H92.7033C92.758 33.6328 96.1486 36.5586 101.809 36.5586C106.895 36.5586 110.258 34.2617 110.258 30.6797C110.258 27.8086 108.125 26.1406 102.684 24.8828L98.3087 23.8984C90.1603 22.0391 86.4142 18.457 86.4142 12.7422C86.4142 5.46875 92.4025 0.601562 101.399 0.601562C110.504 0.601562 116.164 5.52344 116.41 13.6172H109.547C109.246 9.32422 106.129 6.72656 101.371 6.72656C96.8595 6.72656 93.6603 9.05078 93.6603 12.3867C93.6603 15.1211 95.7658 16.6523 101.07 17.8828L105.199 18.8398C113.649 20.7266 117.449 24.2539 117.449 30.2422C117.449 37.8438 111.406 42.6562 101.754 42.6562ZM127.172 42L118.258 13.125H125.504L128.484 24.0898C129.387 27.5352 130.207 31.2266 131.082 34.8086C131.984 31.2266 132.859 27.5352 133.816 24.0898L136.879 13.125H143.25L146.285 24.0898C147.215 27.5078 148.09 31.1719 148.992 34.7539C149.812 31.1719 150.66 27.5078 151.562 24.0898L154.543 13.125H161.871L152.93 42H145.765L142.265 29.9688C141.5 27.2891 140.789 24.4727 140.051 21.6562C139.34 24.4727 138.629 27.2891 137.836 29.9688L134.281 42H127.172ZM172.085 42.4648C166.343 42.4648 162.105 39.5664 162.105 33.7969C162.105 27.2344 167.492 25.6211 173.453 24.9922C178.812 24.3906 180.644 24.3086 180.644 22.3398V22.1211C180.644 19.6602 178.675 17.9102 175.367 17.9102C172.003 17.9102 169.761 19.6602 169.57 22.0938H162.925C163.253 16.3516 167.957 12.5508 175.503 12.5508C183.023 12.5508 187.48 16.2969 187.48 22.3125V42H180.699V37.9258H180.589C179.222 40.4961 176.789 42.4648 172.085 42.4648ZM173.781 37.3516C178.293 37.3516 180.671 34.6719 180.671 31.3086V28.1914C179.824 28.7383 177.144 29.1758 174.3 29.6133C171.347 30.0508 168.832 31.1172 168.832 33.7422C168.832 36.0117 170.773 37.3516 173.781 37.3516ZM191.898 53.4297V13.125H198.679V17.1445H198.761C200.566 14.082 203.765 12.5508 207.511 12.5508C214.948 12.5508 219.98 18.6484 219.98 27.5352C219.98 36.5312 215.03 42.5742 207.484 42.5742C203.71 42.5742 200.675 40.9336 198.87 37.6523H198.788V53.4297H191.898ZM205.87 36.8047C210.136 36.8047 213.007 33.5234 213.007 27.5352C213.007 21.5742 210.136 18.2656 205.87 18.2656C201.359 18.2656 198.405 21.9297 198.405 27.5352C198.405 33.168 201.359 36.8047 205.87 36.8047ZM0.399529 97V56.2578H28.7003V62.5195H7.61828V73.2383H27.1144V79.3906H7.61828V90.7383H28.7003V97H0.399529ZM29.3445 97L39.8172 82.2891L30.0281 68.125H37.7117L40.7195 72.7188C41.7586 74.4141 42.743 76 43.7273 77.6133C44.7117 76 45.6961 74.4141 46.7625 72.7188L49.825 68.125H57.3992L47.5281 82.1523L57.8641 97H50.1531L46.7078 91.8594C45.6414 90.1641 44.657 88.5508 43.6453 86.9648C42.6336 88.5508 41.6219 90.1641 40.5281 91.8594L37.0281 97H29.3445ZM71.3325 97.6562C62.8833 97.6562 57.2231 91.5039 57.2231 82.5898C57.2231 73.6758 62.8833 67.4688 71.3325 67.4688C78.5786 67.4688 83.8286 72.0352 84.4302 78.4609H77.6762C77.1567 75.3711 74.9966 73.2109 71.4145 73.2109C66.9028 73.2109 64.1958 76.875 64.1958 82.5898C64.1958 88.2773 66.8755 91.9141 71.4145 91.9141C75.0239 91.9141 76.9653 89.8359 77.6216 86.6367H84.4302C83.938 92.9531 78.6333 97.6562 71.3325 97.6562ZM94.2892 80.6758V97H87.3986V56.2578H94.2892V72.3633C96.258 69.2188 99.1564 67.5508 103.039 67.5508C109.082 67.5508 113.348 71.543 113.348 78.9531V97H106.43V80.0469C106.43 75.8086 104.297 73.5938 100.606 73.5938C96.9962 73.5938 94.2892 75.7539 94.2892 80.6758ZM126.625 97.4648C120.883 97.4648 116.644 94.5664 116.644 88.7969C116.644 82.2344 122.031 80.6211 127.992 79.9922C133.351 79.3906 135.183 79.3086 135.183 77.3398V77.1211C135.183 74.6602 133.215 72.9102 129.906 72.9102C126.543 72.9102 124.301 74.6602 124.109 77.0938H117.465C117.793 71.3516 122.496 67.5508 130.043 67.5508C137.562 67.5508 142.019 71.2969 142.019 77.3125V97H135.238V92.9258H135.129C133.762 95.4961 131.328 97.4648 126.625 97.4648ZM128.32 92.3516C132.832 92.3516 135.211 89.6719 135.211 86.3086V83.1914C134.363 83.7383 131.683 84.1758 128.84 84.6133C125.887 85.0508 123.371 86.1172 123.371 88.7422C123.371 91.0117 125.312 92.3516 128.32 92.3516ZM153.328 80.6758V97H146.437V68.125H153.218V72.5547C155.187 69.3008 158.113 67.5508 162.078 67.5508C168.121 67.5508 172.386 71.543 172.386 78.9531V97H165.468V80.0469C165.468 75.8086 163.335 73.5938 159.644 73.5938C156.035 73.5938 153.328 75.7539 153.328 80.6758ZM189.956 108.812C182.327 108.812 177.706 105.285 176.941 99.6797H183.695C184.351 102.168 186.73 103.48 189.956 103.48C194.277 103.48 196.765 101.102 196.765 96.6719V92.2695H196.737C194.878 95.6602 191.816 97.1914 188.015 97.1914C180.468 97.1914 175.519 91.1211 175.519 82.4258C175.519 73.6484 180.55 67.5508 187.96 67.5508C191.706 67.5508 194.851 69.1094 196.765 72.418H196.792V68.125H203.601V96.2617C203.601 105.203 197.777 108.812 189.956 108.812ZM189.628 91.5039C194.14 91.5039 197.093 87.8945 197.093 82.3438C197.093 76.793 194.14 73.1836 189.628 73.1836C185.362 73.1836 182.491 76.4648 182.491 82.3438C182.491 88.25 185.362 91.5039 189.628 91.5039ZM220.788 97.6562C212.12 97.6562 206.706 91.3398 206.706 82.5898C206.706 73.8125 212.421 67.4688 220.515 67.4688C228.827 67.4688 234.35 73.6211 234.35 82.4805V84.3672H213.46C213.624 89.0703 216.304 92.2148 220.952 92.2148C224.425 92.2148 226.749 90.5469 227.542 88.0859H233.995C232.901 93.7461 227.542 97.6562 220.788 97.6562ZM213.515 79.6094H227.733C227.296 75.4805 224.616 72.9375 220.624 72.9375C216.632 72.9375 213.979 75.4805 213.515 79.6094Z" fill="black"/>
</svg>
