<svg width="377" height="91" viewBox="0 0 377 91" fill="none" xmlns="http://www.w3.org/2000/svg">
<g filter="url(#filter0_b_1359_1708)">
<rect x="0.467773" y="0.726074" width="376.17" height="90.2807" rx="5.0156" fill="url(#paint0_linear_1359_1708)" fill-opacity="0.64"/>
<path d="M36.5801 53.0671C35.2292 53.0671 34.1525 52.6792 33.35 51.9035C32.5609 51.1143 32.1663 50.0644 32.1663 48.7537V42.3337C32.1663 41.023 32.5609 39.9797 33.35 39.204C34.1525 38.4149 35.2292 38.0203 36.5801 38.0203C37.9309 38.0203 39.0009 38.4149 39.79 39.204C40.5925 39.9797 40.9938 41.023 40.9938 42.3337V48.7537C40.9938 49.623 40.8132 50.3854 40.4521 51.0408C40.091 51.6828 39.576 52.1843 38.9073 52.5455C38.2519 52.8932 37.4762 53.0671 36.5801 53.0671ZM36.5801 51.5223C37.3826 51.5223 38.0245 51.2682 38.506 50.7599C39.0009 50.2383 39.2484 49.5695 39.2484 48.7537V42.3337C39.2484 41.5178 39.0009 40.8558 38.506 40.3475C38.0245 39.8259 37.3826 39.5651 36.5801 39.5651C35.7776 39.5651 35.1289 39.8259 34.634 40.3475C34.1525 40.8558 33.9118 41.5178 33.9118 42.3337V48.7537C33.9118 49.5695 34.1525 50.2383 34.634 50.7599C35.1289 51.2682 35.7776 51.5223 36.5801 51.5223ZM36.5801 46.7274C36.2189 46.7274 35.9247 46.6137 35.6973 46.3863C35.4833 46.1589 35.3763 45.858 35.3763 45.4835C35.3763 45.1224 35.4833 44.8348 35.6973 44.6208C35.9247 44.3934 36.2189 44.2798 36.5801 44.2798C36.9412 44.2798 37.2287 44.3934 37.4427 44.6208C37.6701 44.8348 37.7838 45.1224 37.7838 45.4835C37.7838 45.858 37.6701 46.1589 37.4427 46.3863C37.2287 46.6137 36.9412 46.7274 36.5801 46.7274ZM43.3934 52.8665L47.6065 45.4434L43.6141 38.2209H45.7006L47.9677 42.5544C48.088 42.7818 48.2084 43.0292 48.3288 43.2967C48.4625 43.5508 48.5695 43.7514 48.6498 43.8986C48.7166 43.7514 48.8103 43.5508 48.9306 43.2967C49.0644 43.0292 49.1915 42.7818 49.3118 42.5544L51.619 38.2209H53.6052L49.6128 45.323L53.8259 52.8665H51.7594L49.2516 48.212C49.1313 47.9846 49.0042 47.7439 48.8705 47.4897C48.7501 47.2222 48.6565 47.0082 48.5896 46.8477C48.5227 47.0082 48.4224 47.2155 48.2887 47.4697C48.1683 47.7238 48.0479 47.9645 47.9275 48.1919L45.3997 52.8665H43.3934ZM56.4261 52.8665V51.2213H60.3985V39.7256L56.4261 42.6948V40.6886L59.7364 38.2209H62.2041V51.2213H65.4542V52.8665H56.4261ZM72.6287 53.0671C71.4383 53.0671 70.462 52.7595 69.6996 52.1442C68.9372 51.529 68.4892 50.6997 68.3554 49.6565H70.161C70.2279 50.2316 70.4753 50.6797 70.9033 51.0007C71.3313 51.3083 71.9132 51.4621 72.6488 51.4621C73.4914 51.4621 74.12 51.2347 74.5346 50.78C74.9626 50.3252 75.1766 49.6832 75.1766 48.854V47.4295C75.1766 46.6003 74.9626 45.9583 74.5346 45.5036C74.12 45.0488 73.4981 44.8214 72.6688 44.8214C72.1472 44.8214 71.6925 44.9619 71.3046 45.2427C70.9167 45.5102 70.6358 45.8714 70.462 46.3261H68.6564L68.7567 38.2209H76.4606V39.866H70.5021L70.4419 44.7412H70.5222C70.6425 44.2731 70.9368 43.9053 71.4049 43.6378C71.8864 43.3703 72.4883 43.2365 73.2105 43.2365C74.4009 43.2231 75.3238 43.5909 75.9791 44.3399C76.6479 45.0756 76.9822 46.1054 76.9822 47.4295V48.854C76.9822 50.1513 76.6011 51.1812 75.8387 51.9436C75.0763 52.6926 74.0063 53.0671 72.6287 53.0671ZM84.4777 53.0671C83.595 53.0671 82.8193 52.8932 82.1505 52.5455C81.4951 52.1843 80.9869 51.6895 80.6258 51.0608C80.2646 50.4322 80.0841 49.6966 80.0841 48.854H81.8897C81.8897 49.6698 82.1171 50.3118 82.5718 50.78C83.0399 51.2347 83.6819 51.4621 84.4978 51.4621C85.3271 51.4621 85.969 51.2213 86.4238 50.7398C86.8785 50.2583 87.1059 49.6297 87.1059 48.854V47.8509C87.1059 47.0216 86.8785 46.3796 86.4238 45.9249C85.969 45.4701 85.3271 45.2427 84.4978 45.2427H82.9129V43.6779L86.4037 39.866H80.686V38.2209H88.4501V39.9062L85.0194 43.6578C86.2098 43.7514 87.1527 44.1728 87.8482 44.9218C88.5571 45.6707 88.9115 46.6471 88.9115 47.8509V48.854C88.9115 49.6966 88.7243 50.4322 88.3498 51.0608C87.9887 51.6895 87.4737 52.1843 86.805 52.5455C86.1362 52.8932 85.3605 53.0671 84.4777 53.0671ZM92.555 52.8665V38.2209H96.3468C97.2965 38.2209 98.1123 38.4015 98.7944 38.7626C99.4899 39.1237 100.025 39.632 100.399 40.2873C100.787 40.9427 100.981 41.7185 100.981 42.6146V48.4527C100.981 49.3489 100.787 50.1313 100.399 50.8C100.025 51.4554 99.4899 51.9636 98.7944 52.3248C98.1123 52.6859 97.2965 52.8665 96.3468 52.8665H92.555ZM94.3607 51.2615H96.3468C97.2296 51.2615 97.9184 51.014 98.4133 50.5192C98.9215 50.0243 99.1756 49.3355 99.1756 48.4527V42.6146C99.1756 41.7452 98.9215 41.0631 98.4133 40.5682C97.9184 40.0733 97.2296 39.8259 96.3468 39.8259H94.3607V51.2615ZM108.717 53.0671C107.527 53.0671 106.551 52.7595 105.788 52.1442C105.026 51.529 104.578 50.6997 104.444 49.6565H106.25C106.317 50.2316 106.564 50.6797 106.992 51.0007C107.42 51.3083 108.002 51.4621 108.738 51.4621C109.58 51.4621 110.209 51.2347 110.623 50.78C111.051 50.3252 111.265 49.6832 111.265 48.854V47.4295C111.265 46.6003 111.051 45.9583 110.623 45.5036C110.209 45.0488 109.587 44.8214 108.758 44.8214C108.236 44.8214 107.781 44.9619 107.393 45.2427C107.005 45.5102 106.725 45.8714 106.551 46.3261H104.745L104.845 38.2209H112.549V39.866H106.591L106.531 44.7412H106.611C106.731 44.2731 107.026 43.9053 107.494 43.6378C107.975 43.3703 108.577 43.2365 109.299 43.2365C110.49 43.2231 111.413 43.5909 112.068 44.3399C112.737 45.0756 113.071 46.1054 113.071 47.4295V48.854C113.071 50.1513 112.69 51.1812 111.927 51.9436C111.165 52.6926 110.095 53.0671 108.717 53.0671ZM120.787 53.0671C119.851 53.0671 119.028 52.9066 118.32 52.5856C117.611 52.2512 117.062 51.7965 116.674 51.2213C116.287 50.6328 116.093 49.9574 116.093 49.195C116.093 48.3658 116.353 47.5967 116.875 46.8879C117.41 46.1656 118.119 45.6039 119.002 45.2026C118.132 44.7746 117.484 44.2664 117.056 43.6779C116.628 43.076 116.414 42.434 116.414 41.7519C116.414 41.0163 116.601 40.3676 116.975 39.8058C117.363 39.2441 117.885 38.8027 118.54 38.4817C119.196 38.1607 119.945 38.0002 120.787 38.0002C121.63 38.0002 122.379 38.1607 123.034 38.4817C123.703 38.8027 124.225 39.2441 124.599 39.8058C124.974 40.3676 125.161 41.0163 125.161 41.7519C125.161 42.4206 124.947 43.0559 124.519 43.6578C124.091 44.2463 123.442 44.7613 122.573 45.2026C123.456 45.6039 124.158 46.1656 124.679 46.8879C125.214 47.5967 125.482 48.3658 125.482 49.195C125.482 49.9574 125.288 50.6328 124.9 51.2213C124.512 51.7965 123.964 52.2512 123.255 52.5856C122.559 52.9066 121.737 53.0671 120.787 53.0671ZM120.205 44.2998L120.787 44.5205L121.289 44.3199C121.917 44.0791 122.426 43.7381 122.814 43.2967C123.201 42.842 123.395 42.3471 123.395 41.8121C123.395 41.1567 123.155 40.6284 122.673 40.2272C122.192 39.8125 121.563 39.6052 120.787 39.6052C120.011 39.6052 119.383 39.8125 118.901 40.2272C118.42 40.6418 118.179 41.1701 118.179 41.8121C118.179 42.3605 118.366 42.8553 118.741 43.2967C119.115 43.7381 119.604 44.0724 120.205 44.2998ZM120.787 51.4621C121.67 51.4621 122.379 51.2347 122.914 50.78C123.449 50.3118 123.716 49.7033 123.716 48.9543C123.716 48.3658 123.536 47.8375 123.175 47.3694C122.814 46.8879 122.305 46.5201 121.65 46.2659L120.787 45.9249L119.864 46.286C119.222 46.5401 118.727 46.9079 118.38 47.3894C118.032 47.8575 117.858 48.3792 117.858 48.9543C117.858 49.7033 118.126 50.3118 118.661 50.78C119.196 51.2347 119.904 51.4621 120.787 51.4621ZM132.596 53.0671C131.713 53.0671 130.938 52.8932 130.269 52.5455C129.614 52.1843 129.105 51.6895 128.744 51.0608C128.383 50.4322 128.202 49.6966 128.202 48.854H130.008C130.008 49.6698 130.235 50.3118 130.69 50.78C131.158 51.2347 131.8 51.4621 132.616 51.4621C133.445 51.4621 134.087 51.2213 134.542 50.7398C134.997 50.2583 135.224 49.6297 135.224 48.854V47.8509C135.224 47.0216 134.997 46.3796 134.542 45.9249C134.087 45.4701 133.445 45.2427 132.616 45.2427H131.031V43.6779L134.522 39.866H128.804V38.2209H136.568V39.9062L133.138 43.6578C134.328 43.7514 135.271 44.1728 135.967 44.9218C136.675 45.6707 137.03 46.6471 137.03 47.8509V48.854C137.03 49.6966 136.843 50.4322 136.468 51.0608C136.107 51.6895 135.592 52.1843 134.923 52.5455C134.255 52.8932 133.479 53.0671 132.596 53.0671ZM144.846 53.0671C143.91 53.0671 143.088 52.9066 142.379 52.5856C141.67 52.2512 141.121 51.7965 140.734 51.2213C140.346 50.6328 140.152 49.9574 140.152 49.195C140.152 48.3658 140.413 47.5967 140.934 46.8879C141.469 46.1656 142.178 45.6039 143.061 45.2026C142.191 44.7746 141.543 44.2664 141.115 43.6779C140.687 43.076 140.473 42.434 140.473 41.7519C140.473 41.0163 140.66 40.3676 141.035 39.8058C141.422 39.2441 141.944 38.8027 142.599 38.4817C143.255 38.1607 144.004 38.0002 144.846 38.0002C145.689 38.0002 146.438 38.1607 147.093 38.4817C147.762 38.8027 148.284 39.2441 148.658 39.8058C149.033 40.3676 149.22 41.0163 149.22 41.7519C149.22 42.4206 149.006 43.0559 148.578 43.6578C148.15 44.2463 147.501 44.7613 146.632 45.2026C147.515 45.6039 148.217 46.1656 148.739 46.8879C149.273 47.5967 149.541 48.3658 149.541 49.195C149.541 49.9574 149.347 50.6328 148.959 51.2213C148.571 51.7965 148.023 52.2512 147.314 52.5856C146.619 52.9066 145.796 53.0671 144.846 53.0671ZM144.265 44.2998L144.846 44.5205L145.348 44.3199C145.977 44.0791 146.485 43.7381 146.873 43.2967C147.261 42.842 147.455 42.3471 147.455 41.8121C147.455 41.1567 147.214 40.6284 146.732 40.2272C146.251 39.8125 145.622 39.6052 144.846 39.6052C144.071 39.6052 143.442 39.8125 142.961 40.2272C142.479 40.6418 142.238 41.1701 142.238 41.8121C142.238 42.3605 142.426 42.8553 142.8 43.2967C143.175 43.7381 143.663 44.0724 144.265 44.2998ZM144.846 51.4621C145.729 51.4621 146.438 51.2347 146.973 50.78C147.508 50.3118 147.776 49.7033 147.776 48.9543C147.776 48.3658 147.595 47.8375 147.234 47.3694C146.873 46.8879 146.364 46.5201 145.709 46.2659L144.846 45.9249L143.924 46.286C143.282 46.5401 142.787 46.9079 142.439 47.3894C142.091 47.8575 141.917 48.3792 141.917 48.9543C141.917 49.7033 142.185 50.3118 142.72 50.78C143.255 51.2347 143.964 51.4621 144.846 51.4621ZM156.876 53.0671C155.94 53.0671 155.117 52.9066 154.408 52.5856C153.699 52.2512 153.151 51.7965 152.763 51.2213C152.375 50.6328 152.181 49.9574 152.181 49.195C152.181 48.3658 152.442 47.5967 152.964 46.8879C153.499 46.1656 154.208 45.6039 155.09 45.2026C154.221 44.7746 153.572 44.2664 153.144 43.6779C152.716 43.076 152.502 42.434 152.502 41.7519C152.502 41.0163 152.69 40.3676 153.064 39.8058C153.452 39.2441 153.974 38.8027 154.629 38.4817C155.284 38.1607 156.033 38.0002 156.876 38.0002C157.719 38.0002 158.468 38.1607 159.123 38.4817C159.792 38.8027 160.313 39.2441 160.688 39.8058C161.062 40.3676 161.25 41.0163 161.25 41.7519C161.25 42.4206 161.036 43.0559 160.608 43.6578C160.18 44.2463 159.531 44.7613 158.662 45.2026C159.544 45.6039 160.246 46.1656 160.768 46.8879C161.303 47.5967 161.571 48.3658 161.571 49.195C161.571 49.9574 161.377 50.6328 160.989 51.2213C160.601 51.7965 160.053 52.2512 159.344 52.5856C158.648 52.9066 157.826 53.0671 156.876 53.0671ZM156.294 44.2998L156.876 44.5205L157.378 44.3199C158.006 44.0791 158.514 43.7381 158.902 43.2967C159.29 42.842 159.484 42.3471 159.484 41.8121C159.484 41.1567 159.243 40.6284 158.762 40.2272C158.28 39.8125 157.652 39.6052 156.876 39.6052C156.1 39.6052 155.472 39.8125 154.99 40.2272C154.509 40.6418 154.268 41.1701 154.268 41.8121C154.268 42.3605 154.455 42.8553 154.83 43.2967C155.204 43.7381 155.692 44.0724 156.294 44.2998ZM156.876 51.4621C157.759 51.4621 158.468 51.2347 159.003 50.78C159.538 50.3118 159.805 49.7033 159.805 48.9543C159.805 48.3658 159.625 47.8375 159.263 47.3694C158.902 46.8879 158.394 46.5201 157.739 46.2659L156.876 45.9249L155.953 46.286C155.311 46.5401 154.816 46.9079 154.469 47.3894C154.121 47.8575 153.947 48.3792 153.947 48.9543C153.947 49.7033 154.214 50.3118 154.749 50.78C155.284 51.2347 155.993 51.4621 156.876 51.4621ZM164.893 52.8665V38.2209H173.319V39.866H166.679V44.4001H172.617V46.0051H166.679V51.2213H173.319V52.8665H164.893ZM184.747 53.0671C184.453 53.0671 184.212 52.9668 184.025 52.7661C183.838 52.5655 183.744 52.298 183.744 51.9636V50.5593C183.744 50.2249 183.838 49.9574 184.025 49.7568C184.212 49.5562 184.453 49.4558 184.747 49.4558C185.055 49.4558 185.295 49.5562 185.469 49.7568C185.657 49.9574 185.75 50.2249 185.75 50.5593V51.9636C185.75 52.298 185.657 52.5655 185.469 52.7661C185.295 52.9668 185.055 53.0671 184.747 53.0671ZM177.123 53.0671C176.829 53.0671 176.588 52.9668 176.401 52.7661C176.214 52.5655 176.12 52.298 176.12 51.9636V50.5593C176.12 50.2249 176.214 49.9574 176.401 49.7568C176.588 49.5562 176.829 49.4558 177.123 49.4558C177.431 49.4558 177.672 49.5562 177.846 49.7568C178.033 49.9574 178.126 50.2249 178.126 50.5593V51.9636C178.126 52.298 178.033 52.5655 177.846 52.7661C177.672 52.9668 177.431 53.0671 177.123 53.0671ZM180.935 53.0671C180.641 53.0671 180.4 52.9668 180.213 52.7661C180.026 52.5655 179.932 52.298 179.932 51.9636V50.5593C179.932 50.2249 180.026 49.9574 180.213 49.7568C180.4 49.5562 180.641 49.4558 180.935 49.4558C181.243 49.4558 181.484 49.5562 181.657 49.7568C181.845 49.9574 181.938 50.2249 181.938 50.5593V51.9636C181.938 52.298 181.845 52.5655 181.657 52.7661C181.484 52.9668 181.243 53.0671 180.935 53.0671Z" fill="white"/>
<path opacity="0.4" d="M204.974 50.9605V47.0484H201.142V45.4434H204.974V41.5312H206.739V45.4434H210.571V47.0484H206.739V50.9605H204.974ZM219.892 52.8665V49.6565H213.272V46.8277L218.608 38.2209H220.594L215.077 47.1888V48.0114H219.892V44.4403H221.698V52.8665H219.892ZM225.903 52.8665V38.2209H234.329V39.866H227.689V44.4001H233.627V46.0051H227.689V51.2213H234.329V52.8665H225.903ZM241.042 52.8665V39.866H237.03V38.2209H246.86V39.866H242.848V52.8665H241.042ZM249.822 52.8665V38.2209H251.627V44.4804H256.322V38.2209H258.128V52.8665H256.322V46.1255H251.627V52.8665H249.822Z" fill="white"/>
<path d="M322.346 52.8665L326.56 45.4434L322.567 38.2209H324.654L326.921 42.5544C327.041 42.7818 327.161 43.0292 327.282 43.2967C327.416 43.5508 327.523 43.7514 327.603 43.8986C327.67 43.7514 327.763 43.5508 327.884 43.2967C328.017 43.0292 328.144 42.7818 328.265 42.5544L330.572 38.2209H332.558L328.566 45.323L332.779 52.8665H330.712L328.205 48.212C328.084 47.9846 327.957 47.7439 327.823 47.4897C327.703 47.2222 327.609 47.0082 327.543 46.8477C327.476 47.0082 327.375 47.2155 327.242 47.4697C327.121 47.7238 327.001 47.9645 326.881 48.1919L324.353 52.8665H322.346ZM335.419 52.8665V51.0809L340.094 45.9851C340.789 45.2361 341.291 44.5673 341.598 43.9788C341.919 43.3903 342.08 42.8152 342.08 42.2535C342.08 41.451 341.846 40.8156 341.378 40.3475C340.91 39.866 340.274 39.6253 339.472 39.6253C338.656 39.6253 338.007 39.8727 337.526 40.3676C337.058 40.8491 336.824 41.5045 336.824 42.3337H335.018C335.058 41.0096 335.479 39.9597 336.282 39.1839C337.084 38.4082 338.148 38.0203 339.472 38.0203C340.823 38.0203 341.893 38.4015 342.682 39.1638C343.484 39.9262 343.886 40.9628 343.886 42.2735C343.886 42.969 343.678 43.6979 343.264 44.4603C342.862 45.2227 342.207 46.0987 341.298 47.0885L337.486 51.2213H344.126V52.8665H335.419Z" fill="#30FF5E"/>
</g>
<defs>
<filter id="filter0_b_1359_1708" x="-12.6982" y="-12.4399" width="402.502" height="116.613" filterUnits="userSpaceOnUse" color-interpolation-filters="sRGB">
<feFlood flood-opacity="0" result="BackgroundImageFix"/>
<feGaussianBlur in="BackgroundImageFix" stdDeviation="6.58297"/>
<feComposite in2="SourceAlpha" operator="in" result="effect1_backgroundBlur_1359_1708"/>
<feBlend mode="normal" in="SourceGraphic" in2="effect1_backgroundBlur_1359_1708" result="shape"/>
</filter>
<linearGradient id="paint0_linear_1359_1708" x1="133.234" y1="97.9032" x2="133.234" y2="-196.763" gradientUnits="userSpaceOnUse">
<stop stop-color="#161618"/>
<stop offset="1" stop-color="#161618" stop-opacity="0"/>
</linearGradient>
</defs>
</svg>
