<svg width="168" height="100" viewBox="0 0 168 100" fill="none" xmlns="http://www.w3.org/2000/svg">
<path d="M49.582 40H43.9766V10.9609H43.7852L31.8906 39.6992H27.3516L15.4297 10.9609H15.2383V40H9.66016V0.542969H16.7422L29.5117 31.6875H29.7305L42.4727 0.542969H49.582V40ZM64.0414 35.8164C66.1195 35.8164 67.8604 35.1875 69.2641 33.9297C70.6859 32.6536 71.3969 31.0859 71.3969 29.2266V26.957L64.3148 27.3945C62.5466 27.5221 61.1794 27.9596 60.2133 28.707C59.2654 29.4362 58.7914 30.4206 58.7914 31.6602C58.7914 32.918 59.2654 33.9297 60.2133 34.6953C61.1794 35.4427 62.4555 35.8164 64.0414 35.8164ZM62.4008 40.4922C59.5753 40.4922 57.2693 39.6901 55.4828 38.0859C53.7146 36.4818 52.8305 34.3945 52.8305 31.8242C52.8305 29.3086 53.7602 27.3125 55.6195 25.8359C57.4789 24.3411 60.113 23.5026 63.5219 23.3203L71.3969 22.8555V20.6406C71.3969 19.0365 70.8865 17.7878 69.8656 16.8945C68.8448 15.9831 67.432 15.5273 65.6273 15.5273C63.9503 15.5273 62.5831 15.901 61.5258 16.6484C60.4867 17.3958 59.8305 18.4258 59.557 19.7383H53.9789C54.143 17.0768 55.2914 14.9076 57.4242 13.2305C59.557 11.5534 62.3643 10.7148 65.8461 10.7148C69.3279 10.7148 72.0987 11.5716 74.1586 13.2852C76.2367 14.9987 77.2758 17.2956 77.2758 20.1758V40H71.6156V35.2695H71.4789C70.6586 36.8555 69.4099 38.1224 67.7328 39.0703C66.074 40.0182 64.2966 40.4922 62.4008 40.4922ZM81.618 40V11.2344H87.2508V16.0469H87.3875C88.1896 14.3698 89.3562 13.0664 90.8875 12.1367C92.4187 11.207 94.269 10.7422 96.4383 10.7422C99.5919 10.7422 102.044 11.6901 103.794 13.5859C105.544 15.4635 106.419 18.0612 106.419 21.3789V40H100.485V22.5273C100.485 20.3398 99.9656 18.681 98.9266 17.5508C97.9057 16.4023 96.3836 15.8281 94.3602 15.8281C92.282 15.8281 90.6232 16.5026 89.3836 17.8516C88.144 19.2005 87.5242 20.9961 87.5242 23.2383V40H81.618ZM112.456 4.42578H118.39V11.2344H123.859V15.9102H118.39V31.7695C118.39 33.0091 118.672 33.9206 119.238 34.5039C119.803 35.0872 120.687 35.3789 121.89 35.3789C122.765 35.3789 123.412 35.3333 123.831 35.2422V39.918C123.102 40.1003 122.008 40.1914 120.55 40.1914C117.652 40.1914 115.573 39.599 114.316 38.4141C113.076 37.2109 112.456 35.2148 112.456 32.4258V15.9102H108.273V11.2344H112.456V4.42578ZM136.951 35.8164C139.029 35.8164 140.77 35.1875 142.173 33.9297C143.595 32.6536 144.306 31.0859 144.306 29.2266V26.957L137.224 27.3945C135.456 27.5221 134.089 27.9596 133.123 28.707C132.175 29.4362 131.701 30.4206 131.701 31.6602C131.701 32.918 132.175 33.9297 133.123 34.6953C134.089 35.4427 135.365 35.8164 136.951 35.8164ZM135.31 40.4922C132.485 40.4922 130.179 39.6901 128.392 38.0859C126.624 36.4818 125.74 34.3945 125.74 31.8242C125.74 29.3086 126.67 27.3125 128.529 25.8359C130.388 24.3411 133.022 23.5026 136.431 23.3203L144.306 22.8555V20.6406C144.306 19.0365 143.796 17.7878 142.775 16.8945C141.754 15.9831 140.341 15.5273 138.537 15.5273C136.86 15.5273 135.492 15.901 134.435 16.6484C133.396 17.3958 132.74 18.4258 132.466 19.7383H126.888C127.052 17.0768 128.201 14.9076 130.334 13.2305C132.466 11.5534 135.274 10.7148 138.755 10.7148C142.237 10.7148 145.008 11.5716 147.068 13.2852C149.146 14.9987 150.185 17.2956 150.185 20.1758V40H144.525V35.2695H144.388C143.568 36.8555 142.319 38.1224 140.642 39.0703C138.983 40.0182 137.206 40.4922 135.31 40.4922ZM29.5281 90L25.9187 79.3359H10.8797L7.27031 90H0.899216L15.1453 50.543H21.7625L36.0086 90H29.5281ZM18.3172 57.1055L12.4383 74.4141H24.3602L18.4812 57.1055H18.3172ZM38.4367 90V61.2344H44.343V90H38.4367ZM43.8234 56.0391C43.149 56.6953 42.3378 57.0234 41.3898 57.0234C40.4419 57.0234 39.6307 56.6953 38.9562 56.0391C38.3 55.3828 37.9719 54.5898 37.9719 53.6602C37.9719 52.7122 38.3 51.9102 38.9562 51.2539C39.6307 50.5977 40.4419 50.2695 41.3898 50.2695C42.356 50.2695 43.1672 50.5977 43.8234 51.2539C44.4979 51.9102 44.8352 52.7122 44.8352 53.6602C44.8352 54.5898 44.4979 55.3828 43.8234 56.0391ZM48.9859 90V61.2344H54.6187V66.1289H54.7555C55.2294 64.4518 56.0771 63.1393 57.2984 62.1914C58.5198 61.2435 59.9781 60.7695 61.6734 60.7695C62.2385 60.7695 62.913 60.8424 63.6969 60.9883V66.4844C63.1682 66.2656 62.2841 66.1562 61.0445 66.1562C59.1487 66.1562 57.6448 66.7487 56.5328 67.9336C55.4391 69.1185 54.8922 70.7318 54.8922 72.7734V90H48.9859ZM75.5039 90.4922C71.8581 90.4922 68.9323 89.1432 66.7266 86.4453C64.5208 83.7474 63.418 80.138 63.418 75.6172C63.418 71.0964 64.5117 67.4961 66.6992 64.8164C68.9049 62.1185 71.8216 60.7695 75.4492 60.7695C77.4727 60.7695 79.2773 61.2435 80.8633 62.1914C82.4492 63.1211 83.6523 64.3971 84.4727 66.0195H84.582V50.543H90.5156V90H84.7734V85.1055H84.6641C83.8073 86.7826 82.5768 88.1042 80.9727 89.0703C79.3867 90.0182 77.5638 90.4922 75.5039 90.4922ZM77.0625 65.7461C74.7292 65.7461 72.8789 66.6393 71.5117 68.4258C70.1445 70.194 69.4609 72.5911 69.4609 75.6172C69.4609 78.6615 70.1445 81.0677 71.5117 82.8359C72.8789 84.6042 74.7292 85.4883 77.0625 85.4883C79.3411 85.4883 81.1732 84.5951 82.5586 82.8086C83.944 81.0039 84.6367 78.6068 84.6367 75.6172C84.6367 72.6458 83.944 70.2578 82.5586 68.4531C81.1732 66.6484 79.3411 65.7461 77.0625 65.7461ZM95.1859 90V61.2344H100.819V66.1289H100.955C101.429 64.4518 102.277 63.1393 103.498 62.1914C104.72 61.2435 106.178 60.7695 107.873 60.7695C108.439 60.7695 109.113 60.8424 109.897 60.9883V66.4844C109.368 66.2656 108.484 66.1562 107.245 66.1562C105.349 66.1562 103.845 66.7487 102.733 67.9336C101.639 69.1185 101.092 70.7318 101.092 72.7734V90H95.1859ZM133.188 86.5547C130.709 89.2161 127.401 90.5469 123.262 90.5469C119.124 90.5469 115.816 89.2161 113.337 86.5547C110.858 83.875 109.618 80.2292 109.618 75.6172C109.618 71.0234 110.858 67.3958 113.337 64.7344C115.816 62.0547 119.124 60.7148 123.262 60.7148C127.401 60.7148 130.709 62.0547 133.188 64.7344C135.667 67.3958 136.907 71.0234 136.907 75.6172C136.907 80.2292 135.667 83.875 133.188 86.5547ZM123.262 85.6797C125.614 85.6797 127.473 84.7956 128.841 83.0273C130.208 81.2591 130.891 78.7891 130.891 75.6172C130.891 72.4635 130.199 70.0026 128.813 68.2344C127.446 66.4661 125.596 65.582 123.262 65.582C120.929 65.582 119.07 66.4661 117.684 68.2344C116.317 70.0026 115.634 72.4635 115.634 75.6172C115.634 78.7891 116.317 81.2591 117.684 83.0273C119.07 84.7956 120.929 85.6797 123.262 85.6797ZM155.058 60.7695C158.722 60.7695 161.657 62.1094 163.863 64.7891C166.068 67.4688 167.171 71.0781 167.171 75.6172C167.171 80.1562 166.077 83.7747 163.89 86.4727C161.702 89.1523 158.795 90.4922 155.167 90.4922C153.126 90.4922 151.312 90.0273 149.726 89.0977C148.158 88.168 146.955 86.8919 146.116 85.2695H145.98V99.5156H140.073V61.2344H145.788V66.1836H145.898C146.754 64.5065 147.985 63.1849 149.589 62.2188C151.193 61.2526 153.016 60.7695 155.058 60.7695ZM153.499 85.4883C155.833 85.4883 157.683 84.6042 159.05 82.8359C160.417 81.0495 161.101 78.6432 161.101 75.6172C161.101 72.6094 160.417 70.2122 159.05 68.4258C157.683 66.6393 155.833 65.7461 153.499 65.7461C151.239 65.7461 149.416 66.6484 148.03 68.4531C146.645 70.2578 145.952 72.6458 145.952 75.6172C145.952 78.6068 146.636 81.0039 148.003 82.8086C149.389 84.5951 151.221 85.4883 153.499 85.4883Z" fill="#F0F0EC"/>
</svg>
