<svg width="252" height="99" viewBox="0 0 252 99" fill="none" xmlns="http://www.w3.org/2000/svg">
<path d="M44.8776 42.56C42.0776 42.56 39.651 42.0933 37.5976 41.16C35.5443 40.2267 33.9576 38.9013 32.8376 37.184C31.755 35.4293 31.195 33.376 31.1576 31.024H38.1576C38.1576 32.704 38.755 34.0293 39.9496 35C41.1816 35.9333 42.843 36.4 44.9336 36.4C46.9496 36.4 48.5176 35.9333 49.6376 35C50.795 34.0667 51.3736 32.7787 51.3736 31.136C51.3736 29.7547 50.963 28.56 50.1416 27.552C49.3576 26.5067 48.219 25.7973 46.7256 25.424L42.0216 24.136C38.811 23.3147 36.3283 21.84 34.5736 19.712C32.8563 17.584 31.9976 15.008 31.9976 11.984C31.9976 9.66933 32.5203 7.65333 33.5656 5.936C34.611 4.21866 36.0856 2.89333 37.9896 1.96C39.931 1.02667 42.2083 0.559999 44.8216 0.559999C48.779 0.559999 51.915 1.58667 54.2296 3.64C56.5443 5.656 57.7203 8.38133 57.7576 11.816H50.7576C50.7576 10.2107 50.235 8.96 49.1896 8.064C48.1443 7.13066 46.6696 6.664 44.7656 6.664C42.9363 6.664 41.5176 7.09333 40.5096 7.952C39.5016 8.81066 38.9976 10.024 38.9976 11.592C38.9976 13.0107 39.371 14.224 40.1176 15.232C40.9016 16.2027 42.0216 16.8933 43.4776 17.304L48.3496 18.648C51.5976 19.4693 54.0803 20.944 55.7976 23.072C57.515 25.1627 58.3736 27.7573 58.3736 30.856C58.3736 33.1707 57.8136 35.224 56.6936 37.016C55.5736 38.7707 54.0056 40.1333 51.9896 41.104C49.9736 42.0747 47.603 42.56 44.8776 42.56ZM64.1757 42V1.12H77.7837C80.5091 1.12 82.8797 1.64267 84.8957 2.688C86.9491 3.73333 88.5357 5.208 89.6557 7.112C90.7757 8.97867 91.3357 11.1813 91.3357 13.72C91.3357 16.2213 90.7571 18.424 89.5997 20.328C88.4797 22.232 86.9117 23.7067 84.8957 24.752C82.8797 25.7973 80.5091 26.32 77.7837 26.32H71.1757V42H64.1757ZM71.1757 19.992H77.7837C79.7251 19.992 81.2744 19.432 82.4317 18.312C83.6264 17.1547 84.2237 15.624 84.2237 13.72C84.2237 11.7787 83.6264 10.248 82.4317 9.128C81.2744 8.008 79.7251 7.448 77.7837 7.448H71.1757V19.992ZM93.7219 42L104.026 1.12H113.042L123.402 42H116.234L113.994 32.088H103.13L100.89 42H93.7219ZM104.418 26.376H112.706L110.242 15.4C109.831 13.5707 109.477 11.928 109.178 10.472C108.879 8.97866 108.674 7.896 108.562 7.224C108.45 7.896 108.245 8.97866 107.946 10.472C107.685 11.928 107.33 13.552 106.882 15.344L104.418 26.376ZM140.684 42.56C138.071 42.56 135.775 42.0747 133.796 41.104C131.855 40.096 130.343 38.696 129.26 36.904C128.215 35.0747 127.692 32.928 127.692 30.464V12.656C127.692 10.1547 128.215 8.008 129.26 6.216C130.343 4.424 131.855 3.04266 133.796 2.072C135.775 1.064 138.071 0.559999 140.684 0.559999C143.335 0.559999 145.612 1.064 147.516 2.072C149.457 3.04266 150.969 4.424 152.052 6.216C153.135 8.008 153.676 10.1547 153.676 12.656H146.62C146.62 10.7147 146.097 9.24 145.052 8.232C144.044 7.224 142.588 6.72 140.684 6.72C138.78 6.72 137.305 7.224 136.26 8.232C135.215 9.24 134.692 10.696 134.692 12.6V30.464C134.692 32.368 135.215 33.8427 136.26 34.888C137.305 35.896 138.78 36.4 140.684 36.4C142.588 36.4 144.044 35.896 145.052 34.888C146.097 33.8427 146.62 32.368 146.62 30.464H153.676C153.676 32.8907 153.135 35.0187 152.052 36.848C150.969 38.6773 149.457 40.096 147.516 41.104C145.612 42.0747 143.335 42.56 140.684 42.56ZM160.486 42V1.12H185.014V7.224H167.374V17.864H183.054V23.912H167.374V35.896H185.014V42H160.486ZM189.024 42L200.336 21.056L189.696 1.12H197.536L202.688 11.368C203.062 12.1147 203.398 12.8427 203.696 13.552C203.995 14.224 204.219 14.7467 204.368 15.12C204.48 14.7467 204.686 14.224 204.984 13.552C205.283 12.8427 205.619 12.1147 205.992 11.368L211.2 1.12H218.816L208.176 20.888L219.488 42H211.648L205.88 30.688C205.507 29.9413 205.152 29.2133 204.816 28.504C204.518 27.7947 204.294 27.2347 204.144 26.824C203.995 27.2347 203.771 27.7947 203.472 28.504C203.174 29.2133 202.838 29.9413 202.464 30.688L196.64 42H189.024ZM13.0915 98.56C10.4782 98.56 8.18217 98.0747 6.20351 97.104C4.26217 96.096 2.75017 94.696 1.6675 92.904C0.622172 91.0747 0.0995051 88.928 0.0995051 86.464V68.656C0.0995051 66.1547 0.622172 64.008 1.6675 62.216C2.75017 60.424 4.26217 59.0427 6.20351 58.072C8.18217 57.064 10.4782 56.56 13.0915 56.56C15.7422 56.56 18.0195 57.064 19.9235 58.072C21.8648 59.0427 23.3768 60.424 24.4595 62.216C25.5422 64.008 26.0835 66.1547 26.0835 68.656H19.0275C19.0275 66.7147 18.5048 65.24 17.4595 64.232C16.4515 63.224 14.9955 62.72 13.0915 62.72C11.1875 62.72 9.71284 63.224 8.66751 64.232C7.62217 65.24 7.09951 66.696 7.09951 68.6V86.464C7.09951 88.368 7.62217 89.8427 8.66751 90.888C9.71284 91.9333 11.1875 92.456 13.0915 92.456C14.9955 92.456 16.4515 91.9333 17.4595 90.888C18.5048 89.8427 19.0275 88.368 19.0275 86.464V82.32H12.0835V76.272H26.0835V86.464C26.0835 88.928 25.5422 91.0747 24.4595 92.904C23.3768 94.696 21.8648 96.096 19.9235 97.104C18.0195 98.0747 15.7422 98.56 13.0915 98.56ZM33.0056 98V91.84H41.2376V63.28H33.0056V57.12H56.5256V63.28H48.2936V91.84H56.5256V98H33.0056ZM72.1278 98L61.8238 57.12H69.1038L75.2638 83.776C75.5998 85.0827 75.9171 86.4827 76.2158 87.976C76.5144 89.4693 76.7384 90.6827 76.8878 91.616C77.0371 90.6827 77.2424 89.4693 77.5038 87.976C77.7651 86.4827 78.0451 85.064 78.3438 83.72L84.4478 57.12H91.5038L81.1998 98H72.1278ZM96.6899 98V57.12H121.218V63.224H103.578V73.864H119.258V79.912H103.578V91.896H121.218V98H96.6899ZM125.62 98L135.924 57.12H144.94L155.3 98H148.132L145.892 88.088H135.028L132.788 98H125.62ZM136.316 82.376H144.604L142.14 71.4C141.729 69.5707 141.375 67.928 141.076 66.472C140.777 64.9787 140.572 63.896 140.46 63.224C140.348 63.896 140.143 64.9787 139.844 66.472C139.583 67.928 139.228 69.552 138.78 71.344L136.316 82.376ZM160.654 98L156.454 57.12H162.502L164.966 85.68C165.041 86.3147 165.097 87.0987 165.134 88.032C165.209 88.928 165.265 89.8427 165.302 90.776C165.377 91.7093 165.414 92.5307 165.414 93.24C165.489 92.5307 165.563 91.7093 165.638 90.776C165.713 89.8427 165.787 88.928 165.862 88.032C165.974 87.0987 166.067 86.3147 166.142 85.68L169.502 57.12H175.382L178.518 85.68C178.63 86.3147 178.723 87.0987 178.798 88.032C178.91 88.928 179.022 89.8427 179.134 90.776C179.246 91.7093 179.339 92.5307 179.414 93.24C179.451 92.5307 179.489 91.7093 179.526 90.776C179.563 89.8427 179.601 88.928 179.638 88.032C179.713 87.0987 179.787 86.3147 179.862 85.68L182.27 57.12H188.262L183.838 98H176.11L173.086 69.328C173.011 68.6187 172.918 67.7973 172.806 66.864C172.731 65.8933 172.657 64.9413 172.582 64.008C172.507 63.0373 172.451 62.216 172.414 61.544C172.377 62.216 172.302 63.0373 172.19 64.008C172.115 64.9413 172.041 65.8933 171.966 66.864C171.891 67.7973 171.817 68.6187 171.742 69.328L168.438 98H160.654ZM189.416 98L199.72 57.12H208.736L219.096 98H211.928L209.688 88.088H198.824L196.584 98H189.416ZM200.112 82.376H208.4L205.936 71.4C205.526 69.5707 205.171 67.928 204.872 66.472C204.574 64.9787 204.368 63.896 204.256 63.224C204.144 63.896 203.939 64.9787 203.64 66.472C203.379 67.928 203.024 69.552 202.576 71.344L200.112 82.376ZM232.626 98V83.16L220.642 57.12H227.978L234.362 71.288C234.848 72.408 235.258 73.5093 235.594 74.592C235.93 75.6747 236.154 76.5147 236.266 77.112C236.416 76.5147 236.64 75.6747 236.938 74.592C237.274 73.5093 237.685 72.408 238.17 71.288L244.386 57.12H251.666L239.682 83.16V98H232.626Z" fill="white"/>
</svg>
