<svg width="202" height="96" viewBox="0 0 202 96" fill="none" xmlns="http://www.w3.org/2000/svg">
<path d="M0.644529 6.512V0.799997H31.2765V6.512H19.1805V40H12.7405V6.512H0.644529ZM45.504 11.328H46.848V16.984H44.16C38.784 16.984 37.048 21.184 37.048 25.608V40H31V11.328H36.376L37.048 15.64C38.504 13.232 40.8 11.328 45.504 11.328ZM74.2312 34.736H75.4632V40H72.2712C68.3512 40 67.0072 38.264 67.0072 35.408C65.1032 38.32 62.1912 40.336 57.5432 40.336C51.2712 40.336 46.9032 37.256 46.9032 31.936C46.9032 26.056 51.1592 22.752 59.1672 22.752H66.3912V21.016C66.3912 17.824 64.0952 15.864 60.1192 15.864C56.5352 15.864 54.1272 17.544 53.6792 20.064H47.7432C48.3592 14.464 53.1752 10.992 60.3992 10.992C68.0152 10.992 72.3832 14.632 72.3832 21.408V32.888C72.3832 34.344 72.9992 34.736 74.2312 34.736ZM66.3912 28.24V27.232H58.8872C55.1352 27.232 53.0632 28.632 53.0632 31.544C53.0632 33.952 55.0792 35.632 58.3832 35.632C63.4232 35.632 66.3352 32.664 66.3912 28.24ZM80.1575 7.296C78.0855 7.296 76.4615 5.784 76.4615 3.656C76.4615 1.528 78.0855 0.0159974 80.1575 0.0159974C82.2295 0.0159974 83.8535 1.528 83.8535 3.656C83.8535 5.784 82.2295 7.296 80.1575 7.296ZM77.0775 40V11.328H83.1255V40H77.0775ZM102.494 10.992C108.822 10.992 114.03 14.464 114.03 24.04V40H107.926V24.544C107.926 19.112 105.63 16.2 101.094 16.2C96.2781 16.2 93.4221 19.728 93.4221 25.552V40H87.3741V11.328H92.6381L93.3101 15.08C95.1021 12.84 97.8461 10.992 102.494 10.992ZM118.466 40V0.799997H126.81L139.354 31.656L151.674 0.799997H159.85V40H153.634V11.16L141.874 40H136.442L124.682 11.16V40H118.466ZM178.341 40.336C169.325 40.336 163.669 34.512 163.669 25.72C163.669 16.872 169.325 10.992 177.781 10.992C186.069 10.992 191.613 16.256 191.781 24.656C191.781 25.384 191.725 26.168 191.613 26.952H169.997V27.344C170.165 32.216 173.245 35.408 178.005 35.408C181.701 35.408 184.389 33.56 185.229 30.368H191.277C190.269 36.024 185.453 40.336 178.341 40.336ZM170.221 22.528H185.509C185.005 18.272 182.037 15.864 177.837 15.864C173.973 15.864 170.669 18.44 170.221 22.528ZM2.57938 95V57.6758C5.5325 57.6758 8.85932 57.4844 12.5598 57.1016V72.168C14.7109 68.5404 17.746 66.7266 21.6653 66.7266C26.2955 66.7266 28.6106 68.8047 28.6106 72.9609V95H18.6302V74.0547C18.6302 72.4688 18.1015 71.6758 17.0442 71.6758C15.9505 71.6758 14.9296 72.6966 13.9817 74.7383C13.0338 76.7617 12.5598 78.9401 12.5598 81.2734V95H2.57938ZM52.2783 84.9102L56.2978 86.0859C55.8785 92.4479 52.1233 95.6289 45.0322 95.6289C35.8447 95.6289 31.2509 91.0443 31.2509 81.875C31.2509 77.4271 32.4723 73.7812 34.915 70.9375C37.3577 68.0938 40.484 66.6719 44.2939 66.6719C52.2601 66.6719 56.2431 71.8125 56.2431 82.0938H41.6963C41.6963 89.3125 43.5283 92.9219 47.1923 92.9219C50.6194 92.9219 52.333 90.8802 52.333 86.7969C52.333 86.25 52.3147 85.6211 52.2783 84.9102ZM41.6689 79.0039H47.6298C47.6298 72.5872 46.6637 69.3789 44.7314 69.3789C42.9814 69.3789 41.997 71.7578 41.7783 76.5156L41.6689 79.0039ZM86.6647 94.0156C84.222 94.9635 81.8431 95.4375 79.528 95.4375C76.1009 95.4375 73.9863 94.3711 73.1842 92.2383C71.5254 94.4622 69.1373 95.5742 66.0202 95.5742C60.2051 95.5742 57.2975 92.8763 57.2975 87.4805C57.2975 83.3789 59.959 80.4987 65.2819 78.8398C70.1673 77.3086 72.61 75.4674 72.61 73.3164C72.61 70.4909 71.2064 69.0781 68.3991 69.0781C65.1543 69.0781 63.5319 70.4453 63.5319 73.1797C63.5319 74.0365 63.7871 75.1667 64.2975 76.5703L59.3483 75.6133C59.2207 74.7565 59.1569 73.9544 59.1569 73.207C59.1569 68.832 63.1491 66.6445 71.1334 66.6445C78.7168 66.6445 82.5084 68.6862 82.5084 72.7695V89.5039C82.5084 91.2174 83.0644 92.0742 84.1764 92.0742C84.5228 92.0742 85.0332 91.8828 85.7077 91.5L86.6647 94.0156ZM72.528 78.4297C71.9082 79.1406 71.1881 79.7331 70.3678 80.207C68.3079 81.4102 67.278 83.4336 67.278 86.2773C67.278 89.9232 67.9889 91.7461 69.4108 91.7461C71.4889 91.7461 72.528 89.9414 72.528 86.332V78.4297ZM96.7151 57.1289V95H86.7347V57.6758C89.4873 57.6758 92.8141 57.4935 96.7151 57.1289ZM115.406 67.5195V70.6094H110.977V90.1055C110.977 91.3268 111.368 91.9375 112.152 91.9375C112.717 91.9375 113.055 91.5273 113.164 90.707L116.008 90.9805C115.224 93.8607 112.727 95.3008 108.516 95.3008C103.503 95.3008 100.996 93.168 100.996 88.9023V70.6094H97.6602V67.5195H100.996V62.6523C104.441 61.7044 107.768 60.3372 110.977 58.5508V67.5195H115.406ZM116.843 95V57.6758C119.797 57.6758 123.123 57.4844 126.824 57.1016V72.168C128.975 68.5404 132.01 66.7266 135.929 66.7266C140.56 66.7266 142.875 68.8047 142.875 72.9609V95H132.894V74.0547C132.894 72.4688 132.366 71.6758 131.308 71.6758C130.215 71.6758 129.194 72.6966 128.246 74.7383C127.298 76.7617 126.824 78.9401 126.824 81.2734V95H116.843ZM179.327 57.6758L189.718 95H178.835L176.62 86.9062H165.382L163.003 95H158.765L169.812 57.6758H179.327ZM166.448 83.1602H175.608L171.206 66.6172L166.448 83.1602ZM201.846 57.6758V95H191.018V57.6758H201.846Z" fill="white"/>
</svg>
