<svg width="412" height="372" viewBox="0 0 412 372" fill="none" xmlns="http://www.w3.org/2000/svg">
<path opacity="0.3" fill-rule="evenodd" clip-rule="evenodd" d="M394.658 110.033C403.793 110.033 411.199 102.627 411.199 93.4914L411.199 16.5412C411.199 7.40575 403.793 2.32873e-06 394.658 1.85184e-06L102.922 -1.33774e-05C93.7863 -1.38543e-05 86.3806 7.40572 86.3806 16.5412L86.3806 88.3049C86.3806 97.4403 78.9748 104.846 69.8394 104.846L16.5412 104.846C7.40571 104.846 -3.54243e-05 112.252 -3.58236e-05 121.387L-4.37441e-05 302.589C-4.41435e-05 311.724 7.40569 319.13 16.5411 319.13L70.1943 319.13C79.3298 319.13 86.7355 326.535 86.7355 335.671L86.7355 412.102C86.7355 421.238 94.1413 428.644 103.277 428.644L224.738 428.644C233.873 428.644 241.279 436.049 241.279 445.185L241.279 473.453C241.279 482.588 248.685 489.994 257.82 489.994L291.738 489.994C300.873 489.994 308.279 482.588 308.279 473.453L308.279 439.535C308.279 430.4 300.873 422.994 291.738 422.994L268.877 422.994C259.741 422.994 252.336 415.588 252.336 406.453L252.336 335.276C252.336 326.141 244.93 318.735 235.794 318.735L109.773 318.735C100.638 318.735 93.2322 311.329 93.2322 302.194L93.2322 126.574C93.2322 117.438 100.638 110.033 109.773 110.033L394.658 110.033Z" fill="black" fill-opacity="0.15"/>
</svg>
