<svg width="512" height="513" viewBox="0 0 512 513" fill="none" xmlns="http://www.w3.org/2000/svg">
<g clip-path="url(#clip0_1109_375)">
<rect width="512" height="512" transform="translate(0 0.711914)" fill="#EFEFEA"/>
<path d="M331.781 151.318C331.781 149.31 331.781 148.306 331.39 147.539C331.046 146.864 330.498 146.316 329.823 145.972C329.056 145.581 328.052 145.581 326.044 145.581H264.006C261.998 145.581 260.993 145.581 260.226 145.972C259.552 146.316 259.003 146.864 258.659 147.539C258.268 148.306 258.268 149.31 258.268 151.318V196.843C258.268 203.944 258.268 207.495 257.01 209.066C255.863 210.5 254.343 211.226 252.507 211.218C250.493 211.21 247.595 208.871 241.8 204.192C207.491 176.499 164.2 159.486 116.981 158.207C115.027 158.154 114.05 158.128 113.261 158.511C112.58 158.842 111.996 159.41 111.647 160.082C111.243 160.859 111.243 161.862 111.243 163.866V238.44C111.243 240.449 111.243 241.454 111.611 242.203C111.946 242.882 112.435 243.395 113.098 243.76C113.829 244.163 114.879 244.211 116.979 244.309C140.36 245.391 162.021 253.058 180.15 265.497C185.015 268.835 187.447 270.504 187.92 272.753C188.299 274.552 187.597 276.815 186.267 278.084C184.604 279.67 181.405 279.67 175.007 279.67H117.339C115.33 279.67 114.326 279.67 113.559 280.061C112.884 280.405 112.336 280.953 111.992 281.628C111.601 282.395 111.601 283.399 111.601 285.407V359.98C111.601 361.988 111.601 362.992 111.992 363.759C112.336 364.434 112.884 364.982 113.559 365.326C114.326 365.717 115.33 365.717 117.339 365.717H191.928C193.936 365.717 194.94 365.717 195.707 365.326C196.382 364.982 196.93 364.434 197.274 363.759C197.665 362.992 197.665 361.988 197.665 359.98V302.324C197.665 295.927 197.665 292.729 199.252 291.066C200.521 289.736 202.784 289.035 204.583 289.413C206.833 289.886 208.502 292.318 211.841 297.182C224.282 315.307 231.951 336.963 233.034 360.34C233.131 362.44 233.18 363.49 233.583 364.221C233.948 364.884 234.46 365.373 235.14 365.707C235.889 366.076 236.894 366.076 238.904 366.076H313.493C315.497 366.076 316.5 366.076 317.277 365.671C317.949 365.322 318.518 364.738 318.849 364.057C319.232 363.269 319.205 362.292 319.153 360.339C317.874 313.129 300.857 269.847 273.158 235.545C268.479 229.75 266.14 226.853 266.131 224.84C266.123 223.004 266.85 221.485 268.283 220.337C269.855 219.079 273.407 219.079 280.509 219.079H308.472C316.506 219.079 320.522 219.079 323.591 220.642C326.29 222.017 328.484 224.211 329.859 226.91C331.423 229.977 331.423 233.993 331.423 242.025V359.98C331.423 361.988 331.423 362.992 331.813 363.759C332.157 364.434 332.706 364.982 333.381 365.326C334.148 365.717 335.152 365.717 337.16 365.717H399.198C401.206 365.717 402.21 365.717 402.977 365.326C403.652 364.982 404.201 364.434 404.545 363.759C404.935 362.992 404.935 361.988 404.935 359.98V224.457C404.935 222.449 404.935 221.445 404.545 220.678C404.201 220.004 403.652 219.455 402.977 219.111C402.21 218.721 401.206 218.721 399.198 218.721H354.731C346.698 218.721 342.681 218.721 339.613 217.158C336.914 215.783 334.72 213.589 333.345 210.89C331.781 207.822 331.781 203.807 331.781 195.775V151.318Z" fill="#060907"/>
<g clip-path="url(#clip1_1109_375)">
<path opacity="0.2" fill-rule="evenodd" clip-rule="evenodd" d="M-43.5485 308.399C-43.5485 302.557 -48.2848 297.821 -54.1272 297.821L-76.2461 297.821C-82.0885 297.821 -86.8247 302.557 -86.8247 308.399L-86.8247 344.944C-86.8247 350.786 -82.0885 355.522 -76.2461 355.522L-55.2129 355.522C-49.3705 355.522 -44.6343 360.258 -44.6343 366.101L-44.6343 411.947C-44.6343 417.79 -39.8981 422.526 -34.0557 422.526L246.952 422.526C252.794 422.526 257.531 427.262 257.531 433.104L257.531 545.397C257.531 551.239 252.794 555.975 246.952 555.975L65.1403 555.975C59.2979 555.975 54.5617 560.712 54.5617 566.554L54.5617 615.766C54.5617 621.609 59.2979 626.345 65.1403 626.345L251.715 626.345C257.557 626.345 262.294 621.609 262.294 615.766L262.294 569.871C262.294 564.028 267.03 559.292 272.872 559.292L306.577 559.292C312.419 559.292 317.156 554.556 317.156 548.713L317.156 432.829C317.156 426.987 312.419 422.251 306.577 422.251L272.875 422.251C267.033 422.251 262.296 417.515 262.296 411.672L262.296 362.959C262.296 357.117 257.56 352.381 251.718 352.381L-32.9699 352.381C-38.8123 352.381 -43.5485 347.644 -43.5485 341.802L-43.5485 308.399Z" fill="black" fill-opacity="0.15"/>
<path opacity="0.2" fill-rule="evenodd" clip-rule="evenodd" d="M-98.8994 -107.661C-107.095 -107.661 -113.739 -114.305 -113.739 -122.5L-113.739 -191.536C-113.739 -199.732 -107.095 -206.376 -98.8994 -206.376L162.831 -206.376C171.027 -206.376 177.671 -199.732 177.671 -191.536L177.671 -127.153C177.671 -118.958 184.315 -112.314 192.511 -112.314L240.327 -112.314C248.523 -112.314 255.167 -105.669 255.167 -97.4737L255.167 65.0905C255.167 73.2863 248.523 79.9303 240.327 79.9303L192.192 79.9304C183.996 79.9304 177.352 86.5744 177.352 94.7702L177.352 163.341C177.352 171.536 170.708 178.181 162.512 178.181L53.5438 178.181C45.3479 178.181 38.7039 184.825 38.7039 193.02L38.7039 218.381C38.7039 226.577 32.0599 233.221 23.864 233.221L-6.56508 233.221C-14.7609 233.221 -21.405 226.577 -21.405 218.381L-21.405 187.952C-21.405 179.756 -14.7609 173.112 -6.5651 173.112L13.9446 173.112C22.1404 173.112 28.7844 166.468 28.7845 158.272L28.7845 94.4163C28.7845 86.2205 35.4285 79.5764 43.6243 79.5764L156.684 79.5764C164.88 79.5764 171.524 72.9324 171.524 64.7365L171.524 -92.8207C171.524 -101.017 164.88 -107.661 156.684 -107.661L-98.8994 -107.661Z" fill="black" fill-opacity="0.15"/>
<path opacity="0.09" d="M49.7716 199.78V198.638L53.3041 194.978C53.6813 194.58 53.9923 194.232 54.2369 193.933C54.485 193.631 54.6702 193.343 54.7925 193.072C54.9149 192.8 54.9761 192.511 54.9761 192.205C54.9761 191.858 54.8945 191.559 54.7314 191.308C54.5683 191.053 54.3457 190.858 54.0636 190.722C53.7816 190.582 53.4638 190.513 53.1104 190.513C52.7366 190.513 52.4104 190.589 52.1317 190.742C51.853 190.895 51.6389 191.111 51.4894 191.389C51.3399 191.668 51.2651 191.994 51.2651 192.368H49.7614C49.7614 191.733 49.9075 191.177 50.1998 190.701C50.492 190.226 50.893 189.857 51.4028 189.595C51.9125 189.33 52.4919 189.198 53.141 189.198C53.7969 189.198 54.3746 189.328 54.8741 189.59C55.3771 189.848 55.7696 190.202 56.0516 190.65C56.3337 191.095 56.4747 191.598 56.4747 192.159C56.4747 192.547 56.4016 192.925 56.2555 193.296C56.1128 193.666 55.863 194.079 55.5062 194.535C55.1494 194.987 54.6532 195.535 54.0177 196.181L51.9431 198.353V198.429H56.6429V199.78H49.7716ZM61.8935 199.953C61.0881 199.95 60.4 199.737 59.829 199.316C59.2581 198.895 58.8215 198.281 58.519 197.476C58.2166 196.67 58.0653 195.7 58.0653 194.565C58.0653 193.433 58.2166 192.467 58.519 191.665C58.8249 190.863 59.2632 190.251 59.8341 189.83C60.4085 189.408 61.0949 189.198 61.8935 189.198C62.6921 189.198 63.3769 189.41 63.9478 189.835C64.5187 190.256 64.9554 190.868 65.2578 191.67C65.5637 192.468 65.7166 193.433 65.7166 194.565C65.7166 195.704 65.5654 196.675 65.2629 197.481C64.9605 198.283 64.5238 198.896 63.9529 199.321C63.382 199.742 62.6955 199.953 61.8935 199.953ZM61.8935 198.592C62.6003 198.592 63.1526 198.247 63.5502 197.557C63.9512 196.867 64.1517 195.87 64.1517 194.565C64.1517 193.699 64.0599 192.966 63.8764 192.368C63.6963 191.767 63.4363 191.311 63.0965 191.002C62.7601 190.689 62.3591 190.533 61.8935 190.533C61.1901 190.533 60.6378 190.88 60.2368 191.573C59.8358 192.266 59.6336 193.264 59.6302 194.565C59.6302 195.435 59.7203 196.171 59.9004 196.772C60.0839 197.37 60.3439 197.824 60.6803 198.133C61.0167 198.439 61.4211 198.592 61.8935 198.592Z" fill="black"/>
</g>
<g clip-path="url(#clip2_1109_375)">
<path opacity="0.2" fill-rule="evenodd" clip-rule="evenodd" d="M449.614 82.6495C449.614 74.7826 443.236 68.4053 435.369 68.4053L368.681 68.4053C360.814 68.4053 354.437 74.7826 354.437 82.6495L354.437 332.629C354.437 340.496 360.814 346.874 368.681 346.874L430.509 346.874C438.375 346.874 444.753 353.251 444.753 361.118L444.753 405.842C444.753 413.709 451.13 420.087 458.997 420.087L615.036 420.087C622.903 420.087 629.281 413.709 629.281 405.842L629.281 354.045C629.281 346.178 622.903 339.801 615.036 339.801L463.858 339.801C455.991 339.801 449.614 333.423 449.614 325.557L449.614 82.6495ZM814.702 157.663C822.569 157.663 828.947 151.285 828.947 143.418L828.947 113.35C828.947 105.483 822.569 99.1053 814.702 99.1053L732.965 99.1053C725.098 99.1053 718.721 105.483 718.721 113.35L718.721 143.272C718.721 151.139 712.344 157.516 704.477 157.516L644.383 157.516C636.517 157.516 630.139 163.894 630.139 171.76L630.139 332.565C630.139 340.432 636.517 346.809 644.383 346.809L710.965 346.809C718.832 346.809 725.209 340.432 725.209 332.565L725.209 171.907C725.209 164.04 731.586 157.663 739.453 157.663L814.702 157.663Z" fill="black" fill-opacity="0.15"/>
</g>
</g>
<defs>
<clipPath id="clip0_1109_375">
<rect width="512" height="512" fill="white" transform="translate(0 0.711914)"/>
</clipPath>
<clipPath id="clip1_1109_375">
<rect width="1659.72" height="807.432" fill="white" transform="translate(-1284.52 -159.725)"/>
</clipPath>
<clipPath id="clip2_1109_375">
<rect width="1659.72" height="807.432" fill="white" transform="translate(420.825 -146.91)"/>
</clipPath>
</defs>
</svg>
