<svg width="256" height="257" viewBox="0 0 256 257" fill="none" xmlns="http://www.w3.org/2000/svg">
<rect y="0.5" width="256" height="256" rx="51.2" fill="#EFEFEA"/>
<path d="M165.704 75.7185C165.704 74.7157 165.704 74.2143 165.509 73.8312C165.337 73.4943 165.063 73.2204 164.726 73.0487C164.343 72.8535 163.841 72.8535 162.838 72.8535H131.854C130.851 72.8535 130.35 72.8535 129.967 73.0487C129.63 73.2204 129.356 73.4943 129.184 73.8312C128.989 74.2143 128.989 74.7157 128.989 75.7185V98.4556C128.989 102.002 128.989 103.776 128.36 104.561C127.787 105.276 127.028 105.639 126.111 105.635C125.106 105.631 123.658 104.463 120.764 102.126C103.629 88.2952 82.0073 79.7981 58.4243 79.1595C57.4485 79.133 56.9605 79.1198 56.5669 79.3111C56.2267 79.4763 55.9349 79.7603 55.7605 80.0958C55.5586 80.4841 55.5586 80.9846 55.5586 81.9857V119.231C55.5586 120.234 55.5586 120.736 55.7427 121.11C55.9097 121.45 56.154 121.705 56.4852 121.888C56.8503 122.089 57.3748 122.113 58.4238 122.162C70.101 122.703 80.9193 126.532 89.9735 132.744C92.4031 134.411 93.6179 135.245 93.8542 136.368C94.0432 137.267 93.6927 138.397 93.0284 139.03C92.1979 139.823 90.6003 139.823 87.405 139.823H58.6032C57.6002 139.823 57.0987 139.823 56.7156 140.018C56.3786 140.19 56.1046 140.464 55.9329 140.801C55.7377 141.184 55.7377 141.685 55.7377 142.688V179.933C55.7377 180.936 55.7377 181.437 55.9329 181.82C56.1046 182.157 56.3786 182.431 56.7156 182.603C57.0987 182.798 57.6002 182.798 58.6032 182.798H95.8557C96.8587 182.798 97.3602 182.798 97.7433 182.603C98.0803 182.431 98.3543 182.157 98.526 181.82C98.7212 181.437 98.7212 180.936 98.7212 179.933V151.137C98.7212 147.942 98.7212 146.345 99.5137 145.514C100.148 144.85 101.278 144.5 102.176 144.689C103.3 144.925 104.134 146.139 105.801 148.569C112.015 157.621 115.845 168.437 116.386 180.112C116.434 181.161 116.459 181.685 116.66 182.05C116.842 182.382 117.098 182.626 117.438 182.793C117.812 182.977 118.313 182.977 119.317 182.977H156.57C157.571 182.977 158.072 182.977 158.46 182.775C158.796 182.601 159.08 182.309 159.245 181.969C159.436 181.575 159.423 181.087 159.397 180.112C158.758 156.533 150.259 134.916 136.425 117.785C134.089 114.891 132.92 113.444 132.916 112.438C132.912 111.521 133.275 110.763 133.991 110.19C134.776 109.561 136.549 109.561 140.097 109.561H154.063C158.075 109.561 160.081 109.561 161.613 110.342C162.961 111.029 164.057 112.124 164.744 113.472C165.525 115.004 165.525 117.01 165.525 121.021V179.933C165.525 180.936 165.525 181.437 165.72 181.82C165.892 182.157 166.166 182.431 166.503 182.603C166.886 182.798 167.387 182.798 168.39 182.798H199.374C200.377 182.798 200.879 182.798 201.262 182.603C201.599 182.431 201.873 182.157 202.045 181.82C202.24 181.437 202.24 180.936 202.24 179.933V112.247C202.24 111.244 202.24 110.743 202.045 110.36C201.873 110.023 201.599 109.749 201.262 109.577C200.879 109.382 200.377 109.382 199.374 109.382H177.166C173.154 109.382 171.148 109.382 169.615 108.602C168.267 107.915 167.172 106.819 166.485 105.471C165.704 103.939 165.704 101.934 165.704 97.9221V75.7185Z" fill="#060907"/>
</svg>
