<svg width="64" height="64" viewBox="0 0 64 64" fill="none" xmlns="http://www.w3.org/2000/svg">
<rect width="64" height="64" rx="12.8" fill="#EFEFEA"/>
<path d="M41.426 18.8046C41.426 18.5539 41.426 18.4286 41.3772 18.3328C41.3342 18.2486 41.2657 18.1801 41.1815 18.1372C41.0857 18.0884 40.9603 18.0884 40.7096 18.0884H32.9636C32.7128 18.0884 32.5874 18.0884 32.4917 18.1372C32.4074 18.1801 32.3389 18.2486 32.296 18.3328C32.2472 18.4286 32.2472 18.5539 32.2472 18.8046V24.4889C32.2472 25.3756 32.2472 25.8189 32.0901 26.0151C31.9468 26.1941 31.7571 26.2848 31.5278 26.2838C31.2764 26.2827 30.9146 25.9907 30.191 25.4066C25.9072 21.9488 20.5018 19.8245 14.6061 19.6649C14.3621 19.6583 14.2401 19.655 14.1417 19.7028C14.0567 19.7441 13.9837 19.8151 13.9401 19.8989C13.8896 19.996 13.8896 20.1212 13.8896 20.3714V29.6827C13.8896 29.9336 13.8896 30.0591 13.9357 30.1526C13.9774 30.2374 14.0385 30.3013 14.1213 30.347C14.2126 30.3972 14.3437 30.4033 14.6059 30.4155C17.5253 30.5507 20.2298 31.5079 22.4934 33.0611C23.1008 33.4778 23.4045 33.6862 23.4636 33.967C23.5108 34.1916 23.4232 34.4741 23.2571 34.6326C23.0495 34.8307 22.6501 34.8307 21.8512 34.8307H14.6508C14.4 34.8307 14.2747 34.8307 14.1789 34.8795C14.0946 34.9224 14.0262 34.9909 13.9832 35.0751C13.9344 35.1709 13.9344 35.2962 13.9344 35.547V44.8582C13.9344 45.1089 13.9344 45.2343 13.9832 45.33C14.0262 45.4142 14.0946 45.4827 14.1789 45.5256C14.2747 45.5744 14.4 45.5744 14.6508 45.5744H23.9639C24.2147 45.5744 24.3401 45.5744 24.4358 45.5256C24.5201 45.4827 24.5886 45.4142 24.6315 45.33C24.6803 45.2343 24.6803 45.1089 24.6803 44.8582V37.6592C24.6803 36.8605 24.6803 36.4612 24.8784 36.2536C25.0369 36.0876 25.3195 35.9999 25.5441 36.0472C25.825 36.1062 26.0334 36.4099 26.4502 37.0171C28.0037 39.2802 28.9612 41.9843 29.0964 44.903C29.1086 45.1652 29.1146 45.2963 29.1649 45.3876C29.2106 45.4704 29.2745 45.5315 29.3594 45.5732C29.4529 45.6192 29.5784 45.6192 29.8294 45.6192H39.1425C39.3928 45.6192 39.518 45.6192 39.615 45.5687C39.6989 45.5251 39.7699 45.4522 39.8113 45.3672C39.8591 45.2688 39.8558 45.1468 39.8492 44.9029C39.6895 39.0084 37.5648 33.6041 34.1064 29.3212C33.5221 28.5977 33.23 28.2359 33.2289 27.9846C33.228 27.7553 33.3187 27.5656 33.4977 27.4224C33.6939 27.2653 34.1374 27.2653 35.0242 27.2653H38.5157C39.5187 27.2653 40.0202 27.2653 40.4033 27.4605C40.7403 27.6322 41.0143 27.9061 41.186 28.243C41.3812 28.6261 41.3812 29.1275 41.3812 30.1303V44.8582C41.3812 45.1089 41.3812 45.2343 41.43 45.33C41.4729 45.4142 41.5414 45.4827 41.6257 45.5256C41.7214 45.5744 41.8468 45.5744 42.0976 45.5744H49.8436C50.0943 45.5744 50.2197 45.5744 50.3155 45.5256C50.3997 45.4827 50.4682 45.4142 50.5112 45.33C50.56 45.2343 50.56 45.1089 50.56 44.8582V27.9368C50.56 27.6861 50.56 27.5607 50.5112 27.465C50.4682 27.3807 50.3997 27.3123 50.3155 27.2693C50.2197 27.2206 50.0943 27.2206 49.8436 27.2206H44.2915C43.2885 27.2206 42.787 27.2206 42.4038 27.0254C42.0669 26.8537 41.7929 26.5798 41.6212 26.2428C41.426 25.8598 41.426 25.3584 41.426 24.3555V18.8046Z" fill="#060907"/>
</svg>
