<svg width="1440" height="946" viewBox="0 0 1440 946" fill="none" xmlns="http://www.w3.org/2000/svg">
<g clip-path="url(#clip0_3054_350)">
<path opacity="0.2" fill-rule="evenodd" clip-rule="evenodd" d="M-48.1306 636.444C-48.0518 645.213 -55.0961 652.385 -63.8645 652.464L-138.196 653.132C-146.964 653.211 -154.136 646.167 -154.215 637.399L-156.721 358.771C-156.8 350.003 -149.755 342.83 -140.987 342.752L-72.0735 342.132C-63.3051 342.053 -56.2608 334.881 -56.3396 326.112L-56.7879 276.263C-56.8668 267.494 -49.8225 260.322 -41.0541 260.243L132.867 258.679C141.636 258.601 148.808 265.645 148.887 274.413L149.406 332.147C149.485 340.915 142.441 348.087 133.672 348.166L-34.8316 349.681C-43.6 349.76 -50.6443 356.932 -50.5654 365.701L-48.1306 636.444ZM358.046 549.175C366.815 549.097 373.987 556.141 374.066 564.909L374.367 598.424C374.446 607.192 367.402 614.365 358.633 614.443L267.529 615.263C258.76 615.342 251.588 608.297 251.509 599.529L251.209 566.177C251.131 557.409 243.958 550.364 235.19 550.443L168.211 551.045C159.442 551.124 152.27 544.08 152.191 535.312L150.579 356.079C150.5 347.311 157.545 340.138 166.313 340.06L240.525 339.392C249.293 339.313 256.465 346.358 256.544 355.126L258.155 534.196C258.233 542.964 265.406 550.008 274.174 549.93L358.046 549.175Z" fill="black" fill-opacity="0.15"/>
<g opacity="0.2">
<mask id="path-2-inside-1_3054_350" fill="white">
<path fill-rule="evenodd" clip-rule="evenodd" d="M1074.83 434.092C1074.75 425.324 1081.79 418.152 1090.56 418.073L1164.89 417.404C1173.66 417.325 1180.83 424.37 1180.91 433.138L1183.42 711.766C1183.5 720.534 1176.45 727.706 1167.68 727.785L1098.77 728.405C1090 728.484 1082.96 735.656 1083.04 744.424L1083.49 794.275C1083.56 803.043 1076.52 810.215 1067.75 810.294L893.83 811.858C885.061 811.937 877.889 804.893 877.81 796.124L877.291 738.391C877.212 729.623 884.257 722.45 893.025 722.372L1061.53 720.856C1070.3 720.777 1077.34 713.605 1077.26 704.837L1074.83 434.092ZM668.651 521.362C659.883 521.441 652.711 514.397 652.632 505.628L652.33 472.114C652.251 463.345 659.296 456.173 668.064 456.094L759.168 455.275C767.937 455.196 775.109 462.24 775.188 471.009L775.488 504.361C775.567 513.129 782.739 520.173 791.507 520.095L858.487 519.492C867.255 519.413 874.427 526.458 874.506 535.226L876.118 714.459C876.197 723.227 869.152 730.399 860.384 730.478L786.173 731.145C777.404 731.224 770.232 724.18 770.153 715.412L768.543 536.342C768.464 527.573 761.292 520.529 752.523 520.608L668.651 521.362Z"/>
</mask>
<path d="M858.487 519.492L858.499 520.892L858.487 519.492ZM759.168 455.275L759.181 456.675L759.168 455.275ZM652.632 505.628L654.032 505.616L652.632 505.628ZM668.651 521.362L668.664 522.762L668.651 521.362ZM652.33 472.114L650.93 472.126L652.33 472.114ZM668.064 456.094L668.077 457.494L668.064 456.094ZM877.291 738.391L878.691 738.378L877.291 738.391ZM877.81 796.124L876.41 796.137L877.81 796.124ZM1090.56 418.073L1090.57 419.473L1090.56 418.073ZM1164.91 418.804L1090.57 419.473L1090.55 416.673L1164.88 416.004L1164.91 418.804ZM1182.02 711.778L1179.51 433.151L1182.31 433.126L1184.82 711.753L1182.02 711.778ZM1098.76 727.005L1167.67 726.385L1167.7 729.185L1098.78 729.805L1098.76 727.005ZM1082.09 794.287L1081.64 744.437L1084.44 744.412L1084.89 794.262L1082.09 794.287ZM893.817 810.458L1067.74 808.894L1067.76 811.694L893.842 813.258L893.817 810.458ZM878.691 738.378L879.21 796.112L876.41 796.137L875.891 738.404L878.691 738.378ZM1061.54 722.256L893.038 723.772L893.012 720.972L1061.52 719.456L1061.54 722.256ZM1076.23 434.08L1078.66 704.824L1075.86 704.849L1073.43 434.105L1076.23 434.08ZM653.73 472.101L654.032 505.616L651.232 505.641L650.93 472.126L653.73 472.101ZM759.181 456.675L668.077 457.494L668.052 454.694L759.156 453.875L759.181 456.675ZM774.088 504.373L773.788 471.021L776.588 470.996L776.888 504.348L774.088 504.373ZM858.499 520.892L791.52 521.494L791.495 518.695L858.474 518.092L858.499 520.892ZM874.718 714.471L873.106 535.239L875.906 535.213L877.518 714.446L874.718 714.471ZM786.16 729.745L860.371 729.078L860.397 731.878L786.185 732.545L786.16 729.745ZM769.943 536.329L771.553 715.399L768.753 715.424L767.143 536.354L769.943 536.329ZM668.639 519.962L752.511 519.208L752.536 522.008L668.664 522.762L668.639 519.962ZM767.143 536.354C767.071 528.359 760.531 521.936 752.536 522.008L752.511 519.208C762.052 519.122 769.857 526.788 769.943 536.329L767.143 536.354ZM786.185 732.545C776.644 732.631 768.839 724.966 768.753 715.424L771.553 715.399C771.625 723.394 778.165 729.817 786.16 729.745L786.185 732.545ZM877.518 714.446C877.604 723.988 869.938 731.792 860.397 731.878L860.371 729.078C868.367 729.006 874.79 722.466 874.718 714.471L877.518 714.446ZM858.474 518.092C868.016 518.006 875.82 525.672 875.906 535.213L873.106 535.239C873.034 527.243 866.494 520.82 858.499 520.892L858.474 518.092ZM776.888 504.348C776.96 512.343 783.499 518.766 791.495 518.695L791.52 521.494C781.978 521.58 774.174 513.915 774.088 504.373L776.888 504.348ZM759.156 453.875C768.697 453.789 776.502 461.454 776.588 470.996L773.788 471.021C773.716 463.026 767.176 456.603 759.181 456.675L759.156 453.875ZM654.032 505.616C654.104 513.611 660.643 520.034 668.639 519.962L668.664 522.762C659.122 522.848 651.318 515.183 651.232 505.641L654.032 505.616ZM650.93 472.126C650.845 462.585 658.51 454.78 668.052 454.694L668.077 457.494C660.081 457.566 653.658 464.106 653.73 472.101L650.93 472.126ZM1061.52 719.456C1069.51 719.384 1075.93 712.845 1075.86 704.849L1078.66 704.824C1078.75 714.366 1071.08 722.17 1061.54 722.256L1061.52 719.456ZM875.891 738.404C875.805 728.862 883.471 721.057 893.012 720.972L893.038 723.772C885.042 723.843 878.619 730.383 878.691 738.378L875.891 738.404ZM893.842 813.258C884.301 813.344 876.496 805.679 876.41 796.137L879.21 796.112C879.282 804.107 885.822 810.53 893.817 810.458L893.842 813.258ZM1084.89 794.262C1084.97 803.804 1077.31 811.608 1067.76 811.694L1067.74 808.894C1075.73 808.822 1082.16 802.283 1082.09 794.287L1084.89 794.262ZM1098.78 729.805C1090.79 729.877 1084.36 736.416 1084.44 744.412L1081.64 744.437C1081.55 734.895 1089.22 727.091 1098.76 727.005L1098.78 729.805ZM1184.82 711.753C1184.9 721.295 1177.24 729.099 1167.7 729.185L1167.67 726.385C1175.67 726.313 1182.09 719.773 1182.02 711.778L1184.82 711.753ZM1090.57 419.473C1082.58 419.545 1076.16 426.084 1076.23 434.08L1073.43 434.105C1073.34 424.563 1081.01 416.759 1090.55 416.673L1090.57 419.473ZM1164.88 416.004C1174.42 415.919 1182.23 423.584 1182.31 433.126L1179.51 433.151C1179.44 425.155 1172.9 418.732 1164.91 418.804L1164.88 416.004Z" fill="black" fill-opacity="0.15" mask="url(#path-2-inside-1_3054_350)"/>
</g>
<path opacity="0.2" fill-rule="evenodd" clip-rule="evenodd" d="M1300.57 358.39C1300.63 364.902 1295.4 370.228 1288.89 370.287L1264.23 370.509C1257.72 370.567 1252.4 365.336 1252.34 358.824L1251.97 318.092C1251.91 311.58 1257.14 306.253 1263.66 306.195L1287.1 305.984C1293.61 305.925 1298.84 300.599 1298.78 294.087L1298.32 242.987C1298.27 236.475 1303.5 231.148 1310.01 231.09L1623.22 228.273C1629.73 228.214 1634.97 222.888 1634.91 216.376L1633.78 91.215C1633.72 84.703 1628.4 79.4715 1621.88 79.5301L1419.24 81.3525C1412.72 81.4111 1407.4 76.1796 1407.34 69.6676L1406.85 14.8158C1406.79 8.30389 1412.02 2.97743 1418.53 2.91887L1626.49 1.04868C1633 0.990121 1638.33 6.22163 1638.38 12.7336L1638.84 63.8894C1638.9 70.4013 1644.23 75.6328 1650.74 75.5743L1688.31 75.2364C1694.82 75.1779 1700.15 80.4093 1700.21 86.9213L1701.37 216.086C1701.43 222.597 1696.19 227.924 1689.68 227.982L1652.12 228.32C1645.61 228.379 1640.37 233.705 1640.43 240.217L1640.92 294.512C1640.98 301.024 1635.75 306.35 1629.24 306.409L1311.92 309.263C1305.41 309.321 1300.18 314.648 1300.24 321.16L1300.57 358.39Z" fill="black" fill-opacity="0.15"/>
<g opacity="0.2">
<mask id="path-5-inside-2_3054_350" fill="white">
<path fill-rule="evenodd" clip-rule="evenodd" d="M809.56 379.203C809.501 372.691 814.733 367.365 821.245 367.306L845.898 367.084C852.41 367.026 857.737 372.257 857.795 378.769L858.162 419.501C858.22 426.013 852.989 431.34 846.477 431.398L823.033 431.609C816.521 431.668 811.29 436.994 811.348 443.506L811.808 494.606C811.866 501.118 806.635 506.445 800.123 506.503L486.911 509.32C480.399 509.379 475.167 514.705 475.226 521.217L476.351 646.378C476.41 652.89 481.736 658.122 488.248 658.063L690.896 656.241C697.408 656.182 702.735 661.413 702.793 667.925L703.286 722.777C703.345 729.289 698.113 734.616 691.602 734.674L483.646 736.544C477.134 736.603 471.807 731.371 471.749 724.859L471.289 673.704C471.23 667.192 465.904 661.96 459.392 662.019L421.824 662.357C415.312 662.415 409.985 657.184 409.927 650.672L408.765 521.508C408.707 514.996 413.938 509.669 420.45 509.611L458.015 509.273C464.527 509.214 469.759 503.888 469.7 497.376L469.212 443.081C469.153 436.569 474.385 431.243 480.897 431.184L798.21 428.33C804.722 428.272 809.953 422.945 809.895 416.433L809.56 379.203Z"/>
</mask>
<path d="M469.212 443.081L467.812 443.094L469.212 443.081ZM458.015 509.273L458.028 510.673L458.015 509.273ZM469.7 497.376L471.1 497.363L469.7 497.376ZM408.765 521.508L410.165 521.495L408.765 521.508ZM420.45 509.611L420.437 508.211L420.45 509.611ZM421.824 662.357L421.811 660.957L421.824 662.357ZM409.927 650.672L408.527 650.684L409.927 650.672ZM471.289 673.704L472.688 673.691L471.289 673.704ZM459.392 662.019L459.404 663.419L459.392 662.019ZM471.749 724.859L470.349 724.872L471.749 724.859ZM703.286 722.777L704.686 722.765L703.286 722.777ZM690.896 656.241L690.909 657.64L690.896 656.241ZM702.793 667.925L701.393 667.938L702.793 667.925ZM476.351 646.378L477.751 646.366L476.351 646.378ZM475.226 521.217L473.826 521.23L475.226 521.217ZM823.033 431.609L823.046 433.009L823.033 431.609ZM858.162 419.501L859.562 419.489L858.162 419.501ZM846.477 431.398L846.464 429.999L846.477 431.398ZM857.795 378.769L856.395 378.782L857.795 378.769ZM845.911 368.484L821.257 368.706L821.232 365.906L845.886 365.684L845.911 368.484ZM856.762 419.514L856.395 378.782L859.195 378.757L859.562 419.489L856.762 419.514ZM823.021 430.209L846.464 429.999L846.489 432.798L823.046 433.009L823.021 430.209ZM810.408 494.619L809.948 443.519L812.748 443.494L813.208 494.594L810.408 494.619ZM486.898 507.92L800.11 505.103L800.136 507.903L486.923 510.72L486.898 507.92ZM474.952 646.391L473.826 521.23L476.626 521.204L477.751 646.366L474.952 646.391ZM690.909 657.64L488.261 659.463L488.236 656.663L690.884 654.841L690.909 657.64ZM701.886 722.79L701.393 667.938L704.193 667.913L704.686 722.765L701.886 722.79ZM483.633 735.144L691.589 733.274L691.614 736.074L483.658 737.944L483.633 735.144ZM472.688 673.691L473.148 724.847L470.349 724.872L469.889 673.716L472.688 673.691ZM421.811 660.957L459.379 660.619L459.404 663.419L421.836 663.757L421.811 660.957ZM410.165 521.495L411.327 650.659L408.527 650.684L407.365 521.52L410.165 521.495ZM458.028 510.673L420.463 511.01L420.437 508.211L458.003 507.873L458.028 510.673ZM470.612 443.068L471.1 497.363L468.3 497.388L467.812 443.094L470.612 443.068ZM798.222 429.73L480.909 432.584L480.884 429.784L798.197 426.93L798.222 429.73ZM810.96 379.19L811.295 416.421L808.495 416.446L808.16 379.216L810.96 379.19ZM798.197 426.93C803.936 426.879 808.546 422.185 808.495 416.446L811.295 416.421C811.36 423.706 805.507 429.665 798.222 429.73L798.197 426.93ZM467.812 443.094C467.747 435.808 473.599 429.85 480.884 429.784L480.909 432.584C475.171 432.636 470.56 437.33 470.612 443.068L467.812 443.094ZM458.003 507.873C463.742 507.821 468.352 503.127 468.3 497.388L471.1 497.363C471.166 504.648 465.313 510.607 458.028 510.673L458.003 507.873ZM407.365 521.52C407.3 514.235 413.152 508.276 420.437 508.211L420.463 511.01C414.724 511.062 410.113 515.756 410.165 521.495L407.365 521.52ZM421.836 663.757C414.551 663.822 408.592 657.969 408.527 650.684L411.327 650.659C411.378 656.398 416.072 661.008 421.811 660.957L421.836 663.757ZM469.889 673.716C469.837 667.977 465.143 663.367 459.404 663.419L459.379 660.619C466.664 660.553 472.623 666.406 472.688 673.691L469.889 673.716ZM483.658 737.944C476.373 738.01 470.414 732.157 470.349 724.872L473.148 724.847C473.2 730.586 477.894 735.196 483.633 735.144L483.658 737.944ZM704.686 722.765C704.752 730.05 698.899 736.009 691.614 736.074L691.589 733.274C697.328 733.223 701.938 728.529 701.886 722.79L704.686 722.765ZM690.884 654.841C698.169 654.775 704.128 660.628 704.193 667.913L701.393 667.938C701.342 662.199 696.648 657.589 690.909 657.64L690.884 654.841ZM477.751 646.366C477.803 652.104 482.497 656.715 488.236 656.663L488.261 659.463C480.976 659.528 475.017 653.676 474.952 646.391L477.751 646.366ZM486.923 510.72C481.185 510.772 476.574 515.466 476.626 521.204L473.826 521.23C473.76 513.944 479.613 507.986 486.898 507.92L486.923 510.72ZM813.208 494.594C813.273 501.879 807.421 507.838 800.136 507.903L800.11 505.103C805.849 505.052 810.46 500.358 810.408 494.619L813.208 494.594ZM823.046 433.009C817.307 433.061 812.697 437.755 812.748 443.494L809.948 443.519C809.883 436.234 815.736 430.275 823.021 430.209L823.046 433.009ZM859.562 419.489C859.627 426.774 853.775 432.733 846.489 432.798L846.464 429.999C852.203 429.947 856.813 425.253 856.762 419.514L859.562 419.489ZM821.257 368.706C815.518 368.758 810.908 373.452 810.96 379.19L808.16 379.216C808.094 371.93 813.947 365.972 821.232 365.906L821.257 368.706ZM845.886 365.684C853.171 365.619 859.13 371.471 859.195 378.757L856.395 378.782C856.344 373.043 851.65 368.433 845.911 368.484L845.886 365.684Z" fill="black" fill-opacity="0.15" mask="url(#path-5-inside-2_3054_350)"/>
</g>
<path opacity="0.2" fill-rule="evenodd" clip-rule="evenodd" d="M1243.05 822.686C1233.91 822.768 1226.58 830.24 1226.66 839.375L1227.35 916.323C1227.43 925.458 1234.9 932.796 1244.04 932.714L1535.76 930.091C1544.9 930.009 1552.24 922.537 1552.15 913.402L1551.51 841.64C1551.43 832.505 1558.77 825.033 1567.9 824.951L1621.2 824.472C1630.33 824.39 1637.67 816.918 1637.59 807.783L1635.96 626.589C1635.88 617.454 1628.41 610.115 1619.27 610.197L1565.62 610.679C1556.48 610.761 1549.01 603.423 1548.93 594.288L1548.24 517.859C1548.16 508.724 1540.69 501.385 1531.55 501.467L1410.1 502.559C1400.96 502.642 1393.49 495.303 1393.41 486.168L1393.15 457.902C1393.07 448.767 1385.6 441.428 1376.46 441.51L1342.55 441.815C1333.41 441.897 1326.07 449.369 1326.15 458.504L1326.46 492.42C1326.54 501.555 1334.01 508.894 1343.15 508.812L1366.01 508.607C1375.15 508.524 1382.62 515.863 1382.7 524.998L1383.34 596.171C1383.42 605.306 1390.89 612.645 1400.03 612.563L1526.05 611.43C1535.18 611.347 1542.65 618.686 1542.73 627.821L1544.31 803.435C1544.4 812.57 1537.06 820.042 1527.92 820.124L1243.05 822.686Z" fill="black" fill-opacity="0.15"/>
<path opacity="0.2" fill-rule="evenodd" clip-rule="evenodd" d="M730.18 244.846C739.315 244.764 746.654 237.292 746.572 228.157L746.151 181.308C746.069 172.173 738.597 164.834 729.461 164.916L670.212 165.449C661.076 165.531 653.738 173.003 653.82 182.138L654.215 226.098C654.297 235.233 646.958 242.705 637.823 242.787L617.036 242.974C607.901 243.056 600.562 250.528 600.644 259.663L600.859 283.58C600.942 292.715 608.414 300.054 617.549 299.972L638.465 299.783C647.601 299.701 654.939 292.229 654.857 283.094L654.668 262.067C654.586 252.932 661.925 245.46 671.06 245.378L730.18 244.846Z" fill="black" fill-opacity="0.1"/>
<path opacity="0.1" d="M225.177 572.975C224.465 572.975 223.825 572.839 223.257 572.566C222.692 572.29 222.242 571.911 221.905 571.43C221.567 570.949 221.387 570.399 221.365 569.782L223.069 569.782C223.111 570.282 223.333 570.693 223.734 571.015C224.136 571.337 224.617 571.498 225.177 571.498C225.624 571.498 226.02 571.396 226.365 571.191C226.713 570.983 226.986 570.697 227.183 570.333C227.384 569.97 227.484 569.555 227.484 569.089C227.484 568.615 227.382 568.193 227.177 567.822C226.973 567.451 226.691 567.159 226.331 566.947C225.975 566.735 225.566 566.627 225.103 566.623C224.751 566.623 224.397 566.684 224.041 566.805C223.685 566.926 223.397 567.085 223.177 567.282L221.569 567.043L222.223 561.18L228.62 561.18L228.62 562.685L223.683 562.685L223.314 565.941L223.382 565.941C223.609 565.721 223.91 565.538 224.285 565.39C224.664 565.242 225.069 565.168 225.501 565.168C226.209 565.168 226.84 565.337 227.393 565.674C227.95 566.011 228.387 566.471 228.706 567.055C229.028 567.634 229.187 568.301 229.183 569.055C229.187 569.809 229.016 570.481 228.672 571.072C228.331 571.663 227.857 572.129 227.251 572.47C226.649 572.807 225.958 572.975 225.177 572.975ZM234.957 573.009C234.06 573.006 233.293 572.769 232.656 572.299C232.02 571.829 231.533 571.146 231.196 570.248C230.859 569.35 230.69 568.269 230.69 567.004C230.69 565.742 230.859 564.665 231.196 563.771C231.537 562.877 232.026 562.195 232.662 561.725C233.302 561.256 234.067 561.021 234.957 561.021C235.847 561.021 236.611 561.257 237.247 561.731C237.883 562.201 238.37 562.882 238.707 563.776C239.048 564.667 239.219 565.742 239.219 567.004C239.219 568.273 239.05 569.356 238.713 570.254C238.376 571.148 237.889 571.831 237.253 572.305C236.616 572.774 235.851 573.009 234.957 573.009ZM234.957 571.492C235.745 571.492 236.361 571.108 236.804 570.339C237.251 569.57 237.474 568.458 237.474 567.004C237.474 566.038 237.372 565.221 237.168 564.555C236.967 563.884 236.677 563.377 236.298 563.032C235.923 562.684 235.476 562.509 234.957 562.509C234.173 562.509 233.558 562.896 233.111 563.668C232.664 564.441 232.438 565.553 232.435 567.004C232.435 567.973 232.535 568.793 232.736 569.464C232.94 570.131 233.23 570.636 233.605 570.981C233.98 571.322 234.431 571.492 234.957 571.492Z" fill="black"/>
</g>
<defs>
<clipPath id="clip0_3054_350">
<rect width="1859.3" height="928.189" fill="white" transform="matrix(0.99996 -0.00899282 -0.00899282 -0.99996 -151.446 945.264)"/>
</clipPath>
</defs>
</svg>
