<svg width="1440" height="816" viewBox="0 0 1440 816" fill="none" xmlns="http://www.w3.org/2000/svg">
<g clip-path="url(#clip0_3054_387)">
<path opacity="0.2" fill-rule="evenodd" clip-rule="evenodd" d="M-169.911 171.877C-169.911 163.108 -177.02 156 -185.789 156L-260.123 156C-268.891 156 -276 163.108 -276 171.877L-276 450.516C-276 459.285 -268.891 466.393 -260.123 466.393L-191.207 466.393C-182.438 466.393 -175.33 473.502 -175.33 482.271L-175.33 532.123C-175.33 540.892 -168.221 548 -159.452 548L14.4762 548C23.245 548 30.3535 540.891 30.3535 532.123L30.3535 474.387C30.3535 465.618 23.245 458.51 14.4762 458.51L-154.034 458.51C-162.803 458.51 -169.911 451.401 -169.911 442.632L-169.911 171.877ZM237.033 255.49C245.802 255.49 252.91 248.382 252.91 239.613L252.91 206.097C252.91 197.328 245.802 190.22 237.033 190.22L145.925 190.22C137.156 190.22 130.048 197.328 130.048 206.097L130.048 239.45C130.048 248.219 122.939 255.327 114.17 255.327L47.1878 255.327C38.419 255.327 31.3105 262.436 31.3105 271.204L31.3105 450.444C31.3105 459.213 38.4191 466.322 47.1878 466.322L121.402 466.322C130.171 466.322 137.28 459.213 137.28 450.444L137.28 271.368C137.28 262.599 144.388 255.49 153.157 255.49L237.033 255.49Z" fill="black" fill-opacity="0.15"/>
<g opacity="0.2">
<mask id="path-2-inside-1_3054_387" fill="white">
<path fill-rule="evenodd" clip-rule="evenodd" d="M954.821 364.123C954.821 372.891 961.93 380 970.699 380L1045.03 380C1053.8 380 1060.91 372.892 1060.91 364.123L1060.91 85.484C1060.91 76.7152 1053.8 69.6067 1045.03 69.6067L976.117 69.6067C967.348 69.6067 960.24 62.4982 960.24 53.7294L960.24 3.87753C960.24 -4.89127 953.131 -11.9998 944.362 -11.9998L770.434 -11.9998C761.665 -11.9998 754.557 -4.89127 754.557 3.8775L754.557 61.6132C754.557 70.3819 761.665 77.4904 770.434 77.4904L938.944 77.4904C947.713 77.4904 954.821 84.5989 954.821 93.3677L954.821 364.123ZM547.877 280.51C539.109 280.51 532 287.618 532 296.387L532 329.903C532 338.672 539.109 345.78 547.877 345.78L638.985 345.78C647.754 345.78 654.863 338.672 654.863 329.903L654.863 296.55C654.863 287.781 661.971 280.673 670.74 280.673L737.722 280.673C746.491 280.673 753.6 273.564 753.6 264.796L753.6 85.5557C753.6 76.787 746.491 69.6784 737.722 69.6784L663.508 69.6784C654.739 69.6784 647.631 76.7869 647.631 85.5557L647.631 264.632C647.631 273.401 640.522 280.51 631.753 280.51L547.877 280.51Z"/>
</mask>
<path d="M654.863 296.55L653.463 296.55L654.863 296.55ZM638.985 345.78L638.985 344.38L638.985 345.78ZM654.863 329.903L656.263 329.903L654.863 329.903ZM532 296.387L533.4 296.387L532 296.387ZM547.877 280.51L547.877 279.11L547.877 280.51ZM532 329.903L530.6 329.903L532 329.903ZM547.877 345.78L547.877 344.38L547.877 345.78ZM770.434 -11.9998L770.434 -10.5998L770.434 -11.9998ZM944.362 -11.9998L944.362 -13.3997L944.362 -11.9998ZM1045.03 378.6L970.699 378.6L970.699 381.4L1045.03 381.4L1045.03 378.6ZM1059.51 85.484L1059.51 364.123L1062.31 364.123L1062.31 85.484L1059.51 85.484ZM976.117 71.0067L1045.03 71.0067L1045.03 68.2067L976.117 68.2067L976.117 71.0067ZM958.84 3.87753L958.84 53.7294L961.64 53.7294L961.64 3.87753L958.84 3.87753ZM770.434 -10.5998L944.362 -10.5998L944.362 -13.3997L770.434 -13.3998L770.434 -10.5998ZM755.957 61.6132L755.957 3.8775L753.157 3.8775L753.157 61.6132L755.957 61.6132ZM938.944 76.0905L770.434 76.0905L770.434 78.8904L938.944 78.8904L938.944 76.0905ZM956.221 364.123L956.221 93.3677L953.421 93.3677L953.421 364.123L956.221 364.123ZM533.4 329.903L533.4 296.387L530.6 296.387L530.6 329.903L533.4 329.903ZM638.985 344.38L547.877 344.38L547.877 347.18L638.985 347.18L638.985 344.38ZM653.463 296.55L653.463 329.903L656.263 329.903L656.263 296.55L653.463 296.55ZM737.722 279.273L670.74 279.273L670.74 282.073L737.722 282.073L737.722 279.273ZM752.2 85.5557L752.2 264.796L755 264.796L755 85.5557L752.2 85.5557ZM663.508 71.0784L737.722 71.0784L737.722 68.2784L663.508 68.2784L663.508 71.0784ZM649.031 264.632L649.031 85.5557L646.231 85.5557L646.231 264.632L649.031 264.632ZM547.877 281.91L631.753 281.91L631.753 279.11L547.877 279.11L547.877 281.91ZM646.231 264.632C646.231 272.628 639.749 279.11 631.753 279.11L631.753 281.91C641.295 281.91 649.031 274.174 649.031 264.632L646.231 264.632ZM663.508 68.2784C653.966 68.2784 646.231 76.0137 646.231 85.5557L649.031 85.5557C649.031 77.5602 655.512 71.0784 663.508 71.0784L663.508 68.2784ZM755 85.5557C755 76.0137 747.264 68.2784 737.722 68.2784L737.722 71.0784C745.718 71.0784 752.2 77.5602 752.2 85.5557L755 85.5557ZM737.722 282.073C747.264 282.073 755 274.338 755 264.796L752.2 264.796C752.2 272.791 745.718 279.273 737.722 279.273L737.722 282.073ZM656.263 296.55C656.263 288.555 662.744 282.073 670.74 282.073L670.74 279.273C661.198 279.273 653.463 287.008 653.463 296.55L656.263 296.55ZM638.985 347.18C648.527 347.18 656.263 339.445 656.263 329.903L653.463 329.903C653.463 337.899 646.981 344.38 638.985 344.38L638.985 347.18ZM533.4 296.387C533.4 288.391 539.882 281.91 547.877 281.91L547.877 279.11C538.335 279.11 530.6 286.845 530.6 296.387L533.4 296.387ZM530.6 329.903C530.6 339.445 538.335 347.18 547.877 347.18L547.877 344.38C539.882 344.38 533.4 337.899 533.4 329.903L530.6 329.903ZM938.944 78.8904C946.94 78.8904 953.421 85.3721 953.421 93.3677L956.221 93.3677C956.221 83.8257 948.486 76.0905 938.944 76.0905L938.944 78.8904ZM753.157 61.6132C753.157 71.1552 760.892 78.8904 770.434 78.8904L770.434 76.0905C762.438 76.0905 755.957 69.6087 755.957 61.6132L753.157 61.6132ZM770.434 -13.3998C760.892 -13.3998 753.157 -5.66449 753.157 3.8775L755.957 3.8775C755.957 -4.11807 762.438 -10.5998 770.434 -10.5998L770.434 -13.3998ZM961.64 3.87753C961.64 -5.66446 953.904 -13.3997 944.362 -13.3997L944.362 -10.5998C952.358 -10.5998 958.84 -4.11804 958.84 3.87753L961.64 3.87753ZM976.117 68.2067C968.121 68.2067 961.64 61.725 961.64 53.7294L958.84 53.7294C958.84 63.2714 966.575 71.0067 976.117 71.0067L976.117 68.2067ZM1062.31 85.484C1062.31 75.942 1054.57 68.2067 1045.03 68.2067L1045.03 71.0067C1053.03 71.0067 1059.51 77.4884 1059.51 85.484L1062.31 85.484ZM970.699 378.6C962.703 378.6 956.221 372.118 956.221 364.123L953.421 364.123C953.421 373.665 961.157 381.4 970.699 381.4L970.699 378.6ZM1045.03 381.4C1054.57 381.4 1062.31 373.665 1062.31 364.123L1059.51 364.123C1059.51 372.118 1053.03 378.6 1045.03 378.6L1045.03 381.4Z" fill="black" fill-opacity="0.15" mask="url(#path-2-inside-1_3054_387)"/>
</g>
<path opacity="0.2" fill-rule="evenodd" clip-rule="evenodd" d="M1181.24 437.792C1181.24 431.279 1175.96 426 1169.45 426L1144.79 426C1138.28 426 1133 431.279 1133 437.792L1133 478.526C1133 485.038 1138.28 490.317 1144.79 490.317L1168.24 490.317C1174.75 490.317 1180.03 495.596 1180.03 502.108L1180.03 553.211C1180.03 559.723 1185.31 565.002 1191.82 565.002L1505.04 565.002C1511.55 565.002 1516.83 570.281 1516.83 576.793L1516.83 701.959C1516.83 708.471 1511.55 713.751 1505.04 713.751L1302.39 713.751C1295.87 713.751 1290.6 719.03 1290.6 725.542L1290.6 780.396C1290.6 786.908 1295.87 792.187 1302.39 792.187L1510.35 792.187C1516.86 792.187 1522.14 786.908 1522.14 780.396L1522.14 729.239C1522.14 722.727 1527.42 717.448 1533.93 717.448L1571.5 717.448C1578.02 717.448 1583.29 712.168 1583.29 705.656L1583.29 576.487C1583.29 569.974 1578.02 564.695 1571.5 564.695L1533.94 564.695C1527.43 564.695 1522.15 559.416 1522.15 552.904L1522.15 498.606C1522.15 492.094 1516.87 486.815 1510.35 486.815L1193.03 486.815C1186.52 486.815 1181.24 481.536 1181.24 475.024L1181.24 437.792Z" fill="black" fill-opacity="0.15"/>
<g opacity="0.2">
<mask id="path-5-inside-2_3054_387" fill="white">
<path fill-rule="evenodd" clip-rule="evenodd" d="M690.057 421.396C690.057 427.908 695.337 433.187 701.849 433.187L726.503 433.187C733.016 433.187 738.295 427.908 738.295 421.396L738.295 380.662C738.295 374.15 733.016 368.871 726.503 368.871L703.059 368.871C696.547 368.871 691.268 363.591 691.268 357.079L691.268 305.977C691.268 299.465 685.988 294.186 679.476 294.186L366.252 294.186C359.74 294.186 354.461 288.906 354.461 282.394L354.461 157.228C354.461 150.716 359.74 145.437 366.252 145.437L568.908 145.437C575.42 145.437 580.699 140.158 580.699 133.645L580.699 78.7914C580.699 72.2792 575.42 67 568.908 67L360.943 67C354.431 67 349.152 72.2792 349.152 78.7914L349.152 129.949C349.152 136.461 343.873 141.74 337.361 141.74L299.792 141.74C293.279 141.74 288 147.019 288 153.531L288 282.701C288 289.213 293.279 294.492 299.792 294.492L337.357 294.492C343.87 294.492 349.149 299.771 349.149 306.284L349.149 360.581C349.149 367.093 354.428 372.372 360.94 372.372L678.266 372.373C684.778 372.373 690.057 377.652 690.057 384.164L690.057 421.396Z"/>
</mask>
<path d="M690.057 384.164L691.457 384.164L690.057 384.164ZM337.357 294.492L337.357 293.092L337.357 294.492ZM299.792 294.492L299.792 295.892L299.792 294.492ZM299.792 141.74L299.792 143.14L299.792 141.74ZM349.152 129.949L347.752 129.949L349.152 129.949ZM337.361 141.74L337.361 140.34L337.361 141.74ZM349.152 78.7914L350.552 78.7914L349.152 78.7914ZM568.908 145.437L568.908 144.037L568.908 145.437ZM354.461 157.228L353.061 157.228L354.461 157.228ZM354.461 282.394L353.061 282.394L354.461 282.394ZM690.057 421.396L688.657 421.396L690.057 421.396ZM726.503 431.787L701.849 431.787L701.849 434.587L726.503 434.587L726.503 431.787ZM736.895 380.662L736.895 421.396L739.695 421.396L739.695 380.662L736.895 380.662ZM703.059 370.271L726.503 370.271L726.503 367.471L703.059 367.471L703.059 370.271ZM689.868 305.977L689.868 357.079L692.668 357.079L692.668 305.977L689.868 305.977ZM366.252 295.586L679.476 295.586L679.476 292.786L366.252 292.786L366.252 295.586ZM353.061 157.228L353.061 282.394L355.861 282.394L355.861 157.228L353.061 157.228ZM568.908 144.037L366.252 144.037L366.252 146.837L568.908 146.837L568.908 144.037ZM579.299 78.7914L579.299 133.645L582.099 133.645L582.099 78.7914L579.299 78.7914ZM360.943 68.4L568.908 68.4L568.908 65.6L360.943 65.6L360.943 68.4ZM350.552 129.949L350.552 78.7914L347.752 78.7914L347.752 129.949L350.552 129.949ZM299.792 143.14L337.361 143.14L337.361 140.34L299.792 140.34L299.792 143.14ZM289.4 282.701L289.4 153.531L286.6 153.531L286.6 282.701L289.4 282.701ZM337.357 293.092L299.792 293.092L299.792 295.892L337.357 295.892L337.357 293.092ZM350.549 360.581L350.549 306.284L347.749 306.284L347.749 360.581L350.549 360.581ZM678.266 370.973L360.94 370.973L360.94 373.773L678.266 373.773L678.266 370.973ZM691.457 421.396L691.457 384.164L688.657 384.164L688.657 421.396L691.457 421.396ZM678.266 373.773C684.005 373.773 688.657 378.425 688.657 384.164L691.457 384.164C691.457 376.879 685.551 370.973 678.266 370.973L678.266 373.773ZM347.749 360.581C347.749 367.867 353.655 373.773 360.94 373.773L360.94 370.973C355.201 370.973 350.549 366.32 350.549 360.581L347.749 360.581ZM337.357 295.892C343.096 295.892 347.749 300.545 347.749 306.284L350.549 306.284C350.549 298.998 344.643 293.092 337.357 293.092L337.357 295.892ZM286.6 282.701C286.6 289.986 292.506 295.892 299.792 295.892L299.792 293.092C294.053 293.092 289.4 288.44 289.4 282.701L286.6 282.701ZM299.792 140.34C292.506 140.34 286.6 146.246 286.6 153.531L289.4 153.531C289.4 147.792 294.053 143.14 299.792 143.14L299.792 140.34ZM347.752 129.949C347.752 135.688 343.1 140.34 337.361 140.34L337.361 143.14C344.646 143.14 350.552 137.234 350.552 129.949L347.752 129.949ZM360.943 65.6C353.658 65.6 347.752 71.506 347.752 78.7914L350.552 78.7914C350.552 73.0524 355.204 68.4 360.943 68.4L360.943 65.6ZM582.099 78.7914C582.099 71.506 576.193 65.6 568.908 65.6L568.908 68.4C574.647 68.4 579.299 73.0524 579.299 78.7914L582.099 78.7914ZM568.908 146.837C576.193 146.837 582.099 140.931 582.099 133.645L579.299 133.645C579.299 139.384 574.647 144.037 568.908 144.037L568.908 146.837ZM355.861 157.228C355.861 151.489 360.513 146.837 366.252 146.837L366.252 144.037C358.967 144.037 353.061 149.943 353.061 157.228L355.861 157.228ZM366.252 292.786C360.513 292.786 355.861 288.133 355.861 282.394L353.061 282.394C353.061 289.679 358.967 295.586 366.252 295.586L366.252 292.786ZM692.668 305.977C692.668 298.692 686.762 292.786 679.476 292.786L679.476 295.586C685.215 295.586 689.868 300.238 689.868 305.977L692.668 305.977ZM703.059 367.471C697.32 367.471 692.668 362.818 692.668 357.079L689.868 357.079C689.868 364.365 695.774 370.271 703.059 370.271L703.059 367.471ZM739.695 380.662C739.695 373.377 733.789 367.471 726.503 367.471L726.503 370.271C732.243 370.271 736.895 374.923 736.895 380.662L739.695 380.662ZM701.849 431.787C696.11 431.787 691.457 427.135 691.457 421.396L688.657 421.396C688.657 428.681 694.563 434.587 701.849 434.587L701.849 431.787ZM726.503 434.587C733.789 434.587 739.695 428.681 739.695 421.396L736.895 421.396C736.895 427.135 732.243 431.787 726.503 431.787L726.503 434.587Z" fill="black" fill-opacity="0.15" mask="url(#path-5-inside-2_3054_387)"/>
</g>
<path opacity="0.2" fill-rule="evenodd" clip-rule="evenodd" d="M1119.54 -25.9674C1110.41 -25.9674 1103 -33.3731 1103 -42.5086L1103 -119.459C1103 -128.594 1110.41 -136 1119.54 -136L1411.28 -136C1420.41 -136 1427.82 -128.594 1427.82 -119.459L1427.82 -47.6951C1427.82 -38.5597 1435.22 -31.1539 1444.36 -31.1539L1497.66 -31.1539C1506.79 -31.1539 1514.2 -23.7482 1514.2 -14.6127L1514.2 166.589C1514.2 175.724 1506.79 183.13 1497.66 183.13L1444 183.13C1434.87 183.13 1427.46 190.536 1427.46 199.671L1427.46 276.102C1427.46 285.238 1420.06 292.644 1410.92 292.644L1289.46 292.644C1280.33 292.644 1272.92 300.049 1272.92 309.185L1272.92 337.453C1272.92 346.588 1265.51 353.994 1256.38 353.994L1222.46 353.994C1213.33 353.994 1205.92 346.588 1205.92 337.453L1205.92 303.535C1205.92 294.4 1213.33 286.994 1222.46 286.994L1245.32 286.994C1254.46 286.994 1261.86 279.588 1261.86 270.453L1261.86 199.276C1261.86 190.141 1269.27 182.735 1278.4 182.735L1404.43 182.735C1413.56 182.735 1420.97 175.329 1420.97 166.194L1420.97 -9.42622C1420.97 -18.5617 1413.56 -25.9674 1404.43 -25.9674L1119.54 -25.9674Z" fill="black" fill-opacity="0.15"/>
<path opacity="0.2" fill-rule="evenodd" clip-rule="evenodd" d="M611.888 556.461C621.024 556.461 628.43 563.867 628.43 573.002L628.43 619.853C628.43 628.989 621.024 636.395 611.889 636.395L552.636 636.395C543.501 636.395 536.095 628.989 536.095 619.853L536.095 575.892C536.095 566.756 528.689 559.351 519.554 559.351L498.766 559.351C489.63 559.351 482.225 551.945 482.225 542.809L482.225 518.892C482.225 509.756 489.63 502.351 498.766 502.351L519.683 502.351C528.819 502.351 536.225 509.756 536.225 518.892L536.225 539.92C536.225 549.055 543.63 556.461 552.766 556.461L611.888 556.461Z" fill="black" fill-opacity="0.1"/>
<path opacity="0.1" d="M104.011 245.159C103.299 245.159 102.659 245.023 102.091 244.75C101.526 244.473 101.076 244.095 100.738 243.614C100.401 243.133 100.221 242.583 100.199 241.966H101.903C101.945 242.466 102.167 242.877 102.568 243.199C102.97 243.521 103.451 243.682 104.011 243.682C104.458 243.682 104.854 243.58 105.199 243.375C105.547 243.167 105.82 242.881 106.017 242.517C106.218 242.153 106.318 241.739 106.318 241.273C106.318 240.799 106.216 240.377 106.011 240.006C105.807 239.634 105.524 239.343 105.165 239.131C104.809 238.919 104.399 238.811 103.937 238.807C103.585 238.807 103.231 238.867 102.875 238.989C102.519 239.11 102.231 239.269 102.011 239.466L100.403 239.227L101.057 233.364H107.454V234.869H102.517L102.148 238.125H102.216C102.443 237.905 102.744 237.722 103.119 237.574C103.498 237.426 103.903 237.352 104.335 237.352C105.043 237.352 105.674 237.521 106.227 237.858C106.784 238.195 107.221 238.655 107.54 239.239C107.862 239.818 108.021 240.485 108.017 241.239C108.021 241.992 107.85 242.665 107.506 243.256C107.165 243.847 106.691 244.312 106.085 244.653C105.483 244.991 104.792 245.159 104.011 245.159ZM113.791 245.193C112.894 245.189 112.127 244.953 111.49 244.483C110.854 244.013 110.367 243.33 110.03 242.432C109.693 241.534 109.524 240.453 109.524 239.188C109.524 237.926 109.693 236.848 110.03 235.955C110.371 235.061 110.86 234.379 111.496 233.909C112.136 233.439 112.901 233.205 113.791 233.205C114.681 233.205 115.445 233.441 116.081 233.915C116.717 234.384 117.204 235.066 117.541 235.96C117.882 236.85 118.053 237.926 118.053 239.188C118.053 240.456 117.884 241.54 117.547 242.438C117.21 243.331 116.723 244.015 116.087 244.489C115.45 244.958 114.685 245.193 113.791 245.193ZM113.791 243.676C114.579 243.676 115.195 243.292 115.638 242.523C116.085 241.754 116.308 240.642 116.308 239.188C116.308 238.222 116.206 237.405 116.002 236.739C115.801 236.068 115.511 235.561 115.132 235.216C114.757 234.867 114.31 234.693 113.791 234.693C113.007 234.693 112.392 235.08 111.945 235.852C111.498 236.625 111.272 237.737 111.269 239.188C111.269 240.157 111.369 240.977 111.57 241.648C111.774 242.314 112.064 242.82 112.439 243.165C112.814 243.506 113.265 243.676 113.791 243.676Z" fill="black"/>
<path opacity="0.09" d="M1285.23 317V315.727L1289.16 311.648C1289.58 311.205 1289.93 310.816 1290.2 310.483C1290.48 310.146 1290.69 309.826 1290.82 309.523C1290.96 309.22 1291.03 308.898 1291.03 308.557C1291.03 308.17 1290.94 307.837 1290.75 307.557C1290.57 307.273 1290.32 307.055 1290.01 306.903C1289.69 306.748 1289.34 306.67 1288.95 306.67C1288.53 306.67 1288.17 306.756 1287.86 306.926C1287.55 307.097 1287.31 307.337 1287.14 307.648C1286.97 307.958 1286.89 308.322 1286.89 308.739H1285.21C1285.21 308.03 1285.38 307.411 1285.7 306.881C1286.03 306.35 1286.48 305.939 1287.04 305.648C1287.61 305.352 1288.26 305.205 1288.98 305.205C1289.71 305.205 1290.36 305.35 1290.91 305.642C1291.47 305.93 1291.91 306.324 1292.23 306.824C1292.54 307.32 1292.7 307.881 1292.7 308.506C1292.7 308.938 1292.62 309.36 1292.45 309.773C1292.29 310.186 1292.01 310.646 1291.62 311.153C1291.22 311.657 1290.67 312.269 1289.96 312.989L1287.65 315.409V315.494H1292.88V317H1285.23ZM1298.74 317.193C1297.84 317.189 1297.07 316.953 1296.44 316.483C1295.8 316.013 1295.31 315.33 1294.98 314.432C1294.64 313.534 1294.47 312.453 1294.47 311.188C1294.47 309.926 1294.64 308.848 1294.98 307.955C1295.32 307.061 1295.8 306.379 1296.44 305.909C1297.08 305.439 1297.85 305.205 1298.74 305.205C1299.63 305.205 1300.39 305.441 1301.03 305.915C1301.66 306.384 1302.15 307.066 1302.49 307.96C1302.83 308.85 1303 309.926 1303 311.188C1303 312.456 1302.83 313.54 1302.49 314.438C1302.16 315.331 1301.67 316.015 1301.03 316.489C1300.4 316.958 1299.63 317.193 1298.74 317.193ZM1298.74 315.676C1299.52 315.676 1300.14 315.292 1300.58 314.523C1301.03 313.754 1301.25 312.642 1301.25 311.188C1301.25 310.222 1301.15 309.405 1300.95 308.739C1300.75 308.068 1300.46 307.561 1300.08 307.216C1299.7 306.867 1299.26 306.693 1298.74 306.693C1297.95 306.693 1297.34 307.08 1296.89 307.852C1296.44 308.625 1296.22 309.737 1296.21 311.188C1296.21 312.157 1296.31 312.977 1296.52 313.648C1296.72 314.314 1297.01 314.82 1297.38 315.165C1297.76 315.506 1298.21 315.676 1298.74 315.676Z" fill="black"/>
<path opacity="0.06" d="M920.117 101.455V86.9091H921.049V101.455H920.117ZM923.032 91.4205C922.971 90.8826 922.721 90.4659 922.282 90.1705C921.842 89.8712 921.289 89.7216 920.623 89.7216C920.145 89.7216 919.732 89.7973 919.384 89.9489C919.035 90.0966 918.765 90.3011 918.571 90.5625C918.382 90.8201 918.287 91.1136 918.287 91.4432C918.287 91.7197 918.352 91.9583 918.481 92.1591C918.613 92.3598 918.785 92.5284 918.998 92.6648C919.214 92.7973 919.445 92.9091 919.691 93C919.937 93.0871 920.174 93.1591 920.401 93.2159L921.537 93.5114C921.909 93.6023 922.289 93.7254 922.679 93.8807C923.07 94.036 923.431 94.2405 923.765 94.4943C924.098 94.7481 924.367 95.0625 924.571 95.4375C924.78 95.8125 924.884 96.2614 924.884 96.7841C924.884 97.4432 924.714 98.0284 924.373 98.5398C924.035 99.0511 923.545 99.4545 922.901 99.75C922.261 100.045 921.486 100.193 920.577 100.193C919.706 100.193 918.952 100.055 918.316 99.7784C917.679 99.5019 917.181 99.1098 916.821 98.6023C916.462 98.0909 916.263 97.4848 916.225 96.7841H917.986C918.02 97.2045 918.157 97.5549 918.395 97.8352C918.638 98.1117 918.946 98.3182 919.321 98.4545C919.7 98.5871 920.115 98.6534 920.566 98.6534C921.062 98.6534 921.503 98.5758 921.89 98.4205C922.28 98.2614 922.587 98.0417 922.81 97.7614C923.034 97.4773 923.145 97.1458 923.145 96.767C923.145 96.4223 923.047 96.1402 922.85 95.9205C922.657 95.7008 922.393 95.5189 922.06 95.375C921.731 95.2311 921.357 95.1042 920.941 94.9943L919.566 94.6193C918.634 94.3655 917.895 93.9924 917.35 93.5C916.808 93.0076 916.537 92.3561 916.537 91.5455C916.537 90.875 916.719 90.2898 917.083 89.7898C917.446 89.2898 917.939 88.9015 918.56 88.625C919.181 88.3447 919.882 88.2045 920.662 88.2045C921.45 88.2045 922.145 88.3428 922.748 88.6193C923.354 88.8958 923.831 89.2765 924.179 89.7614C924.528 90.2424 924.71 90.7955 924.725 91.4205H923.032ZM930.062 101.455V86.9091H930.994V101.455H930.062ZM932.977 91.4205C932.916 90.8826 932.666 90.4659 932.227 90.1705C931.787 89.8712 931.234 89.7216 930.567 89.7216C930.09 89.7216 929.677 89.7973 929.329 89.9489C928.98 90.0966 928.71 90.3011 928.516 90.5625C928.327 90.8201 928.232 91.1136 928.232 91.4432C928.232 91.7197 928.297 91.9583 928.425 92.1591C928.558 92.3598 928.73 92.5284 928.942 92.6648C929.158 92.7973 929.389 92.9091 929.636 93C929.882 93.0871 930.119 93.1591 930.346 93.2159L931.482 93.5114C931.853 93.6023 932.234 93.7254 932.624 93.8807C933.014 94.036 933.376 94.2405 933.71 94.4943C934.043 94.7481 934.312 95.0625 934.516 95.4375C934.725 95.8125 934.829 96.2614 934.829 96.7841C934.829 97.4432 934.658 98.0284 934.317 98.5398C933.98 99.0511 933.49 99.4545 932.846 99.75C932.206 100.045 931.431 100.193 930.522 100.193C929.651 100.193 928.897 100.055 928.261 99.7784C927.624 99.5019 927.126 99.1098 926.766 98.6023C926.406 98.0909 926.208 97.4848 926.17 96.7841H927.931C927.965 97.2045 928.102 97.5549 928.34 97.8352C928.583 98.1117 928.891 98.3182 929.266 98.4545C929.645 98.5871 930.06 98.6534 930.511 98.6534C931.007 98.6534 931.448 98.5758 931.835 98.4205C932.225 98.2614 932.531 98.0417 932.755 97.7614C932.978 97.4773 933.09 97.1458 933.09 96.767C933.09 96.4223 932.992 96.1402 932.795 95.9205C932.602 95.7008 932.338 95.5189 932.005 95.375C931.675 95.2311 931.302 95.1042 930.886 94.9943L929.511 94.6193C928.579 94.3655 927.84 93.9924 927.295 93.5C926.753 93.0076 926.482 92.3561 926.482 91.5455C926.482 90.875 926.664 90.2898 927.028 89.7898C927.391 89.2898 927.884 88.9015 928.505 88.625C929.126 88.3447 929.827 88.2045 930.607 88.2045C931.395 88.2045 932.09 88.3428 932.692 88.6193C933.299 88.8958 933.776 89.2765 934.124 89.7614C934.473 90.2424 934.655 90.7955 934.67 91.4205H932.977ZM940.007 101.455V86.9091H940.938V101.455H940.007ZM942.921 91.4205C942.861 90.8826 942.611 90.4659 942.171 90.1705C941.732 89.8712 941.179 89.7216 940.512 89.7216C940.035 89.7216 939.622 89.7973 939.274 89.9489C938.925 90.0966 938.654 90.3011 938.461 90.5625C938.272 90.8201 938.177 91.1136 938.177 91.4432C938.177 91.7197 938.242 91.9583 938.37 92.1591C938.503 92.3598 938.675 92.5284 938.887 92.6648C939.103 92.7973 939.334 92.9091 939.581 93C939.827 93.0871 940.063 93.1591 940.291 93.2159L941.427 93.5114C941.798 93.6023 942.179 93.7254 942.569 93.8807C942.959 94.036 943.321 94.2405 943.654 94.4943C943.988 94.7481 944.257 95.0625 944.461 95.4375C944.67 95.8125 944.774 96.2614 944.774 96.7841C944.774 97.4432 944.603 98.0284 944.262 98.5398C943.925 99.0511 943.435 99.4545 942.791 99.75C942.151 100.045 941.376 100.193 940.467 100.193C939.596 100.193 938.842 100.055 938.206 99.7784C937.569 99.5019 937.071 99.1098 936.711 98.6023C936.351 98.0909 936.152 97.4848 936.115 96.7841H937.876C937.91 97.2045 938.046 97.5549 938.285 97.8352C938.527 98.1117 938.836 98.3182 939.211 98.4545C939.59 98.5871 940.005 98.6534 940.456 98.6534C940.952 98.6534 941.393 98.5758 941.779 98.4205C942.17 98.2614 942.476 98.0417 942.7 97.7614C942.923 97.4773 943.035 97.1458 943.035 96.767C943.035 96.4223 942.937 96.1402 942.74 95.9205C942.546 95.7008 942.283 95.5189 941.95 95.375C941.62 95.2311 941.247 95.1042 940.831 94.9943L939.456 94.6193C938.524 94.3655 937.785 93.9924 937.24 93.5C936.698 93.0076 936.427 92.3561 936.427 91.5455C936.427 90.875 936.609 90.2898 936.973 89.7898C937.336 89.2898 937.829 88.9015 938.45 88.625C939.071 88.3447 939.772 88.2045 940.552 88.2045C941.34 88.2045 942.035 88.3428 942.637 88.6193C943.243 88.8958 943.721 89.2765 944.069 89.7614C944.418 90.2424 944.599 90.7955 944.615 91.4205H942.921Z" fill="black"/>
<path opacity="0.06" d="M311.836 120.364V132H310.074V122.125H310.006L307.222 123.943V122.261L310.125 120.364H311.836ZM318.682 132.159C317.902 132.159 317.205 132.025 316.591 131.756C315.982 131.487 315.499 131.114 315.143 130.636C314.79 130.155 314.601 129.598 314.574 128.966H316.359C316.381 129.311 316.497 129.61 316.705 129.864C316.917 130.114 317.194 130.307 317.535 130.443C317.876 130.58 318.254 130.648 318.671 130.648C319.129 130.648 319.535 130.568 319.887 130.409C320.243 130.25 320.521 130.028 320.722 129.744C320.923 129.456 321.023 129.125 321.023 128.75C321.023 128.36 320.923 128.017 320.722 127.722C320.525 127.422 320.235 127.187 319.853 127.017C319.474 126.847 319.016 126.761 318.478 126.761H317.495V125.33H318.478C318.91 125.33 319.288 125.252 319.614 125.097C319.944 124.941 320.201 124.725 320.387 124.449C320.573 124.169 320.665 123.841 320.665 123.466C320.665 123.106 320.584 122.794 320.421 122.528C320.262 122.259 320.035 122.049 319.739 121.898C319.448 121.746 319.103 121.67 318.705 121.67C318.326 121.67 317.972 121.741 317.643 121.881C317.317 122.017 317.052 122.214 316.847 122.472C316.643 122.725 316.533 123.03 316.518 123.386H314.819C314.838 122.758 315.023 122.205 315.376 121.727C315.732 121.25 316.201 120.877 316.785 120.608C317.368 120.339 318.016 120.205 318.728 120.205C319.474 120.205 320.118 120.35 320.66 120.642C321.205 120.93 321.626 121.314 321.921 121.795C322.22 122.277 322.368 122.803 322.364 123.375C322.368 124.027 322.186 124.58 321.819 125.034C321.455 125.489 320.97 125.794 320.364 125.949V126.04C321.137 126.157 321.735 126.464 322.16 126.96C322.588 127.456 322.8 128.072 322.796 128.807C322.8 129.447 322.622 130.021 322.262 130.528C321.906 131.036 321.419 131.436 320.802 131.727C320.184 132.015 319.478 132.159 318.682 132.159ZM328.643 132.159C327.863 132.159 327.166 132.025 326.552 131.756C325.942 131.487 325.459 131.114 325.103 130.636C324.751 130.155 324.561 129.598 324.535 128.966H326.319C326.342 129.311 326.457 129.61 326.666 129.864C326.878 130.114 327.154 130.307 327.495 130.443C327.836 130.58 328.215 130.648 328.632 130.648C329.09 130.648 329.495 130.568 329.847 130.409C330.203 130.25 330.482 130.028 330.683 129.744C330.883 129.456 330.984 129.125 330.984 128.75C330.984 128.36 330.883 128.017 330.683 127.722C330.486 127.422 330.196 127.187 329.813 127.017C329.435 126.847 328.976 126.761 328.438 126.761H327.455V125.33H328.438C328.87 125.33 329.249 125.252 329.575 125.097C329.904 124.941 330.162 124.725 330.347 124.449C330.533 124.169 330.626 123.841 330.626 123.466C330.626 123.106 330.544 122.794 330.382 122.528C330.222 122.259 329.995 122.049 329.7 121.898C329.408 121.746 329.063 121.67 328.666 121.67C328.287 121.67 327.933 121.741 327.603 121.881C327.277 122.017 327.012 122.214 326.808 122.472C326.603 122.725 326.493 123.03 326.478 123.386H324.779C324.798 122.758 324.984 122.205 325.336 121.727C325.692 121.25 326.162 120.877 326.745 120.608C327.328 120.339 327.976 120.205 328.688 120.205C329.435 120.205 330.078 120.35 330.62 120.642C331.166 120.93 331.586 121.314 331.882 121.795C332.181 122.277 332.328 122.803 332.325 123.375C332.328 124.027 332.147 124.58 331.779 125.034C331.416 125.489 330.931 125.794 330.325 125.949V126.04C331.097 126.157 331.696 126.464 332.12 126.96C332.548 127.456 332.76 128.072 332.757 128.807C332.76 129.447 332.582 130.021 332.222 130.528C331.866 131.036 331.38 131.436 330.762 131.727C330.145 132.015 329.438 132.159 328.643 132.159ZM334.944 132L340.024 121.955V121.869H334.149V120.364H341.842V121.92L336.78 132H334.944Z" fill="black"/>
</g>
<defs>
<clipPath id="clip0_3054_387">
<rect width="1440" height="816" fill="white"/>
</clipPath>
</defs>
</svg>
