<svg width="1440" height="929" viewBox="0 0 1440 929" fill="none" xmlns="http://www.w3.org/2000/svg">
<path opacity="0.2" fill-rule="evenodd" clip-rule="evenodd" d="M1736.44 307.877C1736.44 299.108 1743.55 292 1752.32 292L1826.12 292C1834.89 292 1842 299.108 1842 307.877L1842 586.516C1842 595.285 1834.89 602.393 1826.12 602.393L1757.24 602.393C1748.47 602.393 1741.36 609.502 1741.36 618.271L1741.36 668.123C1741.36 676.891 1734.26 684 1725.49 684L1551.56 684C1542.79 684 1535.68 676.892 1535.68 668.123L1535.68 618.199C1535.68 609.43 1528.57 602.322 1519.8 602.322L1446.66 602.322C1437.89 602.322 1430.79 595.213 1430.79 586.444L1430.79 407.368C1430.79 398.599 1423.68 391.49 1414.91 391.49L1329 391.49C1320.23 391.49 1313.12 384.382 1313.12 375.613L1313.12 342.097C1313.12 333.328 1320.23 326.22 1329 326.22L1420.11 326.22C1428.88 326.22 1435.99 333.328 1435.99 342.097L1435.99 375.45C1435.99 384.219 1443.1 391.327 1451.86 391.327L1520.35 391.327C1529.12 391.327 1536.23 398.436 1536.23 407.204L1536.23 578.632C1536.23 587.401 1543.33 594.51 1552.1 594.51L1720.56 594.51C1729.33 594.51 1736.44 587.401 1736.44 578.632L1736.44 307.877Z" fill="black" fill-opacity="0.15"/>
<g opacity="0.2">
<mask id="path-2-inside-1_3054_812" fill="white">
<path fill-rule="evenodd" clip-rule="evenodd" d="M617.331 500.123C617.331 508.891 610.223 516 601.454 516L527.65 516C518.881 516 511.773 508.892 511.773 500.123L511.773 221.484C511.773 212.715 518.881 205.607 527.65 205.607L596.532 205.607C605.3 205.607 612.409 198.498 612.409 189.729L612.409 139.877C612.409 131.108 619.518 123.999 628.286 123.999L802.215 123.999C810.984 123.999 818.092 131.108 818.092 139.877L818.092 189.8C818.092 198.569 825.201 205.677 833.969 205.677L907.109 205.677C915.878 205.677 922.987 212.786 922.987 221.555L922.987 400.631C922.987 409.4 930.095 416.509 938.864 416.509L1024.77 416.509C1033.54 416.509 1040.65 423.617 1040.65 432.386L1040.65 465.902C1040.65 474.671 1033.54 481.779 1024.77 481.779L933.664 481.779C924.895 481.779 917.786 474.671 917.786 465.902L917.786 432.549C917.786 423.78 910.678 416.672 901.909 416.672L833.425 416.672C824.656 416.672 817.547 409.563 817.547 400.795L817.547 229.367C817.547 220.598 810.439 213.489 801.67 213.489L633.209 213.489C624.44 213.489 617.331 220.598 617.331 229.367L617.331 500.123Z"/>
</mask>
<path d="M933.664 481.779L933.664 480.379L933.664 481.779ZM1024.77 481.779L1024.77 480.379L1024.77 481.779ZM938.864 416.509L938.864 415.109L938.864 416.509ZM907.109 205.677L907.109 207.077L907.109 205.677ZM818.092 189.8L816.692 189.8L818.092 189.8ZM833.969 205.677L833.969 204.277L833.969 205.677ZM802.215 123.999L802.215 125.399L802.215 123.999ZM818.092 139.877L819.492 139.877L818.092 139.877ZM628.286 123.999L628.286 122.599L628.286 123.999ZM527.65 514.6L601.454 514.6L601.454 517.4L527.65 517.4L527.65 514.6ZM513.173 221.484L513.173 500.123L510.373 500.123L510.373 221.484L513.173 221.484ZM596.532 207.007L527.65 207.007L527.65 204.207L596.532 204.207L596.532 207.007ZM613.809 139.877L613.809 189.729L611.009 189.729L611.009 139.877L613.809 139.877ZM802.215 125.399L628.286 125.399L628.286 122.599L802.215 122.599L802.215 125.399ZM816.692 189.8L816.692 139.877L819.492 139.877L819.492 189.8L816.692 189.8ZM907.109 207.077L833.969 207.077L833.969 204.277L907.109 204.277L907.109 207.077ZM921.587 400.631L921.587 221.555L924.387 221.555L924.387 400.631L921.587 400.631ZM1024.77 417.909L938.864 417.909L938.864 415.109L1024.77 415.109L1024.77 417.909ZM1039.25 465.902L1039.25 432.386L1042.05 432.386L1042.05 465.902L1039.25 465.902ZM933.664 480.379L1024.77 480.379L1024.77 483.179L933.664 483.179L933.664 480.379ZM919.186 432.549L919.186 465.902L916.386 465.902L916.386 432.549L919.186 432.549ZM833.425 415.272L901.909 415.272L901.909 418.072L833.425 418.072L833.425 415.272ZM818.947 229.367L818.947 400.795L816.147 400.795L816.147 229.367L818.947 229.367ZM633.209 212.089L801.67 212.089L801.67 214.889L633.209 214.889L633.209 212.089ZM615.931 500.123L615.931 229.367L618.731 229.367L618.731 500.123L615.931 500.123ZM633.209 214.889C625.213 214.889 618.731 221.371 618.731 229.367L615.931 229.367C615.931 219.825 623.667 212.089 633.209 212.089L633.209 214.889ZM816.147 229.367C816.147 221.371 809.666 214.889 801.67 214.889L801.67 212.089C811.212 212.089 818.947 219.825 818.947 229.367L816.147 229.367ZM833.425 418.072C823.883 418.072 816.147 410.337 816.147 400.795L818.947 400.795C818.947 408.79 825.429 415.272 833.425 415.272L833.425 418.072ZM916.386 432.549C916.386 424.554 909.905 418.072 901.909 418.072L901.909 415.272C911.451 415.272 919.186 423.007 919.186 432.549L916.386 432.549ZM933.664 483.179C924.122 483.179 916.386 475.444 916.386 465.902L919.186 465.902C919.186 473.898 925.668 480.379 933.664 480.379L933.664 483.179ZM1042.05 465.902C1042.05 475.444 1034.31 483.179 1024.77 483.179L1024.77 480.379C1032.77 480.379 1039.25 473.898 1039.25 465.902L1042.05 465.902ZM1024.77 415.109C1034.31 415.109 1042.05 422.844 1042.05 432.386L1039.25 432.386C1039.25 424.39 1032.77 417.909 1024.77 417.909L1024.77 415.109ZM924.387 400.631C924.387 408.627 930.868 415.109 938.864 415.109L938.864 417.909C929.322 417.909 921.587 410.173 921.587 400.631L924.387 400.631ZM907.109 204.277C916.651 204.277 924.387 212.013 924.387 221.555L921.587 221.555C921.587 213.559 915.105 207.077 907.109 207.077L907.109 204.277ZM819.492 189.8C819.492 197.796 825.974 204.277 833.969 204.277L833.969 207.077C824.427 207.077 816.692 199.342 816.692 189.8L819.492 189.8ZM802.215 122.599C811.757 122.599 819.492 130.335 819.492 139.877L816.692 139.877C816.692 131.881 810.21 125.399 802.215 125.399L802.215 122.599ZM611.009 139.877C611.009 130.335 618.744 122.599 628.286 122.599L628.286 125.399C620.291 125.399 613.809 131.881 613.809 139.877L611.009 139.877ZM596.532 204.207C604.527 204.207 611.009 197.725 611.009 189.729L613.809 189.729C613.809 199.271 606.074 207.007 596.532 207.007L596.532 204.207ZM510.373 221.484C510.373 211.942 518.108 204.207 527.65 204.207L527.65 207.007C519.655 207.007 513.173 213.488 513.173 221.484L510.373 221.484ZM601.454 514.6C609.45 514.6 615.931 508.118 615.931 500.123L618.731 500.123C618.731 509.665 610.996 517.4 601.454 517.4L601.454 514.6ZM527.65 517.4C518.108 517.4 510.373 509.665 510.373 500.123L513.173 500.123C513.173 508.118 519.655 514.6 527.65 514.6L527.65 517.4Z" fill="black" fill-opacity="0.15" mask="url(#path-2-inside-1_3054_812)"/>
</g>
<path opacity="0.2" fill-rule="evenodd" clip-rule="evenodd" d="M392.233 573.792C392.233 567.28 397.512 562 404.025 562L428.679 562C435.192 562 440.471 567.28 440.471 573.792L440.471 614.526C440.471 621.038 435.192 626.317 428.679 626.317L405.043 626.317C398.531 626.317 393.252 631.596 393.252 638.109L393.252 689.211C393.252 695.723 387.972 701.002 381.46 701.002L70.4281 701.002C63.9159 701.002 58.6367 706.281 58.6367 712.794L58.6367 837.96C58.6367 844.472 63.9159 849.751 70.4281 849.751L271.445 849.751C277.957 849.751 283.236 855.03 283.236 861.542L283.236 916.396C283.236 922.909 277.957 928.188 271.445 928.188L64.6377 928.188C58.1254 928.188 52.8463 922.909 52.8463 916.396L52.8463 865.239C52.8463 858.727 47.5671 853.448 41.0548 853.448L3.96746 853.448C-2.54475 853.448 -7.82395 848.169 -7.82395 841.656L-7.82394 712.487C-7.82394 705.975 -2.54474 700.696 3.96747 700.696L41.0517 700.696C47.5639 700.696 52.8431 695.416 52.8431 688.904L52.8431 634.607C52.8431 628.094 58.1223 622.815 64.6345 622.815L380.442 622.815C386.954 622.815 392.233 617.536 392.233 611.024L392.233 573.792Z" fill="black" fill-opacity="0.15"/>
<g opacity="0.2">
<mask id="path-5-inside-2_3054_812" fill="white">
<path fill-rule="evenodd" clip-rule="evenodd" d="M880.586 557.396C880.586 563.908 875.307 569.187 868.795 569.187L844.14 569.187C837.628 569.187 832.349 563.908 832.349 557.396L832.349 516.662C832.349 510.15 837.628 504.871 844.14 504.871L867.776 504.871C874.289 504.871 879.568 499.591 879.568 493.079L879.568 441.977C879.568 435.465 884.847 430.186 891.359 430.186L1202.39 430.186C1208.9 430.186 1214.18 424.906 1214.18 418.394L1214.18 293.228C1214.18 286.716 1208.9 281.437 1202.39 281.437L1001.37 281.437C994.863 281.437 989.583 276.158 989.583 269.645L989.583 214.791C989.583 208.279 994.863 203 1001.37 203L1208.18 203C1214.69 203 1219.97 208.279 1219.97 214.791L1219.97 265.949C1219.97 272.461 1225.25 277.74 1231.76 277.74L1268.85 277.74C1275.36 277.74 1280.64 283.019 1280.64 289.531L1280.64 418.701C1280.64 425.213 1275.36 430.492 1268.85 430.492L1231.77 430.492C1225.26 430.492 1219.98 435.771 1219.98 442.284L1219.98 496.581C1219.98 503.093 1214.7 508.372 1208.18 508.372L892.378 508.373C885.865 508.373 880.586 513.652 880.586 520.164L880.586 557.396Z"/>
</mask>
<path d="M880.586 520.164L879.186 520.164L880.586 520.164ZM1219.98 496.581L1221.38 496.581L1219.98 496.581ZM1231.77 430.492L1231.77 431.892L1231.77 430.492ZM1219.98 442.284L1218.58 442.284L1219.98 442.284ZM1268.85 430.492L1268.85 429.092L1268.85 430.492ZM1268.85 277.74L1268.85 276.34L1268.85 277.74ZM1219.97 265.949L1221.37 265.949L1221.37 265.949L1219.97 265.949ZM1219.97 214.791L1218.57 214.791V214.791L1219.97 214.791ZM989.583 214.791L988.183 214.791L989.583 214.791ZM1001.37 281.437L1001.37 280.037L1001.37 281.437ZM989.583 269.645L990.983 269.645L989.583 269.645ZM1202.39 430.186L1202.39 431.586L1202.39 430.186ZM891.359 430.186L891.359 428.786L891.359 430.186ZM867.776 504.871L867.776 506.271L867.776 504.871ZM844.14 504.871L844.14 503.471L844.14 504.871ZM868.795 569.187L868.795 567.787L868.795 569.187ZM880.586 557.396L881.986 557.396L880.586 557.396ZM844.14 569.187L844.14 570.587L844.14 569.187ZM844.14 567.787L868.795 567.787L868.795 570.587L844.14 570.587L844.14 567.787ZM833.749 516.662L833.749 557.396L830.949 557.396L830.949 516.662L833.749 516.662ZM867.776 506.271L844.14 506.271L844.14 503.471L867.776 503.471L867.776 506.271ZM880.968 441.977L880.968 493.079L878.168 493.079L878.168 441.977L880.968 441.977ZM1202.39 431.586L891.359 431.586L891.359 428.786L1202.39 428.786L1202.39 431.586ZM1215.58 293.228L1215.58 418.394L1212.78 418.394L1212.78 293.228L1215.58 293.228ZM1001.37 280.037L1202.39 280.037L1202.39 282.837L1001.37 282.837L1001.37 280.037ZM990.983 214.791L990.983 269.645L988.183 269.645L988.183 214.791L990.983 214.791ZM1208.18 204.4L1001.37 204.4L1001.37 201.6L1208.18 201.6L1208.18 204.4ZM1218.57 265.949L1218.57 214.791L1221.37 214.791L1221.37 265.949L1218.57 265.949ZM1268.85 279.14L1231.76 279.14L1231.76 276.34L1268.85 276.34L1268.85 279.14ZM1279.24 418.701L1279.24 289.531L1282.04 289.531L1282.04 418.701L1279.24 418.701ZM1231.77 429.092L1268.85 429.092L1268.85 431.892L1231.77 431.892L1231.77 429.092ZM1218.58 496.581L1218.58 442.284L1221.38 442.284L1221.38 496.581L1218.58 496.581ZM892.378 506.973L1208.18 506.972L1208.18 509.772L892.378 509.773L892.378 506.973ZM879.186 557.396L879.186 520.164L881.986 520.164L881.986 557.396L879.186 557.396ZM892.378 509.773C886.639 509.773 881.986 514.425 881.986 520.164L879.186 520.164C879.186 512.879 885.092 506.973 892.378 506.973L892.378 509.773ZM1221.38 496.581C1221.38 503.867 1215.47 509.772 1208.18 509.772L1208.18 506.972C1213.92 506.972 1218.58 502.32 1218.58 496.581L1221.38 496.581ZM1231.77 431.892C1226.03 431.892 1221.38 436.545 1221.38 442.284L1218.58 442.284C1218.58 434.998 1224.48 429.092 1231.77 429.092L1231.77 431.892ZM1282.04 418.701C1282.04 425.986 1276.14 431.892 1268.85 431.892L1268.85 429.092C1274.59 429.092 1279.24 424.44 1279.24 418.701L1282.04 418.701ZM1268.85 276.34C1276.14 276.34 1282.04 282.246 1282.04 289.531L1279.24 289.531C1279.24 283.792 1274.59 279.14 1268.85 279.14L1268.85 276.34ZM1221.37 265.949C1221.37 271.688 1226.03 276.34 1231.76 276.34L1231.76 279.14C1224.48 279.14 1218.57 273.234 1218.57 265.949L1221.37 265.949ZM1208.18 201.6C1215.47 201.6 1221.37 207.506 1221.37 214.791L1218.57 214.791C1218.57 209.052 1213.92 204.4 1208.18 204.4L1208.18 201.6ZM988.183 214.791C988.183 207.506 994.089 201.6 1001.37 201.6L1001.37 204.4C995.636 204.4 990.983 209.052 990.983 214.791L988.183 214.791ZM1001.37 282.837C994.089 282.837 988.183 276.931 988.183 269.645L990.983 269.645C990.983 275.384 995.636 280.037 1001.37 280.037L1001.37 282.837ZM1212.78 293.228C1212.78 287.489 1208.13 282.837 1202.39 282.837L1202.39 280.037C1209.68 280.037 1215.58 285.943 1215.58 293.228L1212.78 293.228ZM1202.39 428.786C1208.13 428.786 1212.78 424.133 1212.78 418.394L1215.58 418.394C1215.58 425.68 1209.68 431.586 1202.39 431.586L1202.39 428.786ZM878.168 441.977C878.168 434.692 884.074 428.786 891.359 428.786L891.359 431.586C885.62 431.586 880.968 436.238 880.968 441.977L878.168 441.977ZM867.776 503.471C873.515 503.471 878.168 498.818 878.168 493.079L880.968 493.079C880.968 500.365 875.062 506.271 867.776 506.271L867.776 503.471ZM830.949 516.662C830.949 509.377 836.855 503.471 844.14 503.471L844.14 506.271C838.401 506.271 833.749 510.923 833.749 516.662L830.949 516.662ZM868.795 567.787C874.534 567.787 879.186 563.135 879.186 557.396L881.986 557.396C881.986 564.681 876.08 570.587 868.795 570.587L868.795 567.787ZM844.14 570.587C836.855 570.587 830.949 564.681 830.949 557.396L833.749 557.396C833.749 563.135 838.401 567.787 844.14 567.787L844.14 570.587Z" fill="black" fill-opacity="0.15" mask="url(#path-5-inside-2_3054_812)"/>
</g>
<path opacity="0.2" fill-rule="evenodd" clip-rule="evenodd" d="M453.352 110.033C462.488 110.033 469.894 102.627 469.894 93.4914L469.894 16.5412C469.894 7.40575 462.488 2.34476e-06 453.352 1.86341e-06L163.24 -1.34228e-05C154.104 -1.39042e-05 146.699 7.40572 146.699 16.5412L146.699 88.3049C146.699 97.4403 139.293 104.846 130.158 104.846L77.7292 104.846C68.5937 104.846 61.188 112.252 61.188 121.387L61.188 302.589C61.188 311.724 68.5937 319.13 77.7292 319.13L130.511 319.13C139.646 319.13 147.052 326.535 147.052 335.671L147.052 412.102C147.052 421.238 154.458 428.644 163.593 428.644L282.926 428.644C292.061 428.644 299.467 436.049 299.467 445.185L299.467 473.453C299.467 482.588 306.873 489.994 316.008 489.994L349.926 489.994C359.061 489.994 366.467 482.588 366.467 473.453L366.467 439.535C366.467 430.4 359.061 422.994 349.926 422.994L328.365 422.994C319.23 422.994 311.824 415.588 311.824 406.453L311.824 335.276C311.824 326.141 304.418 318.735 295.283 318.735L170.961 318.735C161.826 318.735 154.42 311.329 154.42 302.194L154.42 126.574C154.42 117.438 161.826 110.033 170.961 110.033L453.352 110.033Z" fill="black" fill-opacity="0.15"/>
<path opacity="0.2" fill-rule="evenodd" clip-rule="evenodd" d="M958.633 692.461C949.498 692.461 942.092 699.867 942.092 709.002L942.092 755.853C942.092 764.989 949.498 772.395 958.633 772.395L1017.42 772.395C1026.56 772.395 1033.96 764.989 1033.96 755.853L1033.96 711.892C1033.96 702.756 1041.37 695.351 1050.51 695.351L1070.85 695.351C1079.99 695.351 1087.39 687.945 1087.39 678.809L1087.39 654.892C1087.39 645.756 1079.99 638.351 1070.85 638.351L1049.93 638.351C1040.8 638.351 1033.39 645.756 1033.39 654.892L1033.39 675.92C1033.39 685.055 1025.99 692.461 1016.85 692.461L958.633 692.461Z" fill="black" fill-opacity="0.1"/>
</svg>
