<svg width="812" height="263" viewBox="0 0 812 263" fill="none" xmlns="http://www.w3.org/2000/svg">
<g filter="url(#filter0_d_3057_1190)">
<rect x="69" y="81.5801" width="670.963" height="112.617" rx="24" transform="rotate(-1.07436 69 81.5801)" fill="#BDF925" shape-rendering="crispEdges"/>
<path d="M107.448 165.899L116.114 115.999L137.614 115.596L145.946 145.205L164.489 115.092L185.989 114.689L177.227 164.59L162.062 164.874L168.22 129.713L146.993 165.157L136.915 165.346L127.813 130.566L121.749 165.63L107.448 165.899ZM223.235 163.727L224.445 156.599C222.208 160.194 216.92 164.902 209.049 165.049C197.531 165.265 189.598 156.965 189.332 142.759C188.995 124.81 200.304 113.46 214.51 113.194C223.532 113.025 228.418 117.542 230.5 121.055L231.709 113.831L247.162 113.542L238.4 163.443L223.235 163.727ZM215.232 151.683C222.91 151.539 227.77 144.439 227.631 137.048C227.511 130.617 223.683 126.176 217.252 126.297C209.285 126.446 204.714 133.541 204.852 140.932C204.973 147.363 208.801 151.804 215.232 151.683ZM302.481 129.979L287.411 130.262C286.904 128.831 284.433 125.037 278.386 125.15C270.899 125.291 266.414 131.904 266.564 139.871C266.684 146.301 270.222 150.652 276.269 150.538C282.028 150.43 284.555 146.926 285.582 145.371L300.46 145.092C299.062 152.511 292.167 163.683 276.521 163.976C261.644 164.255 251.299 155.327 251.025 140.738C250.71 123.941 262.488 112.006 278.134 111.713C296.083 111.376 301.864 122.694 302.481 129.979ZM317.472 161.96L323.982 125.063L305.361 125.413L307.709 112.406L360.308 111.42L358.056 124.424L339.531 124.772L333.022 161.668L317.472 161.96ZM387.237 109.667C403.746 109.357 414.297 119.049 412.037 136.758L411.776 138.204L374.439 138.904C374.278 145.724 378.583 149.964 385.397 149.836C391.252 149.726 394.368 146.883 395.018 145.719L410.279 145.433C409.141 151.311 401.749 161.628 385.624 161.93C369.115 162.24 359.721 152.814 359.456 138.705C359.145 122.1 370.727 109.976 387.237 109.667ZM387.543 120.895C381.784 121.003 377.81 124.15 375.99 129.465L397.778 129.056C396.998 123.31 392.918 120.794 387.543 120.895ZM448.965 160.55C439.367 160.73 434.286 156.025 432.198 152.223L427.522 179.388L412.357 179.672L424.497 110.216L439.854 109.928L438.551 117.25C440.783 113.367 446.075 108.851 453.658 108.709C465.176 108.493 473.974 116.874 474.246 131.367C474.57 148.644 462.979 160.287 448.965 160.55ZM435.264 136.515C435.386 143.042 439.502 147.477 446.029 147.355C454.092 147.204 459.049 140.197 458.911 132.807C458.788 126.28 454.672 121.844 448.145 121.967C440.371 122.113 435.12 128.836 435.264 136.515ZM531.153 125.691L516.083 125.974C515.577 124.543 513.105 120.749 507.058 120.862C499.571 121.002 495.087 127.616 495.236 135.582C495.357 142.013 498.895 146.363 504.942 146.25C510.701 146.142 513.227 142.638 514.254 141.083L529.132 140.804C527.735 148.223 520.839 159.394 505.194 159.688C490.316 159.967 479.971 151.039 479.698 136.45C479.383 119.653 491.161 107.718 506.806 107.424C524.755 107.088 530.536 118.405 531.153 125.691ZM546.145 157.672L552.654 120.775L534.033 121.124L536.382 108.118L588.981 107.131L586.728 120.136L568.203 120.483L561.694 157.38L546.145 157.672ZM587.663 156.893L596.329 106.994L627.236 106.414C637.122 106.229 642.957 110.152 643.11 118.311C643.223 124.357 638.796 128.953 633.448 130.494C637.213 131.575 640.437 134.491 640.532 139.579C640.721 149.657 632.679 156.049 619.338 156.299L587.663 156.893ZM622.064 117.361L609.97 117.588L608.406 126.355L620.596 126.126C624.819 126.047 627.183 124.082 627.125 121.011C627.079 118.515 625.424 117.298 622.064 117.361ZM619.539 136.324L606.677 136.565L605.025 145.717L617.983 145.474C622.878 145.383 625.14 143.132 625.084 140.156C625.039 137.757 623.091 136.257 619.539 136.324ZM674.232 156.518C659.259 156.798 648.33 147.498 648.05 132.524C647.754 116.783 660.103 104.549 675.844 104.254C690.818 103.973 701.746 113.274 702.029 128.344C702.324 144.085 689.973 156.222 674.232 156.518ZM674.076 143.078C682.043 142.929 686.904 135.924 686.767 128.63C686.645 122.103 682.527 117.571 676 117.694C668.034 117.843 663.172 124.847 663.309 132.142C663.431 138.669 667.549 143.201 674.076 143.078Z" fill="#384F00"/>
<rect x="68.7682" y="81.8821" width="671.2" height="112.2" transform="rotate(-1.07 68.7682 81.8821)" stroke="#3DACF5" stroke-width="1.8"/>
<rect x="64.9166" y="78.3918" width="6.2" height="6.2" transform="rotate(-1.07 64.9166 78.3918)" fill="white" stroke="#3DACF5" stroke-width="1.8"/>
<rect x="67.9166" y="191.392" width="6.2" height="6.2" transform="rotate(-1.07 67.9166 191.392)" fill="white" stroke="#3DACF5" stroke-width="1.8"/>
<rect x="736.917" y="65.3918" width="6.2" height="6.2" transform="rotate(-1.07 736.917 65.3918)" fill="white" stroke="#3DACF5" stroke-width="1.8"/>
<rect x="739.917" y="179.392" width="6.2" height="6.2" transform="rotate(-1.07 739.917 179.392)" fill="white" stroke="#3DACF5" stroke-width="1.8"/>
</g>
<defs>
<filter id="filter0_d_3057_1190" x="0" y="0.359375" width="811.148" height="262.148" filterUnits="userSpaceOnUse" color-interpolation-filters="sRGB">
<feFlood flood-opacity="0" result="BackgroundImageFix"/>
<feColorMatrix in="SourceAlpha" type="matrix" values="0 0 0 0 0 0 0 0 0 0 0 0 0 0 0 0 0 0 127 0" result="hardAlpha"/>
<feOffset/>
<feGaussianBlur stdDeviation="32"/>
<feComposite in2="hardAlpha" operator="out"/>
<feColorMatrix type="matrix" values="0 0 0 0 0.750699 0 0 0 0 0.987483 0 0 0 0 0.154184 0 0 0 0.72 0"/>
<feBlend mode="normal" in2="BackgroundImageFix" result="effect1_dropShadow_3057_1190"/>
<feBlend mode="normal" in="SourceGraphic" in2="effect1_dropShadow_3057_1190" result="shape"/>
</filter>
</defs>
</svg>
