<svg width="116" height="20" viewBox="0 0 116 20" fill="none" xmlns="http://www.w3.org/2000/svg">
<path d="M15.5459 0.40437C15.5459 0.262828 15.5459 0.192056 15.5184 0.137994C15.4941 0.0904393 15.4555 0.0517763 15.4079 0.0275461C15.3538 0 15.2831 0 15.1415 0H10.7684C10.6268 0 10.556 0 10.502 0.0275461C10.4544 0.0517763 10.4157 0.0904393 10.3915 0.137994C10.364 0.192056 10.364 0.262828 10.364 0.404371V3.61348C10.364 4.11406 10.364 4.36435 10.2753 4.47513C10.1944 4.57617 10.0873 4.62735 9.95781 4.62681C9.81589 4.62621 9.61162 4.46133 9.20308 4.13157C6.78464 2.17944 3.73298 0.98016 0.404471 0.890022C0.266737 0.886292 0.19787 0.884427 0.142308 0.911418C0.0942943 0.934743 0.0531109 0.974819 0.0284907 1.02217C0 1.07698 0 1.14762 0 1.28892V6.54568C0 6.68735 0 6.75819 0.0259793 6.81097C0.0495511 6.85885 0.0840298 6.89496 0.130783 6.92072C0.182311 6.94911 0.256338 6.95253 0.404392 6.95939C2.05252 7.03572 3.57941 7.57616 4.85732 8.453C5.20024 8.6883 5.37171 8.80594 5.40505 8.96447C5.43173 9.09127 5.38225 9.25076 5.2885 9.34023C5.17129 9.45206 4.94579 9.45206 4.4948 9.45206H0.429721C0.288153 9.45206 0.217368 9.45206 0.163296 9.47961C0.115733 9.50384 0.0770635 9.5425 0.052829 9.59006C0.0252779 9.64412 0.0252779 9.71489 0.0252779 9.85643V15.1132C0.0252779 15.2547 0.0252779 15.3255 0.052829 15.3796C0.0770635 15.4271 0.115733 15.4658 0.163296 15.49C0.217368 15.5176 0.288152 15.5176 0.429721 15.5176H5.68754C5.82911 15.5176 5.89989 15.5176 5.95396 15.49C6.00153 15.4658 6.0402 15.4271 6.06443 15.3796C6.09198 15.3255 6.09198 15.2547 6.09198 15.1132V11.0489C6.09198 10.598 6.09198 10.3726 6.20384 10.2554C6.29331 10.1616 6.45283 10.1122 6.57966 10.1388C6.73821 10.1722 6.85588 10.3436 7.09122 10.6864C7.96825 11.9641 8.50881 13.4907 8.58515 15.1385C8.59201 15.2865 8.59544 15.3606 8.62383 15.4121C8.6496 15.4588 8.68571 15.4933 8.7336 15.5169C8.78639 15.5428 8.85724 15.5428 8.99894 15.5428H14.2568C14.3981 15.5428 14.4687 15.5428 14.5236 15.5143C14.5709 15.4897 14.611 15.4486 14.6343 15.4005C14.6613 15.345 14.6595 15.2761 14.6557 15.1384C14.5656 11.8106 13.3661 8.75957 11.4136 6.34162C11.0837 5.93315 10.9188 5.72892 10.9182 5.58702C10.9177 5.45759 10.9689 5.3505 11.0699 5.26962C11.1807 5.18094 11.4311 5.18094 11.9317 5.18094H13.9029C14.4692 5.18094 14.7523 5.18094 14.9686 5.29113C15.1588 5.38805 15.3135 5.5427 15.4104 5.73292C15.5207 5.94917 15.5207 6.23225 15.5207 6.79843V15.1132C15.5207 15.2547 15.5207 15.3255 15.5482 15.3796C15.5724 15.4271 15.6111 15.4658 15.6587 15.49C15.7127 15.5176 15.7835 15.5176 15.9251 15.5176H20.2982C20.4398 15.5176 20.5105 15.5176 20.5646 15.49C20.6122 15.4658 20.6508 15.4271 20.6751 15.3796C20.7026 15.3255 20.7026 15.2547 20.7026 15.1132V5.56004C20.7026 5.4185 20.7026 5.34773 20.6751 5.29366C20.6508 5.24611 20.6122 5.20745 20.5646 5.18322C20.5105 5.15567 20.4398 5.15567 20.2982 5.15567H17.1637C16.5974 5.15567 16.3143 5.15567 16.098 5.04549C15.9078 4.94857 15.7531 4.79391 15.6561 4.6037C15.5459 4.38745 15.5459 4.10436 15.5459 3.53819V0.40437Z" fill="#060907"/>
<path d="M38.1775 5.67434C39.2038 5.67434 40.0327 6.06899 40.6642 6.85828C41.3089 7.64757 41.6313 8.65392 41.6313 9.87732V16.0535H38.967V10.3509C38.967 9.69316 38.7893 9.1538 38.4341 8.73285C38.092 8.31189 37.6578 8.10142 37.1315 8.10142C36.5395 8.10142 36.0526 8.31189 35.6711 8.73285C35.3027 9.1538 35.1185 9.69316 35.1185 10.3509V16.0535H32.4541V10.3509C32.4541 9.69316 32.2765 9.1538 31.9213 8.73285C31.5792 8.31189 31.1516 8.10142 30.6384 8.10142C30.0464 8.10142 29.5595 8.31189 29.178 8.73285C28.8096 9.1538 28.6254 9.69316 28.6254 10.3509V16.0535H25.961V5.87166H28.6254V8.3382C28.8885 7.50945 29.2898 6.85828 29.8293 6.3847C30.3819 5.91113 31.0266 5.67434 31.7634 5.67434C32.5528 5.67434 33.2238 5.91771 33.7764 6.40444C34.329 6.89117 34.7172 7.54891 34.9408 8.37767C35.1908 7.54891 35.6053 6.89117 36.1842 6.40444C36.7631 5.91771 37.4276 5.67434 38.1775 5.67434Z" fill="#060907"/>
<path d="M44.4429 14.7315C43.4035 13.7185 42.8838 12.4623 42.8838 10.9626C42.8838 9.46294 43.4035 8.20665 44.4429 7.19373C45.4823 6.1808 46.7783 5.67434 48.3308 5.67434C49.8834 5.67434 51.1794 6.1808 52.2188 7.19373C53.2582 8.20665 53.7779 9.46294 53.7779 10.9626C53.7779 12.4623 53.2582 13.7185 52.2188 14.7315C51.1794 15.7444 49.8834 16.2509 48.3308 16.2509C46.7783 16.2509 45.4823 15.7444 44.4429 14.7315ZM45.6468 10.9626C45.6468 11.7782 45.9033 12.4623 46.4165 13.0148C46.9296 13.5541 47.5677 13.8238 48.3308 13.8238C49.094 13.8238 49.7321 13.5541 50.2452 13.0148C50.7584 12.4623 51.0149 11.7782 51.0149 10.9626C51.0149 10.147 50.7584 9.46952 50.2452 8.93017C49.7321 8.39082 49.094 8.12115 48.3308 8.12115C47.5677 8.12115 46.9296 8.3974 46.4165 8.9499C45.9033 9.48925 45.6468 10.1602 45.6468 10.9626Z" fill="#060907"/>
<path d="M57.7866 5.87166V8.51579C58.1156 7.27924 58.6221 6.45706 59.3063 6.04925C60.0036 5.64145 60.7668 5.5691 61.5957 5.8322V8.35794C60.5299 7.9896 59.6287 8.00933 58.8918 8.41713C58.155 8.81178 57.7866 9.45637 57.7866 10.3509V16.0535H55.1223V5.87166H57.7866Z" fill="#060907"/>
<path d="M69.0823 5.67434C70.3454 5.67434 71.3914 6.1808 72.2203 7.19373C73.0492 8.20665 73.4637 9.46294 73.4637 10.9626C73.4637 12.4623 73.0492 13.7185 72.2203 14.7315C71.3914 15.7444 70.3454 16.2509 69.0823 16.2509C68.1876 16.2509 67.4114 15.9746 66.7535 15.4221C66.1088 14.8564 65.6351 14.0935 65.3325 13.1332V20H62.6682V5.87166H65.3325V8.79205C65.6351 7.83174 66.1088 7.07534 66.7535 6.52283C67.4114 5.95717 68.1876 5.67434 69.0823 5.67434ZM68.1153 13.8238C68.8389 13.8238 69.4507 13.5541 69.9507 13.0148C70.4507 12.4623 70.7007 11.7782 70.7007 10.9626C70.7007 10.1602 70.4507 9.48925 69.9507 8.9499C69.4507 8.3974 68.8389 8.12115 68.1153 8.12115C67.3127 8.12115 66.6482 8.39082 66.122 8.93017C65.5957 9.46952 65.3325 10.147 65.3325 10.9626C65.3325 11.7782 65.5957 12.4623 66.122 13.0148C66.6482 13.5541 67.3127 13.8238 68.1153 13.8238Z" fill="#060907"/>
<path d="M80.9784 5.67434C82.1099 5.67434 83.0178 6.06899 83.702 6.85828C84.3993 7.64757 84.748 8.65392 84.748 9.87732V16.0535H82.0836V10.3509C82.0836 9.69316 81.8731 9.1538 81.4521 8.73285C81.0311 8.31189 80.5048 8.10142 79.8732 8.10142C79.1627 8.10142 78.5838 8.31189 78.1365 8.73285C77.6891 9.1538 77.4654 9.69316 77.4654 10.3509V16.0535H74.8011V1.45163H77.4654V8.47633C77.7286 7.60811 78.1693 6.92405 78.7877 6.42417C79.4193 5.92428 80.1495 5.67434 80.9784 5.67434Z" fill="#060907"/>
<path d="M86.1373 3.04994C86.1373 2.60268 86.2952 2.22776 86.611 1.9252C86.9268 1.60948 87.3083 1.45163 87.7557 1.45163C88.1899 1.45163 88.5649 1.60948 88.8806 1.9252C89.1964 2.22776 89.3543 2.60268 89.3543 3.04994C89.3543 3.48405 89.1964 3.85897 88.8806 4.17468C88.5649 4.4904 88.1899 4.64826 87.7557 4.64826C87.3083 4.64826 86.9268 4.4904 86.611 4.17468C86.2952 3.85897 86.1373 3.48405 86.1373 3.04994ZM89.078 16.0535H86.4136V5.87166H89.078V16.0535Z" fill="#060907"/>
<path d="M90.2259 13.3107L92.8902 12.7582C93.0087 13.6791 93.6139 14.1395 94.7059 14.1395C95.2454 14.1395 95.6796 14.0408 96.0085 13.8435C96.3374 13.633 96.5019 13.3765 96.5019 13.074C96.5019 12.7846 96.3506 12.5543 96.048 12.3833C95.7585 12.2123 95.3901 12.1005 94.9428 12.0479C94.5086 11.9953 94.0283 11.9098 93.5021 11.7914C92.9889 11.673 92.5087 11.5283 92.0613 11.3572C91.6272 11.1862 91.2587 10.8902 90.9561 10.4693C90.6667 10.0483 90.5219 9.52214 90.5219 8.89071C90.5219 7.96987 90.9167 7.20688 91.7061 6.60176C92.5087 5.98348 93.5086 5.67434 94.7059 5.67434C95.9033 5.67434 96.89 5.94402 97.6663 6.48337C98.4426 7.00956 98.9031 7.71992 99.0478 8.61446L96.4032 9.16696C96.2717 8.24612 95.7059 7.7857 94.7059 7.7857C94.2718 7.7857 93.9099 7.87778 93.6205 8.06195C93.3442 8.24612 93.206 8.48291 93.206 8.77231C93.206 9.07488 93.3507 9.31166 93.6402 9.48268C93.9428 9.65369 94.3112 9.76551 94.7454 9.81813C95.1928 9.87075 95.673 9.96283 96.1861 10.0944C96.7124 10.2128 97.1927 10.3575 97.6268 10.5285C98.0742 10.6995 98.4426 11.0021 98.7321 11.4362C99.0347 11.8571 99.186 12.3899 99.186 13.0345C99.186 13.9422 98.7518 14.7052 97.8834 15.3234C97.015 15.9417 95.9559 16.2509 94.7059 16.2509C93.456 16.2509 92.4297 15.9878 91.6271 15.4616C90.8377 14.9222 90.3706 14.2053 90.2259 13.3107Z" fill="#060907"/>
<path d="M112.546 5.67434C113.572 5.67434 114.401 6.06899 115.033 6.85828C115.678 7.64757 116 8.65392 116 9.87732V16.0535H113.336V10.3509C113.336 9.69316 113.158 9.1538 112.803 8.73285C112.461 8.31189 112.027 8.10142 111.5 8.10142C110.908 8.10142 110.421 8.31189 110.04 8.73285C109.671 9.1538 109.487 9.69316 109.487 10.3509V16.0535H106.823V10.3509C106.823 9.69316 106.645 9.1538 106.29 8.73285C105.948 8.31189 105.52 8.10142 105.007 8.10142C104.415 8.10142 103.928 8.31189 103.547 8.73285C103.178 9.1538 102.994 9.69316 102.994 10.3509V16.0535H100.33V5.87166H102.994V8.3382C103.257 7.50945 103.659 6.85828 104.198 6.3847C104.751 5.91113 105.395 5.67434 106.132 5.67434C106.922 5.67434 107.593 5.91771 108.145 6.40444C108.698 6.89117 109.086 7.54891 109.31 8.37767C109.56 7.54891 109.974 6.89117 110.553 6.40444C111.132 5.91771 111.796 5.67434 112.546 5.67434Z" fill="#060907"/>
</svg>
