<svg width="282" height="419" viewBox="0 0 282 419" fill="none" xmlns="http://www.w3.org/2000/svg">
<path fill-rule="evenodd" clip-rule="evenodd" d="M161 324C151.572 324 146.858 324 143.929 321.071C141 318.142 141 313.428 141 304L141 0.5C141 0.223858 140.776 0 140.5 0V0C140.224 0 140 0.223862 140 0.500005L140 313.66C140 313.976 140 314.134 139.996 314.267C139.854 319.581 135.581 323.854 130.267 323.996C130.134 324 129.976 324 129.66 324H112.78C112.314 324 112 323.465 112 323V323C112 321.895 111.105 321 110 321H101C99.8954 321 99 321.895 99 323V323C99 323.465 98.6856 324 98.2204 324H85.7796C85.3144 324 85 323.465 85 323V323C85 321.895 84.1046 321 83 321H37C35.8954 321 35 321.895 35 323V323C35 323.465 34.6856 324 34.2204 324H28C12.536 324 0 336.536 0 352V388C0 403.464 12.536 416 28 416H37H83H116.22C116.686 416 117 416.535 117 417V417C117 418.105 117.895 419 119 419H173C174.105 419 175 418.105 175 417V417C175 416.535 175.314 416 175.78 416H235.22C235.686 416 236 416.535 236 417V417C236 418.105 236.895 419 238 419H249C250.105 419 251 418.105 251 417V417C251 416.535 251.314 416 251.78 416H254C269.464 416 282 403.464 282 388V352C282 336.536 269.464 324 254 324H237H191H161ZM85 414V414C85 414.465 85.3144 415 85.7796 415H119H173H238H249H254C268.912 415 281 402.912 281 388V352C281 337.088 268.912 325 254 325H239.78C239.314 325 239 325.535 239 326V326C239 327.105 238.105 328 237 328H191C189.895 328 189 327.105 189 326V326C189 325.535 188.686 325 188.22 325H110H101H83H37H28C13.0883 325 1 337.088 1 352V388C1 402.912 13.0883 415 28 415H34.2204C34.6856 415 35 414.465 35 414V414C35 412.895 35.8954 412 37 412H83C84.1046 412 85 412.895 85 414Z" fill="url(#paint0_linear_974_1740)"/>
<defs>
<linearGradient id="paint0_linear_974_1740" x1="141" y1="0" x2="141" y2="416" gradientUnits="userSpaceOnUse">
<stop stop-color="#BDF925" stop-opacity="0"/>
<stop offset="0.523738" stop-color="#BDF925" stop-opacity="0.3"/>
<stop offset="1" stop-color="#BDF925" stop-opacity="0.4"/>
</linearGradient>
</defs>
</svg>
