<svg width="120" height="66" viewBox="0 0 120 66" fill="none" xmlns="http://www.w3.org/2000/svg">
<g filter="url(#filter0_d_3057_1205)">
<path d="M23.3695 16L7.00391 6L10.5617 25.2857L14.8309 18.1429L23.3695 16Z" fill="#47B0F5"/>
<path d="M7.37377 5.3947L6.0181 4.56633L6.30632 6.12869L9.86406 25.4144L10.2054 27.2645L11.1705 25.6496L15.2889 18.7593L23.5422 16.688L25.1824 16.2764L23.7394 15.3947L7.37377 5.3947Z" stroke="white" stroke-width="1.41872"/>
</g>
<g filter="url(#filter1_d_3057_1205)">
<rect x="25.4941" y="31.5332" width="88.3448" height="25.8966" rx="5.17241" fill="#47B0F5"/>
<path d="M32.0331 49.9814V38.6962H35.9785C36.7647 38.6962 37.4131 38.8321 37.9237 39.1039C38.4343 39.3721 38.8145 39.734 39.0643 40.1895C39.3141 40.6413 39.439 41.1428 39.439 41.6938C39.439 42.1787 39.3527 42.5792 39.18 42.8951C39.0111 43.211 38.787 43.4608 38.5078 43.6445C38.2323 43.8282 37.9329 43.9641 37.6096 44.0523V44.1625C37.9549 44.1845 38.3021 44.3057 38.6511 44.5262C39 44.7466 39.2921 45.0625 39.5272 45.4739C39.7623 45.8854 39.8799 46.3887 39.8799 46.9838C39.8799 47.5495 39.7513 48.0583 39.4941 48.5102C39.237 48.962 38.8311 49.3202 38.2763 49.5847C37.7216 49.8492 36.9998 49.9814 36.1108 49.9814H32.0331ZM33.3997 48.7692H36.1108C37.0034 48.7692 37.6371 48.5965 38.0118 48.2512C38.3902 47.9022 38.5794 47.4797 38.5794 46.9838C38.5794 46.6017 38.4821 46.2491 38.2874 45.9258C38.0927 45.5989 37.8153 45.338 37.4553 45.1433C37.0953 44.945 36.6692 44.8458 36.1769 44.8458H33.3997V48.7692ZM33.3997 43.6555H35.9344C36.3459 43.6555 36.7169 43.5747 37.0475 43.4131C37.3818 43.2514 37.6463 43.0237 37.841 42.7298C38.0394 42.4359 38.1386 42.0906 38.1386 41.6938C38.1386 41.1979 37.9659 40.7773 37.6206 40.4319C37.2753 40.083 36.7279 39.9085 35.9785 39.9085H33.3997V43.6555ZM41.2772 49.9814V48.7692H41.5858C41.8393 48.7692 42.0505 48.7196 42.2195 48.6204C42.3885 48.5175 42.5244 48.3394 42.6272 48.0859C42.7338 47.8287 42.8146 47.4724 42.8697 47.0169C42.9285 46.5577 42.9707 45.9736 42.9964 45.2646L43.1507 41.5175H48.7934V49.9814H47.4929V42.7298H44.385L44.2528 45.7495C44.2234 46.4438 44.161 47.0554 44.0654 47.5844C43.9736 48.1098 43.8322 48.5506 43.6411 48.9069C43.4538 49.2633 43.204 49.5314 42.8917 49.7114C42.5795 49.8914 42.1882 49.9814 41.718 49.9814H41.2772ZM53.7476 50.1798C53.2113 50.1798 52.7245 50.0788 52.2874 49.8767C51.8502 49.671 51.5031 49.3753 51.2459 48.9896C50.9888 48.6002 50.8602 48.13 50.8602 47.5789C50.8602 47.094 50.9557 46.7009 51.1467 46.3997C51.3378 46.0948 51.5931 45.856 51.9127 45.6833C52.2323 45.5107 52.5849 45.3821 52.9707 45.2976C53.3601 45.2095 53.7513 45.1397 54.1444 45.0882C54.6587 45.0221 55.0756 44.9725 55.3952 44.9394C55.7185 44.9027 55.9536 44.8421 56.1006 44.7576C56.2512 44.6731 56.3265 44.5262 56.3265 44.3168V44.2727C56.3265 43.729 56.1777 43.3065 55.8802 43.0053C55.5863 42.7041 55.1399 42.5534 54.5411 42.5534C53.9203 42.5534 53.4335 42.6894 53.0809 42.9612C52.7282 43.2331 52.4802 43.5233 52.337 43.8319L51.1027 43.391C51.3231 42.8767 51.617 42.4763 51.9843 42.1898C52.3553 41.8995 52.7594 41.6975 53.1966 41.5836C53.6374 41.4661 54.0709 41.4073 54.497 41.4073C54.7689 41.4073 55.0811 41.4403 55.4338 41.5065C55.7902 41.5689 56.1336 41.6993 56.4643 41.8977C56.7986 42.0961 57.0759 42.3955 57.2963 42.7959C57.5167 43.1963 57.6269 43.7327 57.6269 44.4049V49.9814H56.3265V48.8353H56.2604C56.1722 49.019 56.0253 49.2155 55.8195 49.4249C55.6138 49.6343 55.3401 49.8125 54.9985 49.9594C54.6568 50.1063 54.2399 50.1798 53.7476 50.1798ZM53.946 49.0116C54.4603 49.0116 54.8938 48.9106 55.2465 48.7085C55.6028 48.5065 55.871 48.2457 56.051 47.9261C56.2347 47.6065 56.3265 47.2703 56.3265 46.9177V45.7274C56.2714 45.7936 56.1502 45.8542 55.9628 45.9093C55.7791 45.9607 55.5661 46.0066 55.3236 46.047C55.0848 46.0838 54.8515 46.1168 54.6238 46.1462C54.3997 46.1719 54.2179 46.194 54.0783 46.2123C53.7403 46.2564 53.4244 46.3281 53.1305 46.4272C52.8403 46.5228 52.6051 46.6679 52.4251 46.8626C52.2488 47.0536 52.1606 47.3144 52.1606 47.645C52.1606 48.0969 52.3278 48.4385 52.6621 48.67C53.0001 48.8977 53.428 49.0116 53.946 49.0116ZM59.1744 52.406V48.7692H59.8798C60.0524 48.5892 60.2012 48.3945 60.3261 48.1851C60.451 47.9757 60.5594 47.7277 60.6512 47.4412C60.7467 47.1509 60.8275 46.7983 60.8937 46.3832C60.9598 45.9644 61.0186 45.4593 61.07 44.8678L61.3565 41.5175H66.7347V48.7692H68.0351V52.406H66.7347V49.9814H60.4749V52.406H59.1744ZM61.3565 48.7692H65.4342V42.7298H62.5688L62.3484 44.8678C62.2566 45.7531 62.1427 46.5264 62.0068 47.1877C61.8708 47.8489 61.6541 48.3761 61.3565 48.7692ZM71.1393 48.0638L75.217 41.5175H76.7158V49.9814H75.4154V43.4351L71.3597 49.9814H69.8388V41.5175H71.1393V48.0638ZM83.804 48.2181L86.7575 41.5175H87.9919L84.333 49.9814H83.275L79.6822 41.5175H80.8945L83.804 48.2181ZM80.4757 41.5175V49.9814H79.1753V41.5175H80.4757ZM87.1322 49.9814V41.5175H88.4327V49.9814H87.1322ZM92.1912 48.0638L96.2689 41.5175H97.7677V49.9814H96.4673V43.4351L92.4116 49.9814H90.8908V41.5175H92.1912V48.0638ZM100.227 53.1554V41.5175H101.484V42.862H101.638C101.733 42.7151 101.866 42.5277 102.035 42.3C102.207 42.0685 102.453 41.8628 102.773 41.6828C103.096 41.4991 103.533 41.4073 104.084 41.4073C104.797 41.4073 105.425 41.5855 105.969 41.9418C106.513 42.2981 106.937 42.8032 107.242 43.4571C107.547 44.111 107.699 44.8825 107.699 45.7715C107.699 46.6679 107.547 47.4448 107.242 48.1024C106.937 48.7563 106.515 49.2633 105.975 49.6233C105.434 49.9796 104.812 50.1578 104.106 50.1578C103.563 50.1578 103.127 50.0678 102.801 49.8878C102.474 49.7041 102.222 49.4965 102.046 49.2651C101.869 49.03 101.733 48.8353 101.638 48.681H101.528V53.1554H100.227ZM101.506 45.7495C101.506 46.3887 101.599 46.9526 101.787 47.4412C101.974 47.9261 102.248 48.3063 102.608 48.5818C102.968 48.8537 103.409 48.9896 103.93 48.9896C104.474 48.9896 104.928 48.8463 105.291 48.5598C105.659 48.2696 105.934 47.8802 106.118 47.3916C106.305 46.8993 106.399 46.3519 106.399 45.7495C106.399 45.1543 106.307 44.618 106.123 44.1404C105.943 43.6592 105.67 43.279 105.302 42.9998C104.939 42.7169 104.481 42.5755 103.93 42.5755C103.401 42.5755 102.957 42.7096 102.597 42.9777C102.237 43.2422 101.965 43.6133 101.781 44.0908C101.597 44.5647 101.506 45.1176 101.506 45.7495Z" fill="white"/>
</g>
<defs>
<filter id="filter0_d_3057_1205" x="0.776068" y="0.295373" width="30.4752" height="34.6227" filterUnits="userSpaceOnUse" color-interpolation-filters="sRGB">
<feFlood flood-opacity="0" result="BackgroundImageFix"/>
<feColorMatrix in="SourceAlpha" type="matrix" values="0 0 0 0 0 0 0 0 0 0 0 0 0 0 0 0 0 0 127 0" result="hardAlpha"/>
<feOffset dy="1.41872"/>
<feGaussianBlur stdDeviation="2.12808"/>
<feColorMatrix type="matrix" values="0 0 0 0 0 0 0 0 0 0 0 0 0 0 0 0 0 0 0.4 0"/>
<feBlend mode="normal" in2="BackgroundImageFix" result="effect1_dropShadow_3057_1205"/>
<feBlend mode="normal" in="SourceGraphic" in2="effect1_dropShadow_3057_1205" result="shape"/>
</filter>
<filter id="filter1_d_3057_1205" x="19.8193" y="28.6958" width="99.6945" height="37.2462" filterUnits="userSpaceOnUse" color-interpolation-filters="sRGB">
<feFlood flood-opacity="0" result="BackgroundImageFix"/>
<feColorMatrix in="SourceAlpha" type="matrix" values="0 0 0 0 0 0 0 0 0 0 0 0 0 0 0 0 0 0 127 0" result="hardAlpha"/>
<feOffset dy="2.83744"/>
<feGaussianBlur stdDeviation="2.83744"/>
<feColorMatrix type="matrix" values="0 0 0 0 0 0 0 0 0 0 0 0 0 0 0 0 0 0 0.12 0"/>
<feBlend mode="normal" in2="BackgroundImageFix" result="effect1_dropShadow_3057_1205"/>
<feBlend mode="normal" in="SourceGraphic" in2="effect1_dropShadow_3057_1205" result="shape"/>
</filter>
</defs>
</svg>
