<svg width="319" height="201" viewBox="0 0 319 201" fill="none" xmlns="http://www.w3.org/2000/svg">
<g clip-path="url(#clip0_974_5197)">
<path d="M13.5262 113.95H35.1125L6.68102 200.597L6.11503 202.321L7.93021 202.294L309.198 197.736L310.847 197.711L310.431 196.115L277.576 70.138L303.28 94.5081L305.392 93.1438L288.585 44.8304L312.13 2.58358L313.195 0.673525L311.008 0.659473L7.00832 -1.29409L4.9581 -1.30727L5.8282 0.549203L35.4673 63.7883L12.3588 112.097L11.4726 113.95H13.5262Z" fill="#ECFF3B" stroke="#10150B" stroke-width="2.58824"/>
<path d="M76 192H88.6807V170.412L101.073 192V170.412H165.629V187.503L172.978 170.412L181.048 187.503H214.479V173.785L223.269 187.503V165.915L243.298 173.785L240.416 142.078L256.411 134.657L249.927 156.245H275L256.411 87.4963L208 76.5" stroke="#10150B" stroke-width="2"/>
<path d="M200.362 59.4087L184.11 71.9694L190.066 88.1796L210.123 83.4181L222.739 71.4264L218.34 55.311L200.362 59.4087Z" fill="#CEC9BD"/>
<path d="M210.389 83.91L210.25 83.9462L189.728 88.8214L183.469 71.7902L200.127 58.915L218.724 54.6771L223.335 71.6033L210.389 83.91ZM190.408 87.5455L209.859 82.9281L222.134 71.258L217.957 55.9511L200.599 59.9081L184.753 72.1543L190.408 87.5455Z" fill="#010101"/>
<path d="M209.61 83.5852L204.321 67.2866L184.245 72.4912L183.975 71.4482L205.033 65.989L210.637 83.252L209.61 83.5852Z" fill="#010101"/>
<path d="M204.675 66.6372L218.34 55.3105L222.738 71.4258L210.122 83.4179L204.675 66.6372Z" fill="#010101"/>
<path d="M217.994 54.9014L204.331 66.2262L205.019 67.0556L218.682 55.7309L217.994 54.9014Z" fill="#010101"/>
<path d="M206.459 82.137L199.011 84.068L197.923 80.7131L205.369 78.7827L206.459 82.137Z" fill="#ECFF3B"/>
<path d="M207.146 82.5136L198.663 84.7128L197.241 80.3337L205.732 78.1324L207.146 82.5136ZM199.367 83.4176L205.768 81.7581L205.014 79.4314L198.615 81.0903L199.367 83.4176Z" fill="#010101"/>
<path d="M198.551 36.6074C199.862 40.2941 196.319 51.4567 196.319 51.4567C196.319 51.4567 186.518 45.0446 185.199 41.3622C184.887 40.4859 184.75 39.5567 184.797 38.6277C184.844 37.6987 185.074 36.788 185.473 35.9477C185.872 35.1074 186.432 34.3539 187.122 33.7302C187.812 33.1066 188.619 32.6249 189.495 32.3128C190.371 32.0007 191.3 31.8643 192.229 31.9113C193.158 31.9583 194.069 32.1878 194.909 32.5868C195.75 32.9857 196.503 33.5462 197.127 34.2364C197.751 34.9266 198.232 35.7328 198.544 36.6091L198.551 36.6074Z" fill="#ECFF3B"/>
<path d="M196.619 52.2959L196.024 51.907C195.619 51.6424 186.058 45.3641 184.698 41.541C184.351 40.5956 184.194 39.5908 184.238 38.5847C184.282 37.5785 184.524 36.591 184.952 35.6791C185.379 34.7673 185.983 33.9492 186.729 33.2722C187.474 32.5952 188.347 32.0726 189.295 31.7347C190.244 31.3968 191.25 31.2504 192.256 31.3037C193.262 31.3571 194.247 31.6092 195.154 32.0455C196.062 32.4819 196.874 33.0938 197.544 33.8459C198.214 34.598 198.728 35.4754 199.056 36.4274C200.414 40.2401 196.978 51.1566 196.831 51.6199L196.619 52.2959ZM190.249 32.6537C190.059 32.7029 189.87 32.7521 189.684 32.8269C188.052 33.4095 186.717 34.6155 185.973 36.1804C185.228 37.7454 185.134 39.5417 185.712 41.1757C186.767 44.1387 193.888 49.1531 196.015 50.6006C196.75 48.1373 199.099 39.7508 198.037 36.7895C197.487 35.2541 196.384 33.9792 194.944 33.2142C193.503 32.4493 191.829 32.2494 190.249 32.6537Z" fill="#010101"/>
<path d="M192.516 41.5139C194.017 41.1248 194.918 39.5926 194.529 38.0916C194.14 36.5906 192.607 35.6893 191.106 36.0784C189.605 36.4675 188.704 37.9998 189.093 39.5007C189.482 41.0017 191.015 41.9031 192.516 41.5139Z" fill="#CEC9BD"/>
<path d="M192.646 42.0361C191.8 42.254 190.902 42.1319 190.144 41.696C189.387 41.2601 188.83 40.5449 188.593 39.7037C188.356 38.8624 188.458 37.9619 188.877 37.1949C189.296 36.4278 189.998 35.8552 190.834 35.5996C191.67 35.344 192.573 35.4258 193.349 35.8273C194.125 36.2289 194.713 36.9183 194.987 37.7481C195.262 38.5779 195.2 39.4821 194.816 40.2671C194.432 41.0521 193.756 41.6557 192.933 41.9485C192.839 41.9817 192.742 42.0113 192.646 42.0361ZM191.237 36.6006C191.172 36.6173 191.105 36.6346 191.028 36.6546C190.476 36.8269 190.013 37.2084 189.737 37.7176C189.462 38.2267 189.397 38.8232 189.556 39.3798C189.715 39.9363 190.085 40.4086 190.587 40.6959C191.09 40.9833 191.685 41.0629 192.245 40.9176C192.805 40.7724 193.286 40.4139 193.586 39.9187C193.885 39.4234 193.979 38.8308 193.847 38.2673C193.716 37.7037 193.369 37.2139 192.881 36.9025C192.394 36.5911 191.803 36.4827 191.237 36.6006Z" fill="#010101"/>
<path d="M184.389 72.3576L183.466 71.8023L196.048 50.8639L218.768 54.6924L218.59 55.7538L196.594 52.0492L184.389 72.3576Z" fill="#010101"/>
<path d="M196.794 51.202L195.845 51.7123L203.965 66.8082L204.913 66.2979L196.794 51.202Z" fill="#010101"/>
<path d="M186.838 41.7745C186.122 40.5568 185.865 39.123 186.115 37.7325C186.607 35.2009 188.357 34.36 188.432 34.3248L188.886 35.3023L188.659 34.8136L188.89 35.2992C188.837 35.3263 187.556 35.9677 187.172 37.9371C186.978 39.0579 187.181 40.2114 187.746 41.1985L186.838 41.7745Z" fill="#CEC9BD"/>
<path d="M71.209 123.977H149.709L166.462 128.466V200.69H71.209V123.977Z" fill="#12190C"/>
<path d="M167.717 201.945H69.9553V122.723H149.874L167.717 127.503V201.945ZM72.4635 199.436H165.209V129.43L149.543 125.231H72.4635V199.436Z" fill="#12190C"/>
<path d="M124.035 184.432H71.209V200.69H124.035V184.432Z" fill="#ECFF3B"/>
<path d="M125.29 201.945H69.9553V183.178H125.29V201.945ZM72.4635 199.436H122.782V185.687H72.4635V199.436Z" fill="#12190C"/>
<path d="M148.177 142.591H124.034V200.693H148.177V142.591Z" fill="#ECFF3B"/>
<path d="M149.431 201.945H122.78V141.333H149.431V201.945ZM125.288 199.436H146.923V143.841H125.288V199.436Z" fill="#12190C"/>
<path d="M131.035 163.281H128.527V177.075H131.035V163.281Z" fill="#12190C"/>
<path d="M124.035 136.116H71.209V184.432H124.035V136.116Z" fill="#CEC9BD"/>
<path d="M125.29 185.687H69.9553V134.862H125.29V185.687ZM72.4635 183.179H122.782V137.37H72.4635V183.179Z" fill="#12190C"/>
<path d="M88.6903 157.294L81.5615 163.962L83.275 165.794L90.4037 159.125L88.6903 157.294Z" fill="#12190C"/>
<path d="M88.6903 164.748L81.5615 171.417L83.2749 173.248L90.4037 166.58L88.6903 164.748Z" fill="#12190C"/>
<path d="M53.6609 137.917L70.2747 123.977H148.177L124.034 146.269C124.034 146.269 122.745 137.51 115.326 136.798C108.764 136.171 104.616 143.966 104.616 143.966C104.616 143.966 101.631 136.763 95.672 136.763C89.5421 136.763 85.6044 142.587 85.6044 142.587C85.6044 142.587 82.414 136.763 76.0735 136.763C71.1827 136.763 66.5677 142.231 66.5677 142.231C66.5677 142.231 62.7303 138.027 59.0133 136.964C57.709 136.587 53.6609 137.917 53.6609 137.917Z" fill="#CEC9BD"/>
<path d="M67.8473 146.271H65.3391C65.3663 145.17 65.173 144.076 64.7706 143.051C64.3683 142.027 63.765 141.093 62.9963 140.305C62.2276 139.517 61.3091 138.891 60.2946 138.463C59.2803 138.036 58.1907 137.816 57.09 137.816C55.9892 137.816 54.8995 138.036 53.8852 138.463C52.8709 138.891 51.9523 139.517 51.1836 140.305C50.4149 141.093 49.8116 142.027 49.4093 143.051C49.0069 144.076 48.8136 145.17 48.8407 146.271H46.3326C46.3017 144.839 46.557 143.415 47.0838 142.082C47.6104 140.75 48.3979 139.537 49.3999 138.513C50.4018 137.489 51.5982 136.675 52.9188 136.12C54.2392 135.565 55.6574 135.279 57.09 135.279C58.5225 135.279 59.9407 135.565 61.2612 136.12C62.5817 136.675 63.778 137.489 64.78 138.513C65.782 139.537 66.5694 140.75 67.0961 142.082C67.6229 143.415 67.8782 144.839 67.8473 146.271Z" fill="#12190C"/>
<path d="M86.8581 146.271H84.35C84.35 144.083 83.4807 141.984 81.9331 140.437C80.3856 138.889 78.2868 138.02 76.0983 138.02C73.9097 138.02 71.8109 138.889 70.2634 140.437C68.7159 141.984 67.8466 144.083 67.8466 146.271H65.3384C65.3384 143.418 66.472 140.681 68.4899 138.663C70.5078 136.645 73.2446 135.511 76.0983 135.511C78.9519 135.511 81.6888 136.645 83.7066 138.663C85.7245 140.681 86.8581 143.418 86.8581 146.271Z" fill="#12190C"/>
<path d="M105.863 146.271H103.355C103.355 144.083 102.485 141.984 100.938 140.437C99.3901 138.889 97.2912 138.02 95.1027 138.02C92.9143 138.02 90.8154 138.889 89.2679 140.437C87.7204 141.984 86.8511 144.083 86.8511 146.271H84.343C84.343 143.418 85.4765 140.681 87.4944 138.663C89.5123 136.645 92.249 135.511 95.1027 135.511C97.9564 135.511 100.693 136.645 102.711 138.663C104.729 140.681 105.863 143.418 105.863 146.271Z" fill="#12190C"/>
<path d="M125.288 146.271H122.779C122.779 144.083 121.91 141.984 120.363 140.437C118.815 138.889 116.716 138.02 114.528 138.02C112.339 138.02 110.24 138.889 108.693 140.437C107.145 141.984 106.276 144.083 106.276 146.271H103.768C103.768 143.418 104.901 140.681 106.919 138.663C108.937 136.645 111.674 135.511 114.528 135.511C117.381 135.511 120.118 136.645 122.136 138.663C124.154 140.681 125.288 143.418 125.288 146.271Z" fill="#12190C"/>
<path d="M147.324 123.061L123.182 145.354L124.883 147.197L149.025 124.903L147.324 123.061Z" fill="#12190C"/>
<path d="M51.6125 140.099L50.0724 138.118L69.8415 122.723H148.175V125.231H70.7043L51.6125 140.099Z" fill="#12190C"/>
<path d="M86.4633 123.038L68.7805 138.388L70.4246 140.282L88.1075 124.932L86.4633 123.038Z" fill="#12190C"/>
<path d="M103.748 123.079L87.4547 138.709L89.191 140.519L105.484 124.889L103.748 123.079Z" fill="#12190C"/>
<path d="M125.538 123.016L107.165 138.422L108.776 140.344L127.15 124.938L125.538 123.016Z" fill="#12190C"/>
<path d="M149.272 103.412V123.682H71.209V103.412H91.0182C91.2932 98.4995 93.4382 93.8791 97.0129 90.4989C100.588 87.1188 105.321 85.2354 110.24 85.2354C115.16 85.2354 119.893 87.1188 123.468 90.4989C127.043 93.8791 129.188 98.4995 129.463 103.412H149.272Z" fill="#ECFF3B"/>
<path d="M150.512 124.939H69.9553V102.16H89.8649C90.4322 97.1535 92.8232 92.5309 96.5814 89.1744C100.34 85.8181 105.202 83.9629 110.241 83.9629C115.28 83.9629 120.142 85.8181 123.9 89.1744C127.659 92.5309 130.049 97.1535 130.617 102.16H150.512V124.939ZM72.4484 122.431H148.003V104.668H128.269L128.209 103.479C127.966 98.8782 125.967 94.5455 122.624 91.3746C119.281 88.2036 114.849 86.4359 110.241 86.4359C105.633 86.4359 101.201 88.2036 97.858 91.3746C94.515 94.5455 92.5159 98.8782 92.2726 103.479L92.2074 104.668H72.4635L72.4484 122.431Z" fill="#12190C"/>
<path d="M119.107 94.094L98.3026 115.383L100.096 117.136L120.901 95.847L119.107 94.094Z" fill="#12190C"/>
<path d="M103.483 102.694C102.302 102.692 101.158 102.276 100.252 101.517C99.3467 100.758 98.7364 99.7048 98.5281 98.5417C98.3196 97.3785 98.5265 96.1792 99.1124 95.153C99.6983 94.1268 100.626 93.3391 101.734 92.9273C102.841 92.5155 104.058 92.5059 105.172 92.9001C106.286 93.2943 107.226 94.0673 107.828 95.084C108.43 96.1009 108.656 97.2967 108.466 98.463C108.276 99.6293 107.683 100.692 106.789 101.465C105.871 102.259 104.697 102.695 103.483 102.694ZM103.483 95.1094C103.074 95.1105 102.671 95.2106 102.309 95.4009C101.947 95.5914 101.636 95.8666 101.403 96.2032C101.17 96.5398 101.022 96.9276 100.971 97.3337C100.921 97.7399 100.969 98.1522 101.112 98.5356C101.255 98.919 101.489 99.2621 101.793 99.5356C102.098 99.8092 102.464 100.005 102.861 100.107C103.257 100.208 103.672 100.212 104.071 100.119C104.469 100.025 104.839 99.8363 105.149 99.5689C105.541 99.2301 105.82 98.7793 105.949 98.2771C106.077 97.7748 106.049 97.2453 105.868 96.7596C105.686 96.2739 105.361 95.8555 104.934 95.5605C104.508 95.2655 104.002 95.108 103.483 95.1094Z" fill="#12190C"/>
<path d="M116.323 117.511C115.138 117.512 113.991 117.098 113.081 116.34C112.171 115.581 111.557 114.527 111.345 113.362C111.134 112.196 111.338 110.994 111.923 109.964C112.508 108.934 113.437 108.143 114.546 107.728C115.656 107.313 116.876 107.301 117.993 107.695C119.11 108.088 120.054 108.862 120.658 109.88C121.263 110.898 121.491 112.097 121.302 113.266C121.113 114.435 120.519 115.501 119.623 116.277C118.707 117.071 117.535 117.509 116.323 117.511ZM116.323 109.926C115.913 109.926 115.509 110.026 115.146 110.216C114.783 110.406 114.471 110.681 114.238 111.018C114.004 111.355 113.856 111.743 113.805 112.15C113.754 112.556 113.803 112.969 113.946 113.353C114.09 113.737 114.324 114.081 114.629 114.354C114.934 114.628 115.301 114.823 115.698 114.924C116.096 115.025 116.511 115.029 116.91 114.934C117.309 114.839 117.679 114.649 117.988 114.381C118.379 114.041 118.656 113.591 118.784 113.09C118.911 112.588 118.882 112.06 118.701 111.576C118.52 111.091 118.195 110.673 117.77 110.379C117.345 110.084 116.84 109.926 116.323 109.926Z" fill="#12190C"/>
<path d="M77.3544 106.826H74.8463V116.507H77.3544V106.826Z" fill="#CEC9BD"/>
</g>
<defs>
<clipPath id="clip0_974_5197">
<rect width="319" height="201" fill="white"/>
</clipPath>
</defs>
</svg>
