<svg width="173" height="21" viewBox="0 0 173 21" fill="none" xmlns="http://www.w3.org/2000/svg">
<path d="M0.146219 20C0.242219 15.92 0.290219 12.88 0.290219 10.88C0.290219 9.696 0.258219 7.712 0.194219 4.928C0.162219 3.232 0.146219 2.152 0.146219 1.688H13.5622V4.376H3.79422V10.232L12.9142 10.136V12.416L3.79422 12.32C3.79422 14.72 3.81022 17.28 3.84222 20H0.146219ZM17.1609 3.128C16.3449 3.128 15.7689 3.008 15.4329 2.768C15.0969 2.512 14.9289 2.12 14.9289 1.592C14.9289 1.064 15.0969 0.671999 15.4329 0.415999C15.7689 0.159999 16.3449 0.0319996 17.1609 0.0319996C17.9769 0.0319996 18.5529 0.159999 18.8889 0.415999C19.2249 0.671999 19.3929 1.064 19.3929 1.592C19.3929 2.12 19.2249 2.512 18.8889 2.768C18.5529 3.008 17.9769 3.128 17.1609 3.128ZM15.3129 20C15.3769 17.808 15.4089 15.48 15.4089 13.016C15.4089 9.592 15.3769 6.792 15.3129 4.616C15.4569 4.632 15.7049 4.656 16.0569 4.688C16.4249 4.704 16.7929 4.712 17.1609 4.712C17.5289 4.712 17.8889 4.704 18.2409 4.688C18.5929 4.656 18.8409 4.632 18.9849 4.616C18.9529 7.24 18.9369 10.04 18.9369 13.016C18.9369 15.048 18.9529 17.376 18.9849 20H15.3129ZM30.3881 20.288C29.0121 20.288 27.8521 19.864 26.9081 19.016C25.9641 18.152 25.3321 17.064 25.0121 15.752H24.7721L24.6041 20H21.4601C21.5081 15.888 21.5321 12.784 21.5321 10.688C21.5321 7.68 21.5081 4.752 21.4601 1.904L25.1081 1.592L25.0841 5.528C25.0681 6.04 25.0201 6.68 24.9401 7.448C24.8761 7.992 24.8281 8.544 24.7961 9.104H25.0841C25.5481 7.6 26.2921 6.44 27.3161 5.624C28.3401 4.808 29.4361 4.4 30.6041 4.4C32.4761 4.4 33.8601 5.104 34.7561 6.512C35.6521 7.92 36.1001 9.864 36.1001 12.344C36.1001 14.808 35.6121 16.752 34.6361 18.176C33.6761 19.584 32.2601 20.288 30.3881 20.288ZM29.0441 17.696C29.9881 17.696 30.7881 17.416 31.4441 16.856C32.1641 15.608 32.5241 14.12 32.5241 12.392C32.5241 11.048 32.2441 9.808 31.6841 8.672C31.1401 7.536 30.1961 6.968 28.8521 6.968C28.0361 6.968 27.3081 7.224 26.6681 7.736C26.0281 8.232 25.4921 8.936 25.0601 9.848V13.04C25.0601 13.984 25.2441 14.808 25.6121 15.512C25.9961 16.216 26.4921 16.76 27.1001 17.144C27.7241 17.512 28.3721 17.696 29.0441 17.696ZM47.1146 16.832C47.5146 16.032 47.7866 15.144 47.9306 14.168L51.3866 14.288C51.0986 16.32 50.3866 17.832 49.2506 18.824C48.1146 19.8 46.4426 20.288 44.2346 20.288C39.4346 20.288 37.0346 17.68 37.0346 12.464C37.0346 9.824 37.6666 7.824 38.9306 6.464C40.2106 5.104 42.0906 4.424 44.5706 4.424C48.9386 4.424 51.2506 6.92 51.5066 11.912L40.6106 12.848C40.6746 14.352 41.0426 15.536 41.7146 16.4C42.3866 17.264 43.3306 17.696 44.5466 17.696C45.5546 17.696 46.4106 17.408 47.1146 16.832ZM44.3066 6.992C43.7146 6.992 43.1546 7.104 42.6266 7.328C42.1146 7.536 41.6746 7.84 41.3066 8.24C40.9226 9.232 40.6986 10.36 40.6346 11.624L47.9546 11.024C47.7786 9.744 47.3786 8.752 46.7546 8.048C46.1306 7.344 45.3146 6.992 44.3066 6.992ZM61.7996 4.496C62.7756 4.496 63.5676 4.744 64.1756 5.24C64.7996 5.72 65.2716 6.456 65.5916 7.448C65.9276 8.44 66.1676 9.736 66.3116 11.336L62.7596 11.768C62.5836 10.248 62.2396 9.08 61.7276 8.264C61.2316 7.432 60.5196 7.016 59.5916 7.016C58.4716 7.016 57.5516 7.808 56.8316 9.392V10.664V12.824C56.8316 16.04 56.8636 18.432 56.9276 20H53.2076C53.2716 18.4 53.3036 15.856 53.3036 12.368C53.3036 8.88 53.2796 6.328 53.2316 4.712H56.9276L56.3996 9.104L56.6396 9.128C57.0556 7.64 57.7436 6.496 58.7036 5.696C59.6636 4.896 60.6956 4.496 61.7996 4.496ZM73.415 20.216C72.007 20.216 70.951 19.952 70.247 19.424C69.543 18.88 69.079 18.128 68.855 17.168C68.631 16.208 68.519 14.912 68.519 13.28V7.28L66.335 7.352V4.688C66.959 4.688 67.671 4.704 68.471 4.736V1.544C69.559 1.544 70.783 1.504 72.143 1.424C72.143 2.896 72.135 4 72.119 4.736C72.743 4.736 73.807 4.72 75.311 4.688L76.703 4.664C76.655 5.112 76.631 5.56 76.631 6.008C76.631 6.28 76.623 6.488 76.607 6.632L76.583 7.376L72.095 7.28V9.536V14.264C72.095 15.288 72.199 16.08 72.407 16.64C72.631 17.2 73.055 17.48 73.679 17.48C74.655 17.48 75.567 17.36 76.415 17.12L76.391 18.416C76.359 19.12 76.343 19.592 76.343 19.832C75.287 20.088 74.311 20.216 73.415 20.216ZM83.4656 20C83.4656 19.616 83.4816 18.928 83.5136 17.936C83.5776 14.8 83.6096 12.448 83.6096 10.88C83.6096 8.608 83.5696 6.136 83.4896 3.464L83.4656 1.688H91.2656C92.9456 1.688 94.3136 1.832 95.3696 2.12C96.4416 2.408 97.2496 2.912 97.7936 3.632C98.3376 4.352 98.6096 5.352 98.6096 6.632C98.6096 8.328 98.1456 9.576 97.2176 10.376C96.3056 11.16 94.9536 11.568 93.1616 11.6V11.912C94.7296 11.976 95.8976 12.304 96.6656 12.896C97.4336 13.488 97.9776 14.448 98.2976 15.776C98.3936 16.24 98.5696 16.944 98.8256 17.888C99.0976 18.832 99.3136 19.536 99.4736 20H95.5856L95.2976 18.848C94.9296 17.36 94.7056 16.36 94.6256 15.848C94.4016 15.112 94.1456 14.536 93.8576 14.12C93.5856 13.688 93.2176 13.376 92.7536 13.184C92.2896 12.976 91.6816 12.872 90.9296 12.872H87.1136V20H83.4656ZM90.6896 10.76C92.1776 10.76 93.2496 10.496 93.9056 9.968C94.5776 9.424 94.9136 8.584 94.9136 7.448C94.9136 6.216 94.5776 5.368 93.9056 4.904C93.2496 4.44 92.1856 4.208 90.7136 4.208H87.0896V10.76H90.6896ZM110.241 16.832C110.641 16.032 110.913 15.144 111.057 14.168L114.513 14.288C114.225 16.32 113.513 17.832 112.377 18.824C111.241 19.8 109.569 20.288 107.361 20.288C102.561 20.288 100.161 17.68 100.161 12.464C100.161 9.824 100.793 7.824 102.057 6.464C103.337 5.104 105.217 4.424 107.697 4.424C112.065 4.424 114.377 6.92 114.633 11.912L103.737 12.848C103.801 14.352 104.169 15.536 104.841 16.4C105.513 17.264 106.457 17.696 107.673 17.696C108.681 17.696 109.537 17.408 110.241 16.832ZM107.433 6.992C106.841 6.992 106.281 7.104 105.753 7.328C105.241 7.536 104.801 7.84 104.433 8.24C104.049 9.232 103.825 10.36 103.761 11.624L111.081 11.024C110.905 9.744 110.505 8.752 109.881 8.048C109.257 7.344 108.441 6.992 107.433 6.992ZM119.742 5.168C119.742 5.408 119.806 5.696 119.934 6.032H124.806L124.662 8.552L120.654 8.504L120.63 13.832C120.63 16.088 120.662 18.144 120.726 20H117.03C117.078 18.576 117.102 16.536 117.102 13.88V8.504L115.158 8.552V6.032H117.15C116.718 5.52 116.502 4.832 116.502 3.968C116.502 3.296 116.718 2.704 117.15 2.192C117.598 1.664 118.214 1.256 118.998 0.967999C119.782 0.679999 120.678 0.535999 121.686 0.535999C122.246 0.535999 122.822 0.575999 123.414 0.655999C124.006 0.719999 124.502 0.807999 124.902 0.92L124.734 3.704C124.126 3.464 123.486 3.344 122.814 3.344C121.902 3.344 121.158 3.504 120.582 3.824C120.022 4.144 119.742 4.592 119.742 5.168ZM140.2 4.712C140.12 6.312 140.08 8.856 140.08 12.344C140.08 15.832 140.112 18.384 140.176 20H136.456L136.864 15.632H136.6C136.2 17.024 135.472 18.16 134.416 19.04C133.376 19.904 132.208 20.336 130.912 20.336C129.248 20.336 128.08 19.824 127.408 18.8C126.736 17.76 126.376 16.192 126.328 14.096C126.312 13.52 126.304 12.888 126.304 12.2C126.304 11.496 126.296 10.792 126.28 10.088C126.28 9.432 126.272 8.472 126.256 7.208C126.24 5.928 126.224 5.096 126.208 4.712H129.88C129.832 6.744 129.808 8.32 129.808 9.44V12.656C129.808 14.144 129.992 15.368 130.36 16.328C130.728 17.272 131.48 17.744 132.616 17.744C133.4 17.744 134.168 17.464 134.92 16.904C135.688 16.344 136.232 15.664 136.552 14.864V11.624C136.552 8.552 136.52 6.248 136.456 4.712H140.2ZM142.668 20C142.732 18.4 142.764 15.856 142.764 12.368C142.764 8.88 142.74 6.328 142.692 4.712H146.388L146.004 9.104H146.244C146.66 7.696 147.396 6.56 148.452 5.696C149.524 4.832 150.716 4.4 152.028 4.4C153.676 4.4 154.828 4.912 155.484 5.936C156.14 6.96 156.492 8.528 156.54 10.64C156.556 11.216 156.564 11.856 156.564 12.56C156.564 13.248 156.572 13.944 156.588 14.648C156.588 15.304 156.596 16.264 156.612 17.528C156.628 18.792 156.644 19.616 156.66 20H152.988L153.036 18.32L153.06 16.16V15.176C153.044 14.728 153.036 13.688 153.036 12.056C153.036 10.568 152.852 9.352 152.484 8.408C152.116 7.448 151.372 6.968 150.252 6.968C149.468 6.968 148.692 7.248 147.924 7.808C147.172 8.352 146.628 9.032 146.292 9.848V13.112C146.292 16.168 146.324 18.464 146.388 20H142.668ZM169.255 20C169.479 17.408 169.615 15.944 169.663 15.608L169.399 15.584C168.919 17.008 168.191 18.152 167.215 19.016C166.255 19.88 165.079 20.312 163.687 20.312C161.943 20.312 160.615 19.632 159.703 18.272C158.807 16.912 158.359 14.928 158.359 12.32C158.359 9.856 158.847 7.928 159.823 6.536C160.815 5.128 162.271 4.424 164.191 4.424C165.023 4.424 165.807 4.608 166.543 4.976C167.295 5.328 167.919 5.84 168.415 6.512C168.927 7.184 169.255 7.96 169.399 8.84H169.687C169.639 7.864 169.551 6.688 169.423 5.312C169.391 3.968 169.375 2.832 169.375 1.904L172.975 1.592C172.943 3.544 172.927 6.952 172.927 11.816C172.927 15.032 172.951 17.76 172.999 20H169.255ZM165.391 17.72C166.271 17.72 167.063 17.464 167.767 16.952C168.471 16.44 169.023 15.736 169.423 14.84V11.624C169.423 10.744 169.239 9.952 168.871 9.248C168.503 8.544 168.015 7.992 167.407 7.592C166.815 7.192 166.175 6.992 165.487 6.992C164.607 6.992 163.783 7.272 163.015 7.832C162.295 9.08 161.935 10.568 161.935 12.296C161.935 13.08 162.031 13.888 162.223 14.72C162.431 15.536 162.791 16.24 163.303 16.832C163.815 17.424 164.511 17.72 165.391 17.72Z" fill="white"/>
</svg>
