<svg width="227" height="27" viewBox="0 0 227 27" fill="none" xmlns="http://www.w3.org/2000/svg">
<path d="M0.936722 21V0.628906H14.6359V3.75977H4.5461V9.32422H13.9113V12.3867H4.5461V21H0.936722ZM19.4014 0.628906V21H15.9561V0.628906H19.4014ZM22.0751 26.7148V23.9121H23.7841C24.7138 23.9121 25.1513 23.4473 25.5614 22.3125L26.0946 20.918L20.5302 6.5625H24.1805L26.8329 14.082C27.1884 15.1484 27.5438 16.2148 27.872 17.2812C28.2001 16.2148 28.5419 15.1484 28.911 14.082L31.5497 6.5625H35.1591L28.7059 23.3789C27.8446 25.6348 26.4227 26.7148 24.3309 26.7148H22.0751ZM43.6296 21.3281C38.5847 21.3281 35.5632 18.7168 35.5632 14.3555H39.1042C39.1316 16.8164 40.8269 18.2793 43.657 18.2793C46.1999 18.2793 47.8816 17.1309 47.8816 15.3398C47.8816 13.9043 46.8152 13.0703 44.0945 12.4414L41.907 11.9492C37.8327 11.0195 35.9597 9.22852 35.9597 6.37109C35.9597 2.73438 38.9538 0.300781 43.4519 0.300781C48.0046 0.300781 50.8347 2.76172 50.9577 6.80859H47.5261C47.3757 4.66211 45.8171 3.36328 43.4382 3.36328C41.1823 3.36328 39.5827 4.52539 39.5827 6.19336C39.5827 7.56055 40.6355 8.32617 43.2878 8.94141L45.3523 9.41992C49.5769 10.3633 51.4773 12.127 51.4773 15.1211C51.4773 18.9219 48.4558 21.3281 43.6296 21.3281ZM56.3384 21L51.8814 6.5625H55.5045L56.9947 12.0449C57.4459 13.7676 57.856 15.6133 58.2935 17.4043C58.7447 15.6133 59.1822 13.7676 59.6607 12.0449L61.192 6.5625H64.3775L65.8951 12.0449C66.3599 13.7539 66.7974 15.5859 67.2486 17.377C67.6588 15.5859 68.0826 13.7539 68.5338 12.0449L70.024 6.5625H73.688L69.2173 21H65.6353L63.8853 14.9844C63.5025 13.6445 63.147 12.2363 62.7779 10.8281C62.4224 12.2363 62.067 13.6445 61.6705 14.9844L59.8931 21H56.3384ZM78.7953 21.2324C75.9242 21.2324 73.8051 19.7832 73.8051 16.8984C73.8051 13.6172 76.4984 12.8105 79.4789 12.4961C82.1586 12.1953 83.0746 12.1543 83.0746 11.1699V11.0605C83.0746 9.83008 82.0902 8.95508 80.4359 8.95508C78.7543 8.95508 77.6332 9.83008 77.5375 11.0469H74.2152C74.3793 8.17578 76.7309 6.27539 80.5043 6.27539C84.2641 6.27539 86.4926 8.14844 86.4926 11.1562V21H83.102V18.9629H83.0473C82.3637 20.248 81.1469 21.2324 78.7953 21.2324ZM79.643 18.6758C81.8988 18.6758 83.0883 17.3359 83.0883 15.6543V14.0957C82.6645 14.3691 81.3246 14.5879 79.9027 14.8066C78.4262 15.0254 77.1684 15.5586 77.1684 16.8711C77.1684 18.0059 78.1391 18.6758 79.643 18.6758ZM88.7014 26.7148V6.5625H92.092V8.57227H92.133C93.0354 7.04102 94.635 6.27539 96.508 6.27539C100.227 6.27539 102.742 9.32422 102.742 13.7676C102.742 18.2656 100.268 21.2871 96.4944 21.2871C94.6077 21.2871 93.0901 20.4668 92.1877 18.8262H92.1467V26.7148H88.7014ZM95.6877 18.4023C97.8205 18.4023 99.2561 16.7617 99.2561 13.7676C99.2561 10.7871 97.8205 9.13281 95.6877 9.13281C93.4319 9.13281 91.9553 10.9648 91.9553 13.7676C91.9553 16.584 93.4319 18.4023 95.6877 18.4023ZM109.963 21V0.628906H124.113V3.75977H113.572V9.11914H123.32V12.1953H113.572V17.8691H124.113V21H109.963ZM124.435 21L129.672 13.6445L124.777 6.5625H128.619L130.123 8.85938C130.642 9.70703 131.135 10.5 131.627 11.3066C132.119 10.5 132.611 9.70703 133.144 8.85938L134.676 6.5625H138.463L133.527 13.5762L138.695 21H134.84L133.117 18.4297C132.584 17.582 132.092 16.7754 131.586 15.9824C131.08 16.7754 130.574 17.582 130.027 18.4297L128.277 21H124.435ZM145.429 21.3281C141.205 21.3281 138.375 18.252 138.375 13.7949C138.375 9.33789 141.205 6.23438 145.429 6.23438C149.052 6.23438 151.677 8.51758 151.978 11.7305H148.601C148.341 10.1855 147.261 9.10547 145.47 9.10547C143.214 9.10547 141.861 10.9375 141.861 13.7949C141.861 16.6387 143.201 18.457 145.47 18.457C147.275 18.457 148.246 17.418 148.574 15.8184H151.978C151.732 18.9766 149.08 21.3281 145.429 21.3281ZM156.908 12.8379V21H153.462V0.628906H156.908V8.68164C157.892 7.10938 159.341 6.27539 161.283 6.27539C164.304 6.27539 166.437 8.27148 166.437 11.9766V21H162.978V12.5234C162.978 10.4043 161.912 9.29688 160.066 9.29688C158.261 9.29688 156.908 10.377 156.908 12.8379ZM173.075 21.2324C170.204 21.2324 168.085 19.7832 168.085 16.8984C168.085 13.6172 170.779 12.8105 173.759 12.4961C176.439 12.1953 177.355 12.1543 177.355 11.1699V11.0605C177.355 9.83008 176.37 8.95508 174.716 8.95508C173.034 8.95508 171.913 9.83008 171.818 11.0469H168.495C168.659 8.17578 171.011 6.27539 174.784 6.27539C178.544 6.27539 180.773 8.14844 180.773 11.1562V21H177.382V18.9629H177.327C176.644 20.248 175.427 21.2324 173.075 21.2324ZM173.923 18.6758C176.179 18.6758 177.368 17.3359 177.368 15.6543V14.0957C176.945 14.3691 175.605 14.5879 174.183 14.8066C172.706 15.0254 171.449 15.5586 171.449 16.8711C171.449 18.0059 172.419 18.6758 173.923 18.6758ZM186.427 12.8379V21H182.982V6.5625H186.372V8.77734C187.357 7.15039 188.819 6.27539 190.802 6.27539C193.823 6.27539 195.956 8.27148 195.956 11.9766V21H192.497V12.5234C192.497 10.4043 191.431 9.29688 189.585 9.29688C187.78 9.29688 186.427 10.377 186.427 12.8379ZM204.741 26.9062C200.927 26.9062 198.616 25.1426 198.233 22.3398H201.61C201.938 23.584 203.128 24.2402 204.741 24.2402C206.901 24.2402 208.145 23.0508 208.145 20.8359V18.6348H208.132C207.202 20.3301 205.671 21.0957 203.77 21.0957C199.997 21.0957 197.522 18.0605 197.522 13.7129C197.522 9.32422 200.038 6.27539 203.743 6.27539C205.616 6.27539 207.188 7.05469 208.145 8.70898H208.159V6.5625H211.563V20.6309C211.563 25.1016 208.651 26.9062 204.741 26.9062ZM204.577 18.252C206.833 18.252 208.31 16.4473 208.31 13.6719C208.31 10.8965 206.833 9.0918 204.577 9.0918C202.444 9.0918 201.009 10.7324 201.009 13.6719C201.009 16.625 202.444 18.252 204.577 18.252ZM220.157 21.3281C215.823 21.3281 213.116 18.1699 213.116 13.7949C213.116 9.40625 215.973 6.23438 220.02 6.23438C224.177 6.23438 226.938 9.31055 226.938 13.7402V14.6836H216.493C216.575 17.0352 217.915 18.6074 220.239 18.6074C221.975 18.6074 223.137 17.7734 223.534 16.543H226.761C226.214 19.373 223.534 21.3281 220.157 21.3281ZM216.52 12.3047H223.63C223.411 10.2402 222.071 8.96875 220.075 8.96875C218.079 8.96875 216.753 10.2402 216.52 12.3047Z" fill="black"/>
</svg>
