<svg width="165" height="26" viewBox="0 0 165 26" fill="none" xmlns="http://www.w3.org/2000/svg">
<path d="M21.3211 21H18.1492V7H18.0535L12.3523 20.8359H9.94609L4.24492 7H4.14922V21H0.963669V1.27148H5.05156L11.0945 16.1602H11.2039L17.2469 1.27148H21.3211V21ZM28.7012 18.6621C29.6764 18.6621 30.4967 18.375 31.1621 17.8008C31.8366 17.2174 32.1738 16.4928 32.1738 15.627V14.5195L28.8242 14.7246C28.0039 14.7793 27.3659 14.9844 26.9102 15.3398C26.4635 15.6862 26.2402 16.1465 26.2402 16.7207C26.2402 17.3132 26.4635 17.7871 26.9102 18.1426C27.3659 18.4889 27.9629 18.6621 28.7012 18.6621ZM27.6758 21.2324C26.263 21.2324 25.1009 20.8268 24.1894 20.0156C23.2871 19.2044 22.8359 18.1517 22.8359 16.8574C22.8359 15.5723 23.3099 14.556 24.2578 13.8086C25.2148 13.0612 26.5775 12.6328 28.3457 12.5234L32.1738 12.3047V11.2656C32.1738 10.5091 31.9323 9.92122 31.4492 9.50195C30.9753 9.08268 30.3144 8.87305 29.4668 8.87305C28.6738 8.87305 28.0267 9.05078 27.5254 9.40625C27.0241 9.76172 26.7187 10.2448 26.6094 10.8555H23.4512C23.5241 9.47917 24.112 8.36263 25.2148 7.50586C26.3268 6.63997 27.7897 6.20703 29.6035 6.20703C31.3991 6.20703 32.8346 6.64453 33.9102 7.51953C34.9948 8.39453 35.5371 9.5612 35.5371 11.0195V21H32.2559V18.6895H32.1875C31.7773 19.4642 31.1575 20.084 30.3281 20.5488C29.4987 21.0046 28.6146 21.2324 27.6758 21.2324ZM37.5852 21V6.50781H40.8527V8.99609H40.9211C41.3221 8.12109 41.9055 7.44206 42.6711 6.95898C43.4458 6.47591 44.3801 6.23438 45.4738 6.23438C47.0598 6.23438 48.2902 6.71289 49.1652 7.66992C50.0493 8.62695 50.4914 9.94857 50.4914 11.6348V21H47.0871V12.3184C47.0871 11.2793 46.841 10.4863 46.3488 9.93945C45.8658 9.39258 45.1457 9.11914 44.1887 9.11914C43.2134 9.11914 42.4341 9.43815 41.8508 10.0762C41.2766 10.7142 40.9894 11.5573 40.9894 12.6055V21H37.5852ZM53.4691 3.11719H56.8734V6.50781H59.6078V9.13281H56.8734V16.666C56.8734 17.2585 57.0147 17.696 57.2973 17.9785C57.5798 18.2611 58.0219 18.4023 58.6234 18.4023C59.0245 18.4023 59.348 18.3796 59.5941 18.334V20.9316C59.184 21.0228 58.5961 21.0684 57.8305 21.0684C56.2628 21.0684 55.1417 20.7676 54.4672 20.166C53.8018 19.5645 53.4691 18.5573 53.4691 17.1445V9.13281H51.391V6.50781H53.4691V3.11719ZM66.3316 18.6621C67.3069 18.6621 68.1272 18.375 68.7926 17.8008C69.4671 17.2174 69.8043 16.4928 69.8043 15.627V14.5195L66.4547 14.7246C65.6344 14.7793 64.9964 14.9844 64.5406 15.3398C64.094 15.6862 63.8707 16.1465 63.8707 16.7207C63.8707 17.3132 64.094 17.7871 64.5406 18.1426C64.9964 18.4889 65.5934 18.6621 66.3316 18.6621ZM65.3062 21.2324C63.8935 21.2324 62.7314 20.8268 61.8199 20.0156C60.9176 19.2044 60.4664 18.1517 60.4664 16.8574C60.4664 15.5723 60.9404 14.556 61.8883 13.8086C62.8453 13.0612 64.2079 12.6328 65.9762 12.5234L69.8043 12.3047V11.2656C69.8043 10.5091 69.5628 9.92122 69.0797 9.50195C68.6057 9.08268 67.9449 8.87305 67.0973 8.87305C66.3043 8.87305 65.6572 9.05078 65.1559 9.40625C64.6546 9.76172 64.3492 10.2448 64.2398 10.8555H61.0816C61.1546 9.47917 61.7424 8.36263 62.8453 7.50586C63.9573 6.63997 65.4202 6.20703 67.234 6.20703C69.0296 6.20703 70.4651 6.64453 71.5406 7.51953C72.6253 8.39453 73.1676 9.5612 73.1676 11.0195V21H69.8863V18.6895H69.818C69.4078 19.4642 68.788 20.084 67.9586 20.5488C67.1292 21.0046 66.245 21.2324 65.3062 21.2324ZM93.3555 21L91.6738 15.9004H84.4141L82.7324 21H79.0957L86.0957 1.27148H90.0742L97.0742 21H93.3555ZM87.9961 4.75781L85.2344 13.1797H90.8398L88.0918 4.75781H87.9961ZM98.2336 21V6.50781H101.638V21H98.2336ZM101.269 4.07422C100.904 4.42969 100.458 4.60742 99.9289 4.60742C99.4003 4.60742 98.9536 4.42969 98.5891 4.07422C98.2245 3.70964 98.0422 3.27214 98.0422 2.76172C98.0422 2.24219 98.2245 1.80469 98.5891 1.44922C98.9536 1.08464 99.4003 0.902344 99.9289 0.902344C100.458 0.902344 100.904 1.08464 101.269 1.44922C101.642 1.80469 101.829 2.24219 101.829 2.76172C101.829 3.27214 101.642 3.70964 101.269 4.07422ZM103.795 21V6.50781H107.063V9.03711H107.131C107.377 8.15299 107.801 7.4694 108.403 6.98633C109.013 6.50326 109.747 6.26172 110.604 6.26172C110.905 6.26172 111.26 6.30729 111.67 6.39844V9.47461C111.333 9.34701 110.873 9.2832 110.289 9.2832C109.323 9.2832 108.567 9.57487 108.02 10.1582C107.473 10.7415 107.2 11.5436 107.2 12.5645V21H103.795ZM117.587 21.2324C115.755 21.2324 114.293 20.5579 113.199 19.209C112.114 17.86 111.572 16.0371 111.572 13.7402C111.572 11.4525 112.114 9.63411 113.199 8.28516C114.293 6.9362 115.755 6.26172 117.587 6.26172C118.608 6.26172 119.511 6.50326 120.295 6.98633C121.087 7.4694 121.68 8.12109 122.072 8.94141H122.154V1.27148H125.558V21H122.222V18.5254H122.168C121.767 19.3548 121.16 20.0156 120.349 20.5078C119.547 20.9909 118.627 21.2324 117.587 21.2324ZM118.613 9.06445C117.519 9.06445 116.653 9.48828 116.015 10.3359C115.377 11.1745 115.058 12.3138 115.058 13.7539C115.058 15.2031 115.373 16.347 116.002 17.1855C116.64 18.0241 117.51 18.4434 118.613 18.4434C119.688 18.4434 120.55 18.0195 121.197 17.1719C121.844 16.3242 122.168 15.1849 122.168 13.7539C122.168 12.332 121.844 11.1973 121.197 10.3496C120.55 9.49284 119.688 9.06445 118.613 9.06445ZM127.716 21V6.50781H130.983V9.03711H131.052C131.298 8.15299 131.721 7.4694 132.323 6.98633C132.934 6.50326 133.667 6.26172 134.524 6.26172C134.825 6.26172 135.18 6.30729 135.591 6.39844V9.47461C135.253 9.34701 134.793 9.2832 134.21 9.2832C133.244 9.2832 132.487 9.57487 131.94 10.1582C131.393 10.7415 131.12 11.5436 131.12 12.5645V21H127.716ZM147.619 19.2773C146.352 20.6172 144.648 21.2871 142.506 21.2871C140.364 21.2871 138.66 20.6172 137.393 19.2773C136.126 17.9284 135.492 16.0872 135.492 13.7539C135.492 11.4297 136.13 9.5931 137.406 8.24414C138.682 6.88607 140.382 6.20703 142.506 6.20703C144.639 6.20703 146.339 6.88607 147.605 8.24414C148.882 9.5931 149.52 11.4297 149.52 13.7539C149.52 16.0872 148.886 17.9284 147.619 19.2773ZM139.908 17.3223C140.546 18.1699 141.412 18.5938 142.506 18.5938C143.6 18.5938 144.465 18.1699 145.104 17.3223C145.742 16.4746 146.061 15.2852 146.061 13.7539C146.061 12.2318 145.742 11.0469 145.104 10.1992C144.465 9.34245 143.6 8.91406 142.506 8.91406C141.421 8.91406 140.555 9.34245 139.908 10.1992C139.27 11.0469 138.951 12.2318 138.951 13.7539C138.951 15.2852 139.27 16.4746 139.908 17.3223ZM158.964 6.26172C160.805 6.26172 162.268 6.93164 163.353 8.27148C164.437 9.61133 164.98 11.4388 164.98 13.7539C164.98 16.0599 164.442 17.8828 163.366 19.2227C162.291 20.5625 160.842 21.2324 159.019 21.2324C157.98 21.2324 157.064 21 156.271 20.5352C155.478 20.0612 154.881 19.4141 154.48 18.5938H154.411V25.7715H151.007V6.50781H154.329V9.00977H154.398C154.817 8.15299 155.423 7.48307 156.216 7C157.009 6.50781 157.925 6.26172 158.964 6.26172ZM157.925 18.4434C159.028 18.4434 159.898 18.0241 160.536 17.1855C161.174 16.3379 161.493 15.194 161.493 13.7539C161.493 12.3229 161.17 11.1836 160.523 10.3359C159.885 9.48828 159.019 9.06445 157.925 9.06445C156.868 9.06445 156.015 9.49284 155.368 10.3496C154.721 11.2064 154.393 12.3411 154.384 13.7539C154.393 15.1758 154.721 16.3151 155.368 17.1719C156.015 18.0195 156.868 18.4434 157.925 18.4434Z" fill="#F0F0EC"/>
</svg>
