<svg width="351" height="287" viewBox="0 0 351 287" fill="none" xmlns="http://www.w3.org/2000/svg">
<mask id="mask0_3089_84" style="mask-type:alpha" maskUnits="userSpaceOnUse" x="-93" y="16" width="706" height="243">
<g style="mix-blend-mode:plus-lighter">
<rect x="339.001" y="203" width="1" height="1" rx="0.5" transform="rotate(-180 339.001 203)" fill="#D9D9D9"/>
<rect x="269" y="96.0002" width="1" height="1" rx="0.5" transform="rotate(-180 269 96.0002)" fill="#D9D9D9"/>
<rect x="89.001" y="187" width="1" height="1" rx="0.5" transform="rotate(-180 89.001 187)" fill="#D9D9D9"/>
<rect x="123" y="126" width="1" height="1" rx="0.5" transform="rotate(-180 123 126)" fill="#D9D9D9"/>
<rect x="117.001" y="36.0002" width="1" height="1" rx="0.5" transform="rotate(-180 117.001 36.0002)" fill="#D9D9D9"/>
<rect x="313" y="17.0002" width="1" height="1" rx="0.5" transform="rotate(-180 313 17.0002)" fill="#D9D9D9"/>
<rect x="8.00111" y="56.0002" width="1" height="1" rx="0.5" transform="rotate(-180 8.00111 56.0002)" fill="#D9D9D9" fill-opacity="0.1"/>
<rect x="61.001" y="111" width="5" height="5" rx="2.5" transform="rotate(-180 61.001 111)" fill="#D9D9D9" fill-opacity="0.7"/>
<rect x="223.001" y="222" width="5" height="5" rx="2.5" transform="rotate(-180 223.001 222)" fill="#D9D9D9" fill-opacity="0.8"/>
<rect x="244" y="62" width="5" height="5" rx="2.5" transform="rotate(-180 244 62)" fill="#D9D9D9" fill-opacity="0.72"/>
<rect x="149.002" y="80.0005" width="5" height="5" rx="2.5" transform="rotate(-180 149.002 80.0005)" fill="#D9D9D9" fill-opacity="0.5"/>
<rect x="316.001" y="258" width="5" height="5" rx="2.5" transform="rotate(-180 316.001 258)" fill="#D9D9D9" fill-opacity="0.8"/>
<rect x="312.001" y="167" width="1" height="1" rx="0.5" transform="rotate(-180 312.001 167)" fill="#D9D9D9"/>
<rect x="251.001" y="152" width="1" height="1" rx="0.5" transform="rotate(-180 251.001 152)" fill="#D9D9D9"/>
<rect x="191.001" y="87" width="1" height="1" rx="0.5" transform="rotate(-180 191.001 87)" fill="#D9D9D9"/>
<rect x="218.001" y="144" width="1" height="1" rx="0.5" transform="rotate(-180 218.001 144)" fill="#D9D9D9" fill-opacity="0.55"/>
<rect x="175.001" y="166" width="1" height="1" rx="0.5" transform="rotate(-180 175.001 166)" fill="#D9D9D9" fill-opacity="0.55"/>
<rect x="218.001" y="185" width="1" height="1" rx="0.5" transform="rotate(-180 218.001 185)" fill="#D9D9D9" fill-opacity="0.8"/>
<rect x="309" y="133" width="1" height="1" rx="0.5" transform="rotate(-180 309 133)" fill="#D9D9D9"/>
</g>
</mask>
<g mask="url(#mask0_3089_84)">
<g opacity="0.6" filter="url(#filter0_f_3089_84)">
<ellipse cx="256.001" cy="121.5" rx="334" ry="91.5" fill="white"/>
</g>
</g>
<g opacity="0.6" filter="url(#filter1_f_3089_84)">
<ellipse cx="177" cy="128.5" rx="197" ry="91.5" fill="url(#paint0_radial_3089_84)"/>
</g>
<g filter="url(#filter2_bd_3089_84)">
<rect x="27" y="74" width="300" height="72" rx="4" fill="url(#paint1_linear_3089_84)" fill-opacity="0.64" shape-rendering="crispEdges"/>
<path d="M55.8 116.16C54.7227 116.16 53.864 115.851 53.224 115.232C52.5947 114.603 52.28 113.765 52.28 112.72V107.6C52.28 106.555 52.5947 105.723 53.224 105.104C53.864 104.475 54.7227 104.16 55.8 104.16C56.8773 104.16 57.7307 104.475 58.36 105.104C59 105.723 59.32 106.555 59.32 107.6V112.72C59.32 113.413 59.176 114.021 58.888 114.544C58.6 115.056 58.1893 115.456 57.656 115.744C57.1333 116.021 56.5147 116.16 55.8 116.16ZM55.8 114.928C56.44 114.928 56.952 114.725 57.336 114.32C57.7307 113.904 57.928 113.371 57.928 112.72V107.6C57.928 106.949 57.7307 106.421 57.336 106.016C56.952 105.6 56.44 105.392 55.8 105.392C55.16 105.392 54.6427 105.6 54.248 106.016C53.864 106.421 53.672 106.949 53.672 107.6V112.72C53.672 113.371 53.864 113.904 54.248 114.32C54.6427 114.725 55.16 114.928 55.8 114.928ZM55.8 111.104C55.512 111.104 55.2773 111.013 55.096 110.832C54.9253 110.651 54.84 110.411 54.84 110.112C54.84 109.824 54.9253 109.595 55.096 109.424C55.2773 109.243 55.512 109.152 55.8 109.152C56.088 109.152 56.3173 109.243 56.488 109.424C56.6693 109.595 56.76 109.824 56.76 110.112C56.76 110.411 56.6693 110.651 56.488 110.832C56.3173 111.013 56.088 111.104 55.8 111.104ZM61.2338 116L64.5938 110.08L61.4098 104.32H63.0738L64.8818 107.776C64.9778 107.957 65.0738 108.155 65.1698 108.368C65.2764 108.571 65.3618 108.731 65.4258 108.848C65.4791 108.731 65.5538 108.571 65.6498 108.368C65.7564 108.155 65.8578 107.957 65.9538 107.776L67.7938 104.32H69.3778L66.1938 109.984L69.5538 116H67.9058L65.9058 112.288C65.8098 112.107 65.7084 111.915 65.6018 111.712C65.5058 111.499 65.4311 111.328 65.3778 111.2C65.3244 111.328 65.2444 111.493 65.1378 111.696C65.0418 111.899 64.9458 112.091 64.8498 112.272L62.8338 116H61.2338ZM71.6275 116V114.688H74.7955V105.52L71.6275 107.888V106.288L74.2675 104.32H76.2355V114.688H78.8275V116H71.6275ZM84.5493 116.16C83.5999 116.16 82.8213 115.915 82.2133 115.424C81.6053 114.933 81.2479 114.272 81.1413 113.44H82.5813C82.6346 113.899 82.8319 114.256 83.1733 114.512C83.5146 114.757 83.9786 114.88 84.5653 114.88C85.2373 114.88 85.7386 114.699 86.0693 114.336C86.4106 113.973 86.5813 113.461 86.5813 112.8V111.664C86.5813 111.003 86.4106 110.491 86.0693 110.128C85.7386 109.765 85.2426 109.584 84.5813 109.584C84.1653 109.584 83.8026 109.696 83.4933 109.92C83.1839 110.133 82.9599 110.421 82.8213 110.784H81.3813L81.4613 104.32H87.6053V105.632H82.8533L82.8053 109.52H82.8693C82.9653 109.147 83.1999 108.853 83.5733 108.64C83.9573 108.427 84.4373 108.32 85.0133 108.32C85.9626 108.309 86.6986 108.603 87.2213 109.2C87.7546 109.787 88.0213 110.608 88.0213 111.664V112.8C88.0213 113.835 87.7173 114.656 87.1093 115.264C86.5013 115.861 85.6479 116.16 84.5493 116.16ZM93.999 116.16C93.295 116.16 92.6763 116.021 92.143 115.744C91.6203 115.456 91.215 115.061 90.927 114.56C90.639 114.059 90.495 113.472 90.495 112.8H91.935C91.935 113.451 92.1163 113.963 92.479 114.336C92.8523 114.699 93.3643 114.88 94.015 114.88C94.6763 114.88 95.1883 114.688 95.551 114.304C95.9137 113.92 96.095 113.419 96.095 112.8V112C96.095 111.339 95.9137 110.827 95.551 110.464C95.1883 110.101 94.6763 109.92 94.015 109.92H92.751V108.672L95.535 105.632H90.975V104.32H97.167V105.664L94.431 108.656C95.3803 108.731 96.1323 109.067 96.687 109.664C97.2523 110.261 97.535 111.04 97.535 112V112.8C97.535 113.472 97.3857 114.059 97.087 114.56C96.799 115.061 96.3883 115.456 95.855 115.744C95.3217 116.021 94.703 116.16 93.999 116.16ZM100.441 116V104.32H103.465C104.222 104.32 104.873 104.464 105.417 104.752C105.971 105.04 106.398 105.445 106.697 105.968C107.006 106.491 107.161 107.109 107.161 107.824V112.48C107.161 113.195 107.006 113.819 106.697 114.352C106.398 114.875 105.971 115.28 105.417 115.568C104.873 115.856 104.222 116 103.465 116H100.441ZM101.881 114.72H103.465C104.169 114.72 104.718 114.523 105.113 114.128C105.518 113.733 105.721 113.184 105.721 112.48V107.824C105.721 107.131 105.518 106.587 105.113 106.192C104.718 105.797 104.169 105.6 103.465 105.6H101.881V114.72ZM113.331 116.16C112.381 116.16 111.603 115.915 110.995 115.424C110.387 114.933 110.029 114.272 109.923 113.44H111.363C111.416 113.899 111.613 114.256 111.955 114.512C112.296 114.757 112.76 114.88 113.347 114.88C114.019 114.88 114.52 114.699 114.851 114.336C115.192 113.973 115.363 113.461 115.363 112.8V111.664C115.363 111.003 115.192 110.491 114.851 110.128C114.52 109.765 114.024 109.584 113.363 109.584C112.947 109.584 112.584 109.696 112.275 109.92C111.965 110.133 111.741 110.421 111.603 110.784H110.163L110.243 104.32H116.387V105.632H111.635L111.587 109.52H111.651C111.747 109.147 111.981 108.853 112.355 108.64C112.739 108.427 113.219 108.32 113.795 108.32C114.744 108.309 115.48 108.603 116.003 109.2C116.536 109.787 116.803 110.608 116.803 111.664V112.8C116.803 113.835 116.499 114.656 115.891 115.264C115.283 115.861 114.429 116.16 113.331 116.16ZM122.956 116.16C122.21 116.16 121.554 116.032 120.988 115.776C120.423 115.509 119.986 115.147 119.676 114.688C119.367 114.219 119.212 113.68 119.212 113.072C119.212 112.411 119.42 111.797 119.836 111.232C120.263 110.656 120.828 110.208 121.532 109.888C120.839 109.547 120.322 109.141 119.98 108.672C119.639 108.192 119.468 107.68 119.468 107.136C119.468 106.549 119.618 106.032 119.916 105.584C120.226 105.136 120.642 104.784 121.164 104.528C121.687 104.272 122.284 104.144 122.956 104.144C123.628 104.144 124.226 104.272 124.748 104.528C125.282 104.784 125.698 105.136 125.996 105.584C126.295 106.032 126.444 106.549 126.444 107.136C126.444 107.669 126.274 108.176 125.932 108.656C125.591 109.125 125.074 109.536 124.38 109.888C125.084 110.208 125.644 110.656 126.06 111.232C126.487 111.797 126.7 112.411 126.7 113.072C126.7 113.68 126.546 114.219 126.236 114.688C125.927 115.147 125.49 115.509 124.924 115.776C124.37 116.032 123.714 116.16 122.956 116.16ZM122.492 109.168L122.956 109.344L123.356 109.184C123.858 108.992 124.263 108.72 124.572 108.368C124.882 108.005 125.036 107.611 125.036 107.184C125.036 106.661 124.844 106.24 124.46 105.92C124.076 105.589 123.575 105.424 122.956 105.424C122.338 105.424 121.836 105.589 121.452 105.92C121.068 106.251 120.876 106.672 120.876 107.184C120.876 107.621 121.026 108.016 121.324 108.368C121.623 108.72 122.012 108.987 122.492 109.168ZM122.956 114.88C123.66 114.88 124.226 114.699 124.652 114.336C125.079 113.963 125.292 113.477 125.292 112.88C125.292 112.411 125.148 111.989 124.86 111.616C124.572 111.232 124.167 110.939 123.644 110.736L122.956 110.464L122.22 110.752C121.708 110.955 121.314 111.248 121.036 111.632C120.759 112.005 120.62 112.421 120.62 112.88C120.62 113.477 120.834 113.963 121.26 114.336C121.687 114.699 122.252 114.88 122.956 114.88ZM132.374 116.16C131.67 116.16 131.051 116.021 130.518 115.744C129.995 115.456 129.59 115.061 129.302 114.56C129.014 114.059 128.87 113.472 128.87 112.8H130.31C130.31 113.451 130.491 113.963 130.854 114.336C131.227 114.699 131.739 114.88 132.39 114.88C133.051 114.88 133.563 114.688 133.926 114.304C134.289 113.92 134.47 113.419 134.47 112.8V112C134.47 111.339 134.289 110.827 133.926 110.464C133.563 110.101 133.051 109.92 132.39 109.92H131.126V108.672L133.91 105.632H129.35V104.32H135.542V105.664L132.806 108.656C133.755 108.731 134.507 109.067 135.062 109.664C135.627 110.261 135.91 111.04 135.91 112V112.8C135.91 113.472 135.761 114.059 135.462 114.56C135.174 115.061 134.763 115.456 134.23 115.744C133.697 116.021 133.078 116.16 132.374 116.16ZM142.144 116.16C141.397 116.16 140.741 116.032 140.176 115.776C139.61 115.509 139.173 115.147 138.864 114.688C138.554 114.219 138.4 113.68 138.4 113.072C138.4 112.411 138.608 111.797 139.024 111.232C139.45 110.656 140.016 110.208 140.72 109.888C140.026 109.547 139.509 109.141 139.168 108.672C138.826 108.192 138.656 107.68 138.656 107.136C138.656 106.549 138.805 106.032 139.104 105.584C139.413 105.136 139.829 104.784 140.352 104.528C140.874 104.272 141.472 104.144 142.144 104.144C142.816 104.144 143.413 104.272 143.936 104.528C144.469 104.784 144.885 105.136 145.184 105.584C145.482 106.032 145.632 106.549 145.632 107.136C145.632 107.669 145.461 108.176 145.12 108.656C144.778 109.125 144.261 109.536 143.568 109.888C144.272 110.208 144.832 110.656 145.248 111.232C145.674 111.797 145.888 112.411 145.888 113.072C145.888 113.68 145.733 114.219 145.424 114.688C145.114 115.147 144.677 115.509 144.112 115.776C143.557 116.032 142.901 116.16 142.144 116.16ZM141.68 109.168L142.144 109.344L142.544 109.184C143.045 108.992 143.45 108.72 143.76 108.368C144.069 108.005 144.224 107.611 144.224 107.184C144.224 106.661 144.032 106.24 143.648 105.92C143.264 105.589 142.762 105.424 142.144 105.424C141.525 105.424 141.024 105.589 140.64 105.92C140.256 106.251 140.064 106.672 140.064 107.184C140.064 107.621 140.213 108.016 140.512 108.368C140.81 108.72 141.2 108.987 141.68 109.168ZM142.144 114.88C142.848 114.88 143.413 114.699 143.84 114.336C144.266 113.963 144.48 113.477 144.48 112.88C144.48 112.411 144.336 111.989 144.048 111.616C143.76 111.232 143.354 110.939 142.832 110.736L142.144 110.464L141.408 110.752C140.896 110.955 140.501 111.248 140.224 111.632C139.946 112.005 139.808 112.421 139.808 112.88C139.808 113.477 140.021 113.963 140.448 114.336C140.874 114.699 141.44 114.88 142.144 114.88ZM151.738 116.16C150.991 116.16 150.335 116.032 149.77 115.776C149.204 115.509 148.767 115.147 148.458 114.688C148.148 114.219 147.993 113.68 147.993 113.072C147.993 112.411 148.202 111.797 148.618 111.232C149.044 110.656 149.61 110.208 150.314 109.888C149.62 109.547 149.103 109.141 148.762 108.672C148.42 108.192 148.25 107.68 148.25 107.136C148.25 106.549 148.399 106.032 148.698 105.584C149.007 105.136 149.423 104.784 149.946 104.528C150.468 104.272 151.066 104.144 151.738 104.144C152.41 104.144 153.007 104.272 153.53 104.528C154.063 104.784 154.479 105.136 154.778 105.584C155.076 106.032 155.226 106.549 155.226 107.136C155.226 107.669 155.055 108.176 154.714 108.656C154.372 109.125 153.855 109.536 153.162 109.888C153.866 110.208 154.426 110.656 154.842 111.232C155.268 111.797 155.482 112.411 155.482 113.072C155.482 113.68 155.327 114.219 155.017 114.688C154.708 115.147 154.271 115.509 153.706 115.776C153.151 116.032 152.495 116.16 151.738 116.16ZM151.274 109.168L151.738 109.344L152.138 109.184C152.639 108.992 153.044 108.72 153.354 108.368C153.663 108.005 153.818 107.611 153.818 107.184C153.818 106.661 153.626 106.24 153.242 105.92C152.858 105.589 152.356 105.424 151.738 105.424C151.119 105.424 150.618 105.589 150.234 105.92C149.85 106.251 149.658 106.672 149.658 107.184C149.658 107.621 149.807 108.016 150.106 108.368C150.404 108.72 150.794 108.987 151.274 109.168ZM151.738 114.88C152.442 114.88 153.007 114.699 153.434 114.336C153.86 113.963 154.074 113.477 154.074 112.88C154.074 112.411 153.93 111.989 153.642 111.616C153.354 111.232 152.948 110.939 152.426 110.736L151.738 110.464L151.002 110.752C150.49 110.955 150.095 111.248 149.818 111.632C149.54 112.005 149.402 112.421 149.402 112.88C149.402 113.477 149.615 113.963 150.042 114.336C150.468 114.699 151.034 114.88 151.738 114.88ZM158.131 116V104.32H164.851V105.632H159.555V109.248H164.291V110.528H159.555V114.688H164.851V116H158.131ZM173.965 116.16C173.73 116.16 173.538 116.08 173.389 115.92C173.24 115.76 173.165 115.547 173.165 115.28V114.16C173.165 113.893 173.24 113.68 173.389 113.52C173.538 113.36 173.73 113.28 173.965 113.28C174.21 113.28 174.402 113.36 174.541 113.52C174.69 113.68 174.765 113.893 174.765 114.16V115.28C174.765 115.547 174.69 115.76 174.541 115.92C174.402 116.08 174.21 116.16 173.965 116.16ZM167.885 116.16C167.65 116.16 167.458 116.08 167.309 115.92C167.16 115.76 167.085 115.547 167.085 115.28V114.16C167.085 113.893 167.16 113.68 167.309 113.52C167.458 113.36 167.65 113.28 167.885 113.28C168.13 113.28 168.322 113.36 168.461 113.52C168.61 113.68 168.685 113.893 168.685 114.16V115.28C168.685 115.547 168.61 115.76 168.461 115.92C168.322 116.08 168.13 116.16 167.885 116.16ZM170.925 116.16C170.69 116.16 170.498 116.08 170.349 115.92C170.2 115.76 170.125 115.547 170.125 115.28V114.16C170.125 113.893 170.2 113.68 170.349 113.52C170.498 113.36 170.69 113.28 170.925 113.28C171.17 113.28 171.362 113.36 171.501 113.52C171.65 113.68 171.725 113.893 171.725 114.16V115.28C171.725 115.547 171.65 115.76 171.501 115.92C171.362 116.08 171.17 116.16 170.925 116.16Z" fill="white"/>
<path opacity="0.4" d="M190.096 114.48V111.36H187.04V110.08H190.096V106.96H191.504V110.08H194.56V111.36H191.504V114.48H190.096ZM201.994 116V113.44H196.714V111.184L200.97 104.32H202.554L198.154 111.472V112.128H201.994V109.28H203.434V116H201.994ZM206.788 116V104.32H213.508V105.632H208.212V109.248H212.948V110.528H208.212V114.688H213.508V116H206.788ZM218.861 116V105.632H215.661V104.32H223.501V105.632H220.301V116H218.861ZM225.863 116V104.32H227.303V109.312H231.047V104.32H232.487V116H231.047V110.624H227.303V116H225.863Z" fill="white"/>
<path d="M283.64 116L287 110.08L283.816 104.32H285.48L287.288 107.776C287.384 107.957 287.48 108.155 287.576 108.368C287.683 108.571 287.768 108.731 287.832 108.848C287.885 108.731 287.96 108.571 288.056 108.368C288.163 108.155 288.264 107.957 288.36 107.776L290.2 104.32H291.784L288.6 109.984L291.96 116H290.312L288.312 112.288C288.216 112.107 288.115 111.915 288.008 111.712C287.912 111.499 287.837 111.328 287.784 111.2C287.731 111.328 287.651 111.493 287.544 111.696C287.448 111.899 287.352 112.091 287.256 112.272L285.24 116H283.64ZM294.066 116V114.576L297.794 110.512C298.348 109.915 298.748 109.381 298.994 108.912C299.25 108.443 299.378 107.984 299.378 107.536C299.378 106.896 299.191 106.389 298.818 106.016C298.444 105.632 297.938 105.44 297.298 105.44C296.647 105.44 296.13 105.637 295.746 106.032C295.372 106.416 295.186 106.939 295.186 107.6H293.746C293.778 106.544 294.114 105.707 294.754 105.088C295.394 104.469 296.242 104.16 297.298 104.16C298.375 104.16 299.228 104.464 299.858 105.072C300.498 105.68 300.818 106.507 300.818 107.552C300.818 108.107 300.652 108.688 300.322 109.296C300.002 109.904 299.479 110.603 298.754 111.392L295.714 114.688H301.01V116H294.066Z" fill="#30FF5E"/>
</g>
<defs>
<filter id="filter0_f_3089_84" x="-160.999" y="-53" width="834" height="349" filterUnits="userSpaceOnUse" color-interpolation-filters="sRGB">
<feFlood flood-opacity="0" result="BackgroundImageFix"/>
<feBlend mode="normal" in="SourceGraphic" in2="BackgroundImageFix" result="shape"/>
<feGaussianBlur stdDeviation="41.5" result="effect1_foregroundBlur_3089_84"/>
</filter>
<filter id="filter1_f_3089_84" x="-56.6" y="0.400002" width="467.2" height="256.2" filterUnits="userSpaceOnUse" color-interpolation-filters="sRGB">
<feFlood flood-opacity="0" result="BackgroundImageFix"/>
<feBlend mode="normal" in="SourceGraphic" in2="BackgroundImageFix" result="shape"/>
<feGaussianBlur stdDeviation="18.3" result="effect1_foregroundBlur_3089_84"/>
</filter>
<filter id="filter2_bd_3089_84" x="-64.5" y="31.5" width="483" height="255" filterUnits="userSpaceOnUse" color-interpolation-filters="sRGB">
<feFlood flood-opacity="0" result="BackgroundImageFix"/>
<feGaussianBlur in="BackgroundImageFix" stdDeviation="5.25"/>
<feComposite in2="SourceAlpha" operator="in" result="effect1_backgroundBlur_3089_84"/>
<feColorMatrix in="SourceAlpha" type="matrix" values="0 0 0 0 0 0 0 0 0 0 0 0 0 0 0 0 0 0 127 0" result="hardAlpha"/>
<feOffset dy="49"/>
<feGaussianBlur stdDeviation="45.75"/>
<feComposite in2="hardAlpha" operator="out"/>
<feColorMatrix type="matrix" values="0 0 0 0 0 0 0 0 0 0 0 0 0 0 0.00784314 0 0 0 1 0"/>
<feBlend mode="normal" in2="effect1_backgroundBlur_3089_84" result="effect2_dropShadow_3089_84"/>
<feBlend mode="normal" in="SourceGraphic" in2="effect2_dropShadow_3089_84" result="shape"/>
</filter>
<radialGradient id="paint0_radial_3089_84" cx="0" cy="0" r="1" gradientUnits="userSpaceOnUse" gradientTransform="translate(177 37) rotate(90) scale(183 504.859)">
<stop offset="0.507202" stop-color="#000002"/>
<stop offset="1" stop-color="#393A3E"/>
</radialGradient>
<linearGradient id="paint1_linear_3089_84" x1="132.882" y1="151.5" x2="132.882" y2="-83.5" gradientUnits="userSpaceOnUse">
<stop stop-color="#161618"/>
<stop offset="1" stop-color="#161618" stop-opacity="0"/>
</linearGradient>
</defs>
</svg>
