<svg width="351" height="242" viewBox="0 0 351 242" fill="none" xmlns="http://www.w3.org/2000/svg">
<g clip-path="url(#clip0_3032_12)">
<mask id="mask0_3032_12" style="mask-type:alpha" maskUnits="userSpaceOnUse" x="-93" y="0" width="706" height="243">
<g style="mix-blend-mode:plus-lighter">
<rect x="339.001" y="187" width="1" height="1" rx="0.5" transform="rotate(-180 339.001 187)" fill="#D9D9D9"/>
<rect x="269" y="80.0002" width="1" height="1" rx="0.5" transform="rotate(-180 269 80.0002)" fill="#D9D9D9"/>
<rect x="89.001" y="171" width="1" height="1" rx="0.5" transform="rotate(-180 89.001 171)" fill="#D9D9D9"/>
<rect x="123" y="110" width="1" height="1" rx="0.5" transform="rotate(-180 123 110)" fill="#D9D9D9"/>
<rect x="117.001" y="20.0002" width="1" height="1" rx="0.5" transform="rotate(-180 117.001 20.0002)" fill="#D9D9D9"/>
<rect x="313" y="1.00024" width="1" height="1" rx="0.5" transform="rotate(-180 313 1.00024)" fill="#D9D9D9"/>
<rect x="8.00111" y="40.0002" width="1" height="1" rx="0.5" transform="rotate(-180 8.00111 40.0002)" fill="#D9D9D9" fill-opacity="0.1"/>
<rect x="61.001" y="95.0002" width="5" height="5" rx="2.5" transform="rotate(-180 61.001 95.0002)" fill="#D9D9D9" fill-opacity="0.7"/>
<rect x="223.001" y="206" width="5" height="5" rx="2.5" transform="rotate(-180 223.001 206)" fill="#D9D9D9" fill-opacity="0.8"/>
<rect x="244" y="46" width="5" height="5" rx="2.5" transform="rotate(-180 244 46)" fill="#D9D9D9" fill-opacity="0.72"/>
<rect x="149.002" y="64.0005" width="5" height="5" rx="2.5" transform="rotate(-180 149.002 64.0005)" fill="#D9D9D9" fill-opacity="0.5"/>
<rect x="316.001" y="242" width="5" height="5" rx="2.5" transform="rotate(-180 316.001 242)" fill="#D9D9D9" fill-opacity="0.8"/>
<rect x="312.001" y="151" width="1" height="1" rx="0.5" transform="rotate(-180 312.001 151)" fill="#D9D9D9"/>
<rect x="251.001" y="136" width="1" height="1" rx="0.5" transform="rotate(-180 251.001 136)" fill="#D9D9D9"/>
<rect x="191.001" y="71" width="1" height="1" rx="0.5" transform="rotate(-180 191.001 71)" fill="#D9D9D9"/>
<rect x="218.001" y="128" width="1" height="1" rx="0.5" transform="rotate(-180 218.001 128)" fill="#D9D9D9" fill-opacity="0.55"/>
<rect x="175.001" y="150" width="1" height="1" rx="0.5" transform="rotate(-180 175.001 150)" fill="#D9D9D9" fill-opacity="0.55"/>
<rect x="218.001" y="169" width="1" height="1" rx="0.5" transform="rotate(-180 218.001 169)" fill="#D9D9D9" fill-opacity="0.8"/>
<rect x="309" y="117" width="1" height="1" rx="0.5" transform="rotate(-180 309 117)" fill="#D9D9D9"/>
</g>
</mask>
<g mask="url(#mask0_3032_12)">
<g opacity="0.6" filter="url(#filter0_f_3032_12)">
<ellipse cx="256.001" cy="105.5" rx="334" ry="91.5" fill="white"/>
</g>
</g>
<g opacity="0.6" filter="url(#filter1_f_3032_12)">
<ellipse cx="177" cy="112.5" rx="197" ry="91.5" fill="url(#paint0_radial_3032_12)"/>
</g>
<g filter="url(#filter2_bd_3032_12)">
<rect x="27" y="58" width="300" height="72" rx="4" fill="url(#paint1_linear_3032_12)" fill-opacity="0.64" shape-rendering="crispEdges"/>
<path d="M55.8 100.16C54.7227 100.16 53.864 99.8507 53.224 99.232C52.5947 98.6027 52.28 97.7653 52.28 96.72V91.6C52.28 90.5547 52.5947 89.7227 53.224 89.104C53.864 88.4747 54.7227 88.16 55.8 88.16C56.8773 88.16 57.7307 88.4747 58.36 89.104C59 89.7227 59.32 90.5547 59.32 91.6V96.72C59.32 97.4133 59.176 98.0213 58.888 98.544C58.6 99.056 58.1893 99.456 57.656 99.744C57.1333 100.021 56.5147 100.16 55.8 100.16ZM55.8 98.928C56.44 98.928 56.952 98.7253 57.336 98.32C57.7307 97.904 57.928 97.3707 57.928 96.72V91.6C57.928 90.9493 57.7307 90.4213 57.336 90.016C56.952 89.6 56.44 89.392 55.8 89.392C55.16 89.392 54.6427 89.6 54.248 90.016C53.864 90.4213 53.672 90.9493 53.672 91.6V96.72C53.672 97.3707 53.864 97.904 54.248 98.32C54.6427 98.7253 55.16 98.928 55.8 98.928ZM55.8 95.104C55.512 95.104 55.2773 95.0133 55.096 94.832C54.9253 94.6507 54.84 94.4107 54.84 94.112C54.84 93.824 54.9253 93.5947 55.096 93.424C55.2773 93.2427 55.512 93.152 55.8 93.152C56.088 93.152 56.3173 93.2427 56.488 93.424C56.6693 93.5947 56.76 93.824 56.76 94.112C56.76 94.4107 56.6693 94.6507 56.488 94.832C56.3173 95.0133 56.088 95.104 55.8 95.104ZM61.2338 100L64.5938 94.08L61.4098 88.32H63.0738L64.8818 91.776C64.9778 91.9573 65.0738 92.1547 65.1698 92.368C65.2764 92.5707 65.3618 92.7307 65.4258 92.848C65.4791 92.7307 65.5538 92.5707 65.6498 92.368C65.7564 92.1547 65.8578 91.9573 65.9538 91.776L67.7938 88.32H69.3778L66.1938 93.984L69.5538 100H67.9058L65.9058 96.288C65.8098 96.1067 65.7084 95.9147 65.6018 95.712C65.5058 95.4987 65.4311 95.328 65.3778 95.2C65.3244 95.328 65.2444 95.4933 65.1378 95.696C65.0418 95.8987 64.9458 96.0907 64.8498 96.272L62.8338 100H61.2338ZM71.6275 100V98.688H74.7955V89.52L71.6275 91.888V90.288L74.2675 88.32H76.2355V98.688H78.8275V100H71.6275ZM84.5493 100.16C83.5999 100.16 82.8213 99.9147 82.2133 99.424C81.6053 98.9333 81.2479 98.272 81.1413 97.44H82.5813C82.6346 97.8987 82.8319 98.256 83.1733 98.512C83.5146 98.7573 83.9786 98.88 84.5653 98.88C85.2373 98.88 85.7386 98.6987 86.0693 98.336C86.4106 97.9733 86.5813 97.4613 86.5813 96.8V95.664C86.5813 95.0027 86.4106 94.4907 86.0693 94.128C85.7386 93.7653 85.2426 93.584 84.5813 93.584C84.1653 93.584 83.8026 93.696 83.4933 93.92C83.1839 94.1333 82.9599 94.4213 82.8213 94.784H81.3813L81.4613 88.32H87.6053V89.632H82.8533L82.8053 93.52H82.8693C82.9653 93.1467 83.1999 92.8533 83.5733 92.64C83.9573 92.4267 84.4373 92.32 85.0133 92.32C85.9626 92.3093 86.6986 92.6027 87.2213 93.2C87.7546 93.7867 88.0213 94.608 88.0213 95.664V96.8C88.0213 97.8347 87.7173 98.656 87.1093 99.264C86.5013 99.8613 85.6479 100.16 84.5493 100.16ZM93.999 100.16C93.295 100.16 92.6763 100.021 92.143 99.744C91.6203 99.456 91.215 99.0613 90.927 98.56C90.639 98.0587 90.495 97.472 90.495 96.8H91.935C91.935 97.4507 92.1163 97.9627 92.479 98.336C92.8523 98.6987 93.3643 98.88 94.015 98.88C94.6763 98.88 95.1883 98.688 95.551 98.304C95.9137 97.92 96.095 97.4187 96.095 96.8V96C96.095 95.3387 95.9137 94.8267 95.551 94.464C95.1883 94.1013 94.6763 93.92 94.015 93.92H92.751V92.672L95.535 89.632H90.975V88.32H97.167V89.664L94.431 92.656C95.3803 92.7307 96.1323 93.0667 96.687 93.664C97.2523 94.2613 97.535 95.04 97.535 96V96.8C97.535 97.472 97.3857 98.0587 97.087 98.56C96.799 99.0613 96.3883 99.456 95.855 99.744C95.3217 100.021 94.703 100.16 93.999 100.16ZM100.441 100V88.32H103.465C104.222 88.32 104.873 88.464 105.417 88.752C105.971 89.04 106.398 89.4453 106.697 89.968C107.006 90.4907 107.161 91.1093 107.161 91.824V96.48C107.161 97.1947 107.006 97.8187 106.697 98.352C106.398 98.8747 105.971 99.28 105.417 99.568C104.873 99.856 104.222 100 103.465 100H100.441ZM101.881 98.72H103.465C104.169 98.72 104.718 98.5227 105.113 98.128C105.518 97.7333 105.721 97.184 105.721 96.48V91.824C105.721 91.1307 105.518 90.5867 105.113 90.192C104.718 89.7973 104.169 89.6 103.465 89.6H101.881V98.72ZM113.331 100.16C112.381 100.16 111.603 99.9147 110.995 99.424C110.387 98.9333 110.029 98.272 109.923 97.44H111.363C111.416 97.8987 111.613 98.256 111.955 98.512C112.296 98.7573 112.76 98.88 113.347 98.88C114.019 98.88 114.52 98.6987 114.851 98.336C115.192 97.9733 115.363 97.4613 115.363 96.8V95.664C115.363 95.0027 115.192 94.4907 114.851 94.128C114.52 93.7653 114.024 93.584 113.363 93.584C112.947 93.584 112.584 93.696 112.275 93.92C111.965 94.1333 111.741 94.4213 111.603 94.784H110.163L110.243 88.32H116.387V89.632H111.635L111.587 93.52H111.651C111.747 93.1467 111.981 92.8533 112.355 92.64C112.739 92.4267 113.219 92.32 113.795 92.32C114.744 92.3093 115.48 92.6027 116.003 93.2C116.536 93.7867 116.803 94.608 116.803 95.664V96.8C116.803 97.8347 116.499 98.656 115.891 99.264C115.283 99.8613 114.429 100.16 113.331 100.16ZM122.956 100.16C122.21 100.16 121.554 100.032 120.988 99.776C120.423 99.5093 119.986 99.1467 119.676 98.688C119.367 98.2187 119.212 97.68 119.212 97.072C119.212 96.4107 119.42 95.7973 119.836 95.232C120.263 94.656 120.828 94.208 121.532 93.888C120.839 93.5467 120.322 93.1413 119.98 92.672C119.639 92.192 119.468 91.68 119.468 91.136C119.468 90.5493 119.618 90.032 119.916 89.584C120.226 89.136 120.642 88.784 121.164 88.528C121.687 88.272 122.284 88.144 122.956 88.144C123.628 88.144 124.226 88.272 124.748 88.528C125.282 88.784 125.698 89.136 125.996 89.584C126.295 90.032 126.444 90.5493 126.444 91.136C126.444 91.6693 126.274 92.176 125.932 92.656C125.591 93.1253 125.074 93.536 124.38 93.888C125.084 94.208 125.644 94.656 126.06 95.232C126.487 95.7973 126.7 96.4107 126.7 97.072C126.7 97.68 126.546 98.2187 126.236 98.688C125.927 99.1467 125.49 99.5093 124.924 99.776C124.37 100.032 123.714 100.16 122.956 100.16ZM122.492 93.168L122.956 93.344L123.356 93.184C123.858 92.992 124.263 92.72 124.572 92.368C124.882 92.0053 125.036 91.6107 125.036 91.184C125.036 90.6613 124.844 90.24 124.46 89.92C124.076 89.5893 123.575 89.424 122.956 89.424C122.338 89.424 121.836 89.5893 121.452 89.92C121.068 90.2507 120.876 90.672 120.876 91.184C120.876 91.6213 121.026 92.016 121.324 92.368C121.623 92.72 122.012 92.9867 122.492 93.168ZM122.956 98.88C123.66 98.88 124.226 98.6987 124.652 98.336C125.079 97.9627 125.292 97.4773 125.292 96.88C125.292 96.4107 125.148 95.9893 124.86 95.616C124.572 95.232 124.167 94.9387 123.644 94.736L122.956 94.464L122.22 94.752C121.708 94.9547 121.314 95.248 121.036 95.632C120.759 96.0053 120.62 96.4213 120.62 96.88C120.62 97.4773 120.834 97.9627 121.26 98.336C121.687 98.6987 122.252 98.88 122.956 98.88ZM132.374 100.16C131.67 100.16 131.051 100.021 130.518 99.744C129.995 99.456 129.59 99.0613 129.302 98.56C129.014 98.0587 128.87 97.472 128.87 96.8H130.31C130.31 97.4507 130.491 97.9627 130.854 98.336C131.227 98.6987 131.739 98.88 132.39 98.88C133.051 98.88 133.563 98.688 133.926 98.304C134.289 97.92 134.47 97.4187 134.47 96.8V96C134.47 95.3387 134.289 94.8267 133.926 94.464C133.563 94.1013 133.051 93.92 132.39 93.92H131.126V92.672L133.91 89.632H129.35V88.32H135.542V89.664L132.806 92.656C133.755 92.7307 134.507 93.0667 135.062 93.664C135.627 94.2613 135.91 95.04 135.91 96V96.8C135.91 97.472 135.761 98.0587 135.462 98.56C135.174 99.0613 134.763 99.456 134.23 99.744C133.697 100.021 133.078 100.16 132.374 100.16ZM142.144 100.16C141.397 100.16 140.741 100.032 140.176 99.776C139.61 99.5093 139.173 99.1467 138.864 98.688C138.554 98.2187 138.4 97.68 138.4 97.072C138.4 96.4107 138.608 95.7973 139.024 95.232C139.45 94.656 140.016 94.208 140.72 93.888C140.026 93.5467 139.509 93.1413 139.168 92.672C138.826 92.192 138.656 91.68 138.656 91.136C138.656 90.5493 138.805 90.032 139.104 89.584C139.413 89.136 139.829 88.784 140.352 88.528C140.874 88.272 141.472 88.144 142.144 88.144C142.816 88.144 143.413 88.272 143.936 88.528C144.469 88.784 144.885 89.136 145.184 89.584C145.482 90.032 145.632 90.5493 145.632 91.136C145.632 91.6693 145.461 92.176 145.12 92.656C144.778 93.1253 144.261 93.536 143.568 93.888C144.272 94.208 144.832 94.656 145.248 95.232C145.674 95.7973 145.888 96.4107 145.888 97.072C145.888 97.68 145.733 98.2187 145.424 98.688C145.114 99.1467 144.677 99.5093 144.112 99.776C143.557 100.032 142.901 100.16 142.144 100.16ZM141.68 93.168L142.144 93.344L142.544 93.184C143.045 92.992 143.45 92.72 143.76 92.368C144.069 92.0053 144.224 91.6107 144.224 91.184C144.224 90.6613 144.032 90.24 143.648 89.92C143.264 89.5893 142.762 89.424 142.144 89.424C141.525 89.424 141.024 89.5893 140.64 89.92C140.256 90.2507 140.064 90.672 140.064 91.184C140.064 91.6213 140.213 92.016 140.512 92.368C140.81 92.72 141.2 92.9867 141.68 93.168ZM142.144 98.88C142.848 98.88 143.413 98.6987 143.84 98.336C144.266 97.9627 144.48 97.4773 144.48 96.88C144.48 96.4107 144.336 95.9893 144.048 95.616C143.76 95.232 143.354 94.9387 142.832 94.736L142.144 94.464L141.408 94.752C140.896 94.9547 140.501 95.248 140.224 95.632C139.946 96.0053 139.808 96.4213 139.808 96.88C139.808 97.4773 140.021 97.9627 140.448 98.336C140.874 98.6987 141.44 98.88 142.144 98.88ZM151.738 100.16C150.991 100.16 150.335 100.032 149.77 99.776C149.204 99.5093 148.767 99.1467 148.458 98.688C148.148 98.2187 147.993 97.68 147.993 97.072C147.993 96.4107 148.202 95.7973 148.618 95.232C149.044 94.656 149.61 94.208 150.314 93.888C149.62 93.5467 149.103 93.1413 148.762 92.672C148.42 92.192 148.25 91.68 148.25 91.136C148.25 90.5493 148.399 90.032 148.698 89.584C149.007 89.136 149.423 88.784 149.946 88.528C150.468 88.272 151.066 88.144 151.738 88.144C152.41 88.144 153.007 88.272 153.53 88.528C154.063 88.784 154.479 89.136 154.778 89.584C155.076 90.032 155.226 90.5493 155.226 91.136C155.226 91.6693 155.055 92.176 154.714 92.656C154.372 93.1253 153.855 93.536 153.162 93.888C153.866 94.208 154.426 94.656 154.842 95.232C155.268 95.7973 155.482 96.4107 155.482 97.072C155.482 97.68 155.327 98.2187 155.017 98.688C154.708 99.1467 154.271 99.5093 153.706 99.776C153.151 100.032 152.495 100.16 151.738 100.16ZM151.274 93.168L151.738 93.344L152.138 93.184C152.639 92.992 153.044 92.72 153.354 92.368C153.663 92.0053 153.818 91.6107 153.818 91.184C153.818 90.6613 153.626 90.24 153.242 89.92C152.858 89.5893 152.356 89.424 151.738 89.424C151.119 89.424 150.618 89.5893 150.234 89.92C149.85 90.2507 149.658 90.672 149.658 91.184C149.658 91.6213 149.807 92.016 150.106 92.368C150.404 92.72 150.794 92.9867 151.274 93.168ZM151.738 98.88C152.442 98.88 153.007 98.6987 153.434 98.336C153.86 97.9627 154.074 97.4773 154.074 96.88C154.074 96.4107 153.93 95.9893 153.642 95.616C153.354 95.232 152.948 94.9387 152.426 94.736L151.738 94.464L151.002 94.752C150.49 94.9547 150.095 95.248 149.818 95.632C149.54 96.0053 149.402 96.4213 149.402 96.88C149.402 97.4773 149.615 97.9627 150.042 98.336C150.468 98.6987 151.034 98.88 151.738 98.88ZM158.131 100V88.32H164.851V89.632H159.555V93.248H164.291V94.528H159.555V98.688H164.851V100H158.131ZM173.965 100.16C173.73 100.16 173.538 100.08 173.389 99.92C173.24 99.76 173.165 99.5467 173.165 99.28V98.16C173.165 97.8933 173.24 97.68 173.389 97.52C173.538 97.36 173.73 97.28 173.965 97.28C174.21 97.28 174.402 97.36 174.541 97.52C174.69 97.68 174.765 97.8933 174.765 98.16V99.28C174.765 99.5467 174.69 99.76 174.541 99.92C174.402 100.08 174.21 100.16 173.965 100.16ZM167.885 100.16C167.65 100.16 167.458 100.08 167.309 99.92C167.16 99.76 167.085 99.5467 167.085 99.28V98.16C167.085 97.8933 167.16 97.68 167.309 97.52C167.458 97.36 167.65 97.28 167.885 97.28C168.13 97.28 168.322 97.36 168.461 97.52C168.61 97.68 168.685 97.8933 168.685 98.16V99.28C168.685 99.5467 168.61 99.76 168.461 99.92C168.322 100.08 168.13 100.16 167.885 100.16ZM170.925 100.16C170.69 100.16 170.498 100.08 170.349 99.92C170.2 99.76 170.125 99.5467 170.125 99.28V98.16C170.125 97.8933 170.2 97.68 170.349 97.52C170.498 97.36 170.69 97.28 170.925 97.28C171.17 97.28 171.362 97.36 171.501 97.52C171.65 97.68 171.725 97.8933 171.725 98.16V99.28C171.725 99.5467 171.65 99.76 171.501 99.92C171.362 100.08 171.17 100.16 170.925 100.16Z" fill="white"/>
<path opacity="0.4" d="M190.096 98.48V95.36H187.04V94.08H190.096V90.96H191.504V94.08H194.56V95.36H191.504V98.48H190.096ZM201.994 100V97.44H196.714V95.184L200.97 88.32H202.554L198.154 95.472V96.128H201.994V93.28H203.434V100H201.994ZM206.788 100V88.32H213.508V89.632H208.212V93.248H212.948V94.528H208.212V98.688H213.508V100H206.788ZM218.861 100V89.632H215.661V88.32H223.501V89.632H220.301V100H218.861ZM225.863 100V88.32H227.303V93.312H231.047V88.32H232.487V100H231.047V94.624H227.303V100H225.863Z" fill="white"/>
<path d="M283.64 100L287 94.08L283.816 88.32H285.48L287.288 91.776C287.384 91.9573 287.48 92.1547 287.576 92.368C287.683 92.5707 287.768 92.7307 287.832 92.848C287.885 92.7307 287.96 92.5707 288.056 92.368C288.163 92.1547 288.264 91.9573 288.36 91.776L290.2 88.32H291.784L288.6 93.984L291.96 100H290.312L288.312 96.288C288.216 96.1067 288.115 95.9147 288.008 95.712C287.912 95.4987 287.837 95.328 287.784 95.2C287.731 95.328 287.651 95.4933 287.544 95.696C287.448 95.8987 287.352 96.0907 287.256 96.272L285.24 100H283.64ZM294.066 100V98.576L297.794 94.512C298.348 93.9147 298.748 93.3813 298.994 92.912C299.25 92.4427 299.378 91.984 299.378 91.536C299.378 90.896 299.191 90.3893 298.818 90.016C298.444 89.632 297.938 89.44 297.298 89.44C296.647 89.44 296.13 89.6373 295.746 90.032C295.372 90.416 295.186 90.9387 295.186 91.6H293.746C293.778 90.544 294.114 89.7067 294.754 89.088C295.394 88.4693 296.242 88.16 297.298 88.16C298.375 88.16 299.228 88.464 299.858 89.072C300.498 89.68 300.818 90.5067 300.818 91.552C300.818 92.1067 300.652 92.688 300.322 93.296C300.002 93.904 299.479 94.6027 298.754 95.392L295.714 98.688H301.01V100H294.066Z" fill="#30FF5E"/>
</g>
</g>
<defs>
<filter id="filter0_f_3032_12" x="-160.999" y="-69" width="834" height="349" filterUnits="userSpaceOnUse" color-interpolation-filters="sRGB">
<feFlood flood-opacity="0" result="BackgroundImageFix"/>
<feBlend mode="normal" in="SourceGraphic" in2="BackgroundImageFix" result="shape"/>
<feGaussianBlur stdDeviation="41.5" result="effect1_foregroundBlur_3032_12"/>
</filter>
<filter id="filter1_f_3032_12" x="-56.6" y="-15.6" width="467.2" height="256.2" filterUnits="userSpaceOnUse" color-interpolation-filters="sRGB">
<feFlood flood-opacity="0" result="BackgroundImageFix"/>
<feBlend mode="normal" in="SourceGraphic" in2="BackgroundImageFix" result="shape"/>
<feGaussianBlur stdDeviation="18.3" result="effect1_foregroundBlur_3032_12"/>
</filter>
<filter id="filter2_bd_3032_12" x="-64.5" y="15.5" width="483" height="255" filterUnits="userSpaceOnUse" color-interpolation-filters="sRGB">
<feFlood flood-opacity="0" result="BackgroundImageFix"/>
<feGaussianBlur in="BackgroundImageFix" stdDeviation="5.25"/>
<feComposite in2="SourceAlpha" operator="in" result="effect1_backgroundBlur_3032_12"/>
<feColorMatrix in="SourceAlpha" type="matrix" values="0 0 0 0 0 0 0 0 0 0 0 0 0 0 0 0 0 0 127 0" result="hardAlpha"/>
<feOffset dy="49"/>
<feGaussianBlur stdDeviation="45.75"/>
<feComposite in2="hardAlpha" operator="out"/>
<feColorMatrix type="matrix" values="0 0 0 0 0 0 0 0 0 0 0 0 0 0 0.00784314 0 0 0 1 0"/>
<feBlend mode="normal" in2="effect1_backgroundBlur_3032_12" result="effect2_dropShadow_3032_12"/>
<feBlend mode="normal" in="SourceGraphic" in2="effect2_dropShadow_3032_12" result="shape"/>
</filter>
<radialGradient id="paint0_radial_3032_12" cx="0" cy="0" r="1" gradientUnits="userSpaceOnUse" gradientTransform="translate(177 21) rotate(90) scale(183 504.859)">
<stop offset="0.507202" stop-color="#000002"/>
<stop offset="1" stop-color="#393A3E"/>
</radialGradient>
<linearGradient id="paint1_linear_3032_12" x1="132.882" y1="135.5" x2="132.882" y2="-99.5" gradientUnits="userSpaceOnUse">
<stop stop-color="#161618"/>
<stop offset="1" stop-color="#161618" stop-opacity="0"/>
</linearGradient>
<clipPath id="clip0_3032_12">
<rect width="705.001" height="242" fill="white" transform="translate(-93)"/>
</clipPath>
</defs>
</svg>
