<svg width="239" height="22" viewBox="0 0 239 22" fill="none" xmlns="http://www.w3.org/2000/svg">
<path d="M7.456 21.28C6.056 21.28 4.84267 21.0467 3.816 20.58C2.78933 20.1133 1.996 19.4507 1.436 18.592C0.894667 17.7147 0.614667 16.688 0.596 15.512H4.096C4.096 16.352 4.39467 17.0147 4.992 17.5C5.608 17.9667 6.43867 18.2 7.484 18.2C8.492 18.2 9.276 17.9667 9.836 17.5C10.4147 17.0333 10.704 16.3893 10.704 15.568C10.704 14.8773 10.4987 14.28 10.088 13.776C9.696 13.2533 9.12667 12.8987 8.38 12.712L6.028 12.068C4.42267 11.6573 3.18133 10.92 2.304 9.856C1.44533 8.792 1.016 7.504 1.016 5.992C1.016 4.83467 1.27733 3.82667 1.8 2.968C2.32267 2.10933 3.06 1.44667 4.012 0.979999C4.98267 0.513333 6.12133 0.28 7.428 0.28C9.40667 0.28 10.9747 0.793333 12.132 1.82C13.2893 2.828 13.8773 4.19067 13.896 5.908H10.396C10.396 5.10533 10.1347 4.48 9.612 4.032C9.08933 3.56533 8.352 3.332 7.4 3.332C6.48533 3.332 5.776 3.54667 5.272 3.976C4.768 4.40533 4.516 5.012 4.516 5.796C4.516 6.50533 4.70267 7.112 5.076 7.616C5.468 8.10133 6.028 8.44667 6.756 8.652L9.192 9.324C10.816 9.73467 12.0573 10.472 12.916 11.536C13.7747 12.5813 14.204 13.8787 14.204 15.428C14.204 16.5853 13.924 17.612 13.364 18.508C12.804 19.3853 12.02 20.0667 11.012 20.552C10.004 21.0373 8.81867 21.28 7.456 21.28ZM17.1051 21V0.559999H23.9091C25.2717 0.559999 26.4571 0.821333 27.4651 1.344C28.4917 1.86667 29.2851 2.604 29.8451 3.556C30.4051 4.48933 30.6851 5.59067 30.6851 6.86C30.6851 8.11067 30.3957 9.212 29.8171 10.164C29.2571 11.116 28.4731 11.8533 27.4651 12.376C26.4571 12.8987 25.2717 13.16 23.9091 13.16H20.6051V21H17.1051ZM20.6051 9.996H23.9091C24.8797 9.996 25.6544 9.716 26.2331 9.156C26.8304 8.57733 27.1291 7.812 27.1291 6.86C27.1291 5.88933 26.8304 5.124 26.2331 4.564C25.6544 4.004 24.8797 3.724 23.9091 3.724H20.6051V9.996ZM31.8781 21L37.0301 0.559999H41.5381L46.7181 21H43.1341L42.0141 16.044H36.5821L35.4621 21H31.8781ZM37.2261 13.188H41.3701L40.1381 7.7C39.9328 6.78533 39.7555 5.964 39.6061 5.236C39.4568 4.48933 39.3541 3.948 39.2981 3.612C39.2421 3.948 39.1395 4.48933 38.9901 5.236C38.8595 5.964 38.6821 6.776 38.4581 7.672L37.2261 13.188ZM55.3592 21.28C54.0525 21.28 52.9045 21.0373 51.9152 20.552C50.9445 20.048 50.1885 19.348 49.6472 18.452C49.1245 17.5373 48.8632 16.464 48.8632 15.232V6.328C48.8632 5.07733 49.1245 4.004 49.6472 3.108C50.1885 2.212 50.9445 1.52133 51.9152 1.036C52.9045 0.531999 54.0525 0.28 55.3592 0.28C56.6845 0.28 57.8232 0.531999 58.7752 1.036C59.7459 1.52133 60.5019 2.212 61.0432 3.108C61.5845 4.004 61.8552 5.07733 61.8552 6.328H58.3272C58.3272 5.35733 58.0659 4.62 57.5432 4.116C57.0392 3.612 56.3112 3.36 55.3592 3.36C54.4072 3.36 53.6699 3.612 53.1472 4.116C52.6245 4.62 52.3632 5.348 52.3632 6.3V15.232C52.3632 16.184 52.6245 16.9213 53.1472 17.444C53.6699 17.948 54.4072 18.2 55.3592 18.2C56.3112 18.2 57.0392 17.948 57.5432 17.444C58.0659 16.9213 58.3272 16.184 58.3272 15.232H61.8552C61.8552 16.4453 61.5845 17.5093 61.0432 18.424C60.5019 19.3387 59.7459 20.048 58.7752 20.552C57.8232 21.0373 56.6845 21.28 55.3592 21.28ZM65.2602 21V0.559999H77.5243V3.612H68.7042V8.932H76.5443V11.956H68.7042V17.948H77.5243V21H65.2602ZM79.5293 21L85.1853 10.528L79.8653 0.559999H83.7853L86.3613 5.684C86.548 6.05733 86.716 6.42133 86.8653 6.776C87.0146 7.112 87.1266 7.37333 87.2013 7.56C87.2573 7.37333 87.36 7.112 87.5093 6.776C87.6586 6.42133 87.8266 6.05733 88.0133 5.684L90.6173 0.559999H94.4253L89.1053 10.444L94.7613 21H90.8413L87.9573 15.344C87.7706 14.9707 87.5933 14.6067 87.4253 14.252C87.276 13.8973 87.164 13.6173 87.0893 13.412C87.0146 13.6173 86.9026 13.8973 86.7533 14.252C86.604 14.6067 86.436 14.9707 86.2493 15.344L83.3373 21H79.5293ZM119.155 21.28C117.849 21.28 116.701 21.0373 115.711 20.552C114.741 20.048 113.985 19.348 113.443 18.452C112.921 17.5373 112.659 16.464 112.659 15.232V6.328C112.659 5.07733 112.921 4.004 113.443 3.108C113.985 2.212 114.741 1.52133 115.711 1.036C116.701 0.531999 117.849 0.28 119.155 0.28C120.481 0.28 121.619 0.531999 122.571 1.036C123.542 1.52133 124.298 2.212 124.839 3.108C125.381 4.004 125.651 5.07733 125.651 6.328H122.123C122.123 5.35733 121.862 4.62 121.339 4.116C120.835 3.612 120.107 3.36 119.155 3.36C118.203 3.36 117.466 3.612 116.943 4.116C116.421 4.62 116.159 5.348 116.159 6.3V15.232C116.159 16.184 116.421 16.9213 116.943 17.444C117.466 17.9667 118.203 18.228 119.155 18.228C120.107 18.228 120.835 17.9667 121.339 17.444C121.862 16.9213 122.123 16.184 122.123 15.232V13.16H118.651V10.136H125.651V15.232C125.651 16.464 125.381 17.5373 124.839 18.452C124.298 19.348 123.542 20.048 122.571 20.552C121.619 21.0373 120.481 21.28 119.155 21.28ZM129.112 21V17.92H133.228V3.64H129.112V0.559999H140.873V3.64H136.756V17.92H140.873V21H129.112ZM148.674 21L143.522 0.559999H147.162L150.242 13.888C150.41 14.5413 150.568 15.2413 150.718 15.988C150.867 16.7347 150.979 17.3413 151.054 17.808C151.128 17.3413 151.231 16.7347 151.362 15.988C151.492 15.2413 151.632 14.532 151.782 13.86L154.834 0.559999H158.362L153.21 21H148.674ZM160.955 21V0.559999H173.219V3.612H164.399V8.932H172.239V11.956H164.399V17.948H173.219V21H160.955ZM175.42 21L180.572 0.559999H185.08L190.26 21H186.676L185.556 16.044H180.124L179.004 21H175.42ZM180.768 13.188H184.912L183.68 7.7C183.474 6.78533 183.297 5.964 183.148 5.236C182.998 4.48933 182.896 3.948 182.84 3.612C182.784 3.948 182.681 4.48933 182.532 5.236C182.401 5.964 182.224 6.776 182 7.672L180.768 13.188ZM192.937 21L190.837 0.559999H193.861L195.093 14.84C195.13 15.1573 195.158 15.5493 195.177 16.016C195.214 16.464 195.242 16.9213 195.261 17.388C195.298 17.8547 195.317 18.2653 195.317 18.62C195.354 18.2653 195.391 17.8547 195.429 17.388C195.466 16.9213 195.503 16.464 195.541 16.016C195.597 15.5493 195.643 15.1573 195.681 14.84L197.361 0.559999H200.301L201.869 14.84C201.925 15.1573 201.971 15.5493 202.009 16.016C202.065 16.464 202.121 16.9213 202.177 17.388C202.233 17.8547 202.279 18.2653 202.317 18.62C202.335 18.2653 202.354 17.8547 202.373 17.388C202.391 16.9213 202.41 16.464 202.429 16.016C202.466 15.5493 202.503 15.1573 202.541 14.84L203.745 0.559999H206.741L204.529 21H200.665L199.153 6.664C199.115 6.30933 199.069 5.89867 199.013 5.432C198.975 4.94667 198.938 4.47067 198.901 4.004C198.863 3.51867 198.835 3.108 198.817 2.772C198.798 3.108 198.761 3.51867 198.705 4.004C198.667 4.47067 198.63 4.94667 198.593 5.432C198.555 5.89867 198.518 6.30933 198.481 6.664L196.829 21H192.937ZM207.318 21L212.47 0.559999H216.978L222.158 21H218.574L217.454 16.044H212.022L210.902 21H207.318ZM212.666 13.188H216.81L215.578 7.7C215.372 6.78533 215.195 5.964 215.046 5.236C214.896 4.48933 214.794 3.948 214.738 3.612C214.682 3.948 214.579 4.48933 214.43 5.236C214.299 5.964 214.122 6.776 213.898 7.672L212.666 13.188ZM228.923 21V13.58L222.931 0.559999H226.599L229.791 7.644C230.034 8.204 230.239 8.75467 230.407 9.296C230.575 9.83733 230.687 10.2573 230.743 10.556C230.818 10.2573 230.93 9.83733 231.079 9.296C231.247 8.75467 231.452 8.204 231.695 7.644L234.803 0.559999H238.443L232.451 13.58V21H228.923Z" fill="white"/>
</svg>
