<svg width="56" height="56" viewBox="0 0 56 56" fill="none" xmlns="http://www.w3.org/2000/svg">
<g clip-path="url(#clip0_974_5348)">
<rect width="56" height="56" rx="28" fill="white"/>
<path d="M28 0C20.5756 0 13.4487 2.95181 8.20312 8.20094C2.95209 13.4521 0.00145456 20.5738 0 28C0 35.4231 2.95312 42.5499 8.20312 47.7991C13.4487 53.0482 20.5756 56 28 56C35.4244 56 42.5513 53.0482 47.7969 47.7991C53.0469 42.5499 56 35.4231 56 28C56 20.5769 53.0469 13.4501 47.7969 8.20094C42.5513 2.95181 35.4244 0 28 0Z" fill="white"/>
<path d="M12.6743 27.7043C20.8381 24.1483 26.2806 21.8038 29.0018 20.6711C36.7806 17.4367 38.395 16.8749 39.4493 16.8559C39.6812 16.8522 40.1975 16.9095 40.5343 17.1818C40.8143 17.4115 40.8931 17.7221 40.9325 17.9402C40.9675 18.1581 41.0156 18.6547 40.9762 19.0423C40.5562 23.4698 38.7318 34.2139 37.8043 39.173C37.415 41.2712 36.6406 41.9747 35.8925 42.0434C34.265 42.193 33.0312 40.9689 31.4562 39.9368C28.9931 38.3212 27.6018 37.3158 25.2087 35.7395C22.4437 33.9177 24.2375 32.9163 25.8125 31.28C26.2237 30.8517 33.39 24.3352 33.5256 23.7441C33.5431 23.6702 33.5606 23.3945 33.3943 23.2493C33.2325 23.1036 32.9918 23.1535 32.8168 23.1928C32.5675 23.2488 28.6343 25.8511 21.0043 30.9992C19.8887 31.7665 18.8781 32.1406 17.9681 32.1209C16.9706 32.0995 15.0456 31.5557 13.615 31.091C11.865 30.521 10.4693 30.2195 10.5918 29.2513C10.6531 28.7473 11.3487 28.2315 12.6743 27.7043Z" fill="#2BABEE"/>
</g>
<defs>
<clipPath id="clip0_974_5348">
<rect width="56" height="56" rx="28" fill="white"/>
</clipPath>
</defs>
</svg>
