<svg width="124" height="21" viewBox="0 0 124 21" fill="none" xmlns="http://www.w3.org/2000/svg">
<path d="M0.285311 3.256V0.399999H15.6013V3.256H9.55331V20H6.33331V3.256H0.285311ZM22.7151 5.664H23.3871V8.492H22.0431C19.3551 8.492 18.4871 10.592 18.4871 12.804V20H15.4631V5.664H18.1511L18.4871 7.82C19.2151 6.616 20.3631 5.664 22.7151 5.664ZM37.0786 17.368H37.6946V20H36.0986C34.1386 20 33.4666 19.132 33.4666 17.704C32.5146 19.16 31.0586 20.168 28.7346 20.168C25.5986 20.168 23.4146 18.628 23.4146 15.968C23.4146 13.028 25.5426 11.376 29.5466 11.376H33.1586V10.508C33.1586 8.912 32.0106 7.932 30.0226 7.932C28.2306 7.932 27.0266 8.772 26.8026 10.032H23.8346C24.1426 7.232 26.5506 5.496 30.1626 5.496C33.9706 5.496 36.1546 7.316 36.1546 10.704V16.444C36.1546 17.172 36.4626 17.368 37.0786 17.368ZM33.1586 14.12V13.616H29.4066C27.5306 13.616 26.4946 14.316 26.4946 15.772C26.4946 16.976 27.5026 17.816 29.1546 17.816C31.6746 17.816 33.1306 16.332 33.1586 14.12ZM40.0418 3.648C39.0058 3.648 38.1938 2.892 38.1938 1.828C38.1938 0.763999 39.0058 0.0079987 40.0418 0.0079987C41.0778 0.0079987 41.8898 0.763999 41.8898 1.828C41.8898 2.892 41.0778 3.648 40.0418 3.648ZM38.5018 20V5.664H41.5258V20H38.5018ZM51.2101 5.496C54.3741 5.496 56.9781 7.232 56.9781 12.02V20H53.9261V12.272C53.9261 9.556 52.7781 8.1 50.5101 8.1C48.1021 8.1 46.6741 9.864 46.6741 12.776V20H43.6501V5.664H46.2821L46.6181 7.54C47.5141 6.42 48.8861 5.496 51.2101 5.496ZM59.1962 20V0.399999H63.3682L69.6402 15.828L75.8002 0.399999H79.8882V20H76.7802V5.58L70.9002 20H68.1842L62.3042 5.58V20H59.1962ZM89.1335 20.168C84.6255 20.168 81.7975 17.256 81.7975 12.86C81.7975 8.436 84.6255 5.496 88.8535 5.496C92.9975 5.496 95.7695 8.128 95.8535 12.328C95.8535 12.692 95.8255 13.084 95.7695 13.476H84.9615V13.672C85.0455 16.108 86.5855 17.704 88.9655 17.704C90.8135 17.704 92.1575 16.78 92.5775 15.184H95.6015C95.0975 18.012 92.6895 20.168 89.1335 20.168ZM85.0735 11.264H92.7175C92.4655 9.136 90.9815 7.932 88.8815 7.932C86.9495 7.932 85.2975 9.22 85.0735 11.264ZM112.388 1.33789L117.583 20H112.142L111.035 15.9531H105.415L104.226 20H102.107L107.63 1.33789H112.388ZM105.949 14.0801H110.529L108.328 5.80859L105.949 14.0801ZM123.648 1.33789V20H118.234V1.33789H123.648Z" fill="white"/>
</svg>
